<svg xmlns="http://www.w3.org/2000/svg" xmlns:xlink="http://www.w3.org/1999/xlink" fill="none" version="1.1" width="315.100341796875" height="83.20094299316406" viewBox="0 0 315.100341796875 83.20094299316406"><g><g><g><g><path d="M12.268392295288086,24.898001L12.268392295288086,28.174L5.968392895288086,28.174L5.968392895288086,24.898001L4.168393095288086,24.898001L4.168393095288086,28.174L0.8743932852880859,28.174L0.8743932852880859,29.866001L4.168393095288086,29.866001L4.168393095288086,41.511999L5.968392895288086,41.511999L5.968392895288086,40.341999L12.268392295288086,40.341999L12.268392295288086,41.385999999999996L14.104393295288085,41.385999999999996L14.104393295288085,29.866001L17.326393295288085,29.866001L17.326393295288085,28.174L14.104393295288085,28.174L14.104393295288085,24.898001L12.268392295288086,24.898001ZM5.968392895288086,29.866001L12.268392295288086,29.866001L12.268392295288086,33.412001000000004L5.968392895288086,33.412001000000004L5.968392895288086,29.866001ZM5.968392895288086,38.667998999999995L5.968392895288086,35.086L12.268392295288086,35.086L12.268392295288086,38.667998999999995L5.968392895288086,38.667998999999995ZM32.302393295288084,33.592000999999996L32.302393295288084,41.332001000000005L33.904394295288085,41.332001000000005L33.904394295288085,33.592000999999996L32.302393295288084,33.592000999999996ZM20.782392295288087,33.574000999999996L20.782392295288087,35.086C20.782392295288087,36.742001,20.584392295288087,38.848,18.730392295288087,40.504000000000005C19.144394295288087,40.738001,19.756393295288085,41.205999,20.044393295288085,41.530001C22.096393295288085,39.639999,22.312393295288086,37.138000000000005,22.312393295288086,35.122L22.312393295288086,33.574000999999996L20.782392295288087,33.574000999999996ZM23.986393295288085,34.276001C23.770393295288088,35.841999,23.410392295288087,37.498001,22.870393295288086,38.614000000000004C23.212393295288084,38.776001,23.860393295288088,39.1,24.148393295288084,39.298C24.706392295288087,38.092000999999996,25.174392295288087,36.274,25.426393295288086,34.546L23.986393295288085,34.276001ZM28.738393295288088,34.510000000000005C29.224394295288086,35.931999000000005,29.710394295288086,37.84,29.872392295288087,38.974001L31.366392295288087,38.65C31.204393295288085,37.516001,30.682394295288088,35.662001000000004,30.142393295288088,34.239999999999995L28.738393295288088,34.510000000000005ZM31.762392295288087,30.1L31.762392295288087,31.378L28.000393295288085,31.378L28.000393295288085,30.1L31.762392295288087,30.1ZM26.272394295288088,24.808001L26.272394295288088,26.139999L20.908394295288087,26.139999L20.908394295288087,27.580002L26.272394295288088,27.580002L26.272394295288088,28.804001L19.108392295288088,28.804001L19.108392295288088,30.1L26.272394295288088,30.1L26.272394295288088,31.378L20.908394295288087,31.378L20.908394295288087,32.799999L26.272394295288088,32.799999L26.272394295288088,41.440000999999995L28.000393295288085,41.440000999999995L28.000393295288085,32.799999L33.59839429528809,32.799999L33.59839429528809,30.1L35.200391295288085,30.1L35.200391295288085,28.804001L33.59839429528809,28.804001L33.59839429528809,26.139999L28.000393295288085,26.139999L28.000393295288085,24.808001L26.272394295288088,24.808001ZM31.762392295288087,28.804001L28.000393295288085,28.804001L28.000393295288085,27.580002L31.762392295288087,27.580002L31.762392295288087,28.804001ZM40.672392295288084,25.798000000000002C39.970392295288086,27.382,38.74639329528809,28.93,37.432394295288084,29.92C37.828394295288085,30.136002,38.548391295288084,30.604,38.89039429528808,30.91C40.16839429528809,29.776001,41.51839229528809,28.030001,42.36439329528809,26.248001L40.672392295288084,25.798000000000002ZM47.92639329528809,26.482C49.384393295288085,27.688,51.058393295288084,29.398001,51.77839429528809,30.549999L53.236395295288084,29.577999C52.44439529528809,28.426001,50.716390295288086,26.788,49.27639229528808,25.654L47.92639329528809,26.482ZM44.11039129528809,24.826L44.11039129528809,30.838001C41.91439229528809,31.684,39.26839229528809,32.224001,36.62239229528809,32.530001C36.94639429528809,32.889999,37.46839329528809,33.628,37.68439329528809,34.006001C38.476392295288086,33.880001,39.25039529528809,33.736000000000004,40.042394295288084,33.574000999999996L40.042394295288084,41.493999L41.680395295288086,41.493999L41.680395295288086,40.738001L49.384393295288085,40.738001L49.384393295288085,41.422001L51.112394295288084,41.422001L51.112394295288084,32.296001000000004L44.524393295288085,32.296001000000004C46.774393295288085,31.450001,48.754392295288085,30.334,50.10439129528809,28.804001L48.48439229528809,28.066002C47.800394295288086,28.84,46.88239129528809,29.506001,45.802393295288084,30.082001L45.802393295288084,24.826L44.11039129528809,24.826ZM41.680395295288086,35.896L49.384393295288085,35.896L49.384393295288085,37.066L41.680395295288086,37.066L41.680395295288086,35.896ZM41.680395295288086,34.708L41.680395295288086,33.610001L49.384393295288085,33.610001L49.384393295288085,34.708L41.680395295288086,34.708ZM41.680395295288086,38.271999L49.384393295288085,38.271999L49.384393295288085,39.441998999999996L41.680395295288086,39.441998999999996L41.680395295288086,38.271999ZM60.09439229528809,37.677999C60.47239529528809,38.812,60.850393295288086,40.306,60.976392295288086,41.188L62.578394295288085,40.827999C62.43439329528809,39.945999,62.020391295288086,38.506001,61.606394295288084,37.389999L60.09439229528809,37.677999ZM63.78439129528809,37.677999C64.32439229528809,38.776001,64.88239129528809,40.252001,65.09839429528809,41.17L66.73639529528809,40.719999C66.50239329528809,39.802,65.89039429528809,38.380001,65.33239529528808,37.299999L63.78439129528809,37.677999ZM67.42039329528808,37.534C68.33839229528809,38.757999,69.34639529528809,40.431999000000005,69.76038929528809,41.493999L71.34439629528809,40.809999000000005C70.91238929528808,39.712,69.85039329528809,38.110001,68.91438829528809,36.903999L67.42039329528808,37.534ZM57.14239329528809,37.012001C56.65639329528808,38.434,55.81039229528809,39.964000999999996,54.910394295288086,40.827999L56.51239229528809,41.511999C57.46639429528808,40.486000000000004,58.29439329528809,38.884001,58.780393295288086,37.426001L57.14239329528809,37.012001ZM55.39639429528808,27.507999L55.39639429528808,29.146L60.868391295288085,29.146C59.46439129528809,31.378,57.14239329528809,33.448,54.856394295288084,34.528C55.25239329528809,34.870001,55.81039229528809,35.535999000000004,56.08039329528808,35.968C58.40239529528809,34.672001,60.70639229528808,32.35,62.200391295288085,29.776001L62.200391295288085,36.220000999999996L64.00039529528809,36.220000999999996L64.00039529528809,29.740002C65.51239629528808,32.313998999999995,67.79839129528808,34.635999999999996,70.17439029528809,35.878C70.46239329528808,35.41,71.00239329528809,34.743999,71.39839029528808,34.384001C69.05839329528808,33.375999,66.70039129528809,31.324001,65.27839429528808,29.146L70.78639029528809,29.146L70.78639029528809,27.507999L64.00039529528809,27.507999L64.00039529528809,24.808001L62.200391295288085,24.808001L62.200391295288085,27.507999L55.39639429528808,27.507999ZM73.82839029528809,33.826L73.82839029528809,40.486000000000004L86.44639429528809,40.486000000000004L86.44639429528809,41.493999L88.33639329528809,41.493999L88.33639329528809,33.808001000000004L86.44639429528809,33.808001000000004L86.44639429528809,38.794001L82.00039529528809,38.794001L82.00039529528809,32.763999999999996L87.61639229528808,32.763999999999996L87.61639229528808,26.392L85.74439029528808,26.392L85.74439029528808,31.108002L82.00039529528809,31.108002L82.00039529528809,24.826L80.11039529528809,24.826L80.11039529528809,31.108002L76.49239129528809,31.108002L76.49239129528809,26.392L74.69239629528809,26.392L74.69239629528809,32.763999999999996L80.11039529528809,32.763999999999996L80.11039529528809,38.794001L75.71838929528809,38.794001L75.71838929528809,33.826L73.82839029528809,33.826ZM103.02439329528809,34.132000000000005L103.02439329528809,35.212L95.26639329528808,35.212L95.26639329528808,34.132000000000005L103.02439329528809,34.132000000000005ZM93.57439229528809,32.872L93.57439229528809,41.548L95.26639329528808,41.548L95.26639329528808,38.632000000000005L103.02439329528809,38.632000000000005L103.02439329528809,39.766001C103.02439329528809,40.035999000000004,102.93439329528809,40.108000000000004,102.62839329528809,40.125999C102.34039329528808,40.125999,101.20639329528808,40.125999,100.21639329528809,40.09C100.41439329528808,40.486000000000004,100.66639329528809,41.062,100.73839329528809,41.476C102.21439329528809,41.476,103.24039329528809,41.458,103.88839329528808,41.260000000000005C104.5363932952881,41.025999,104.75239329528809,40.629999,104.75239329528809,39.784L104.75239329528809,32.872L93.57439229528809,32.872ZM95.26639329528808,36.364000000000004L103.02439329528809,36.364000000000004L103.02439329528809,37.462L95.26639329528808,37.462L95.26639329528808,36.364000000000004ZM98.18239429528809,24.808001L98.18239429528809,25.887999999999998L92.27839429528808,25.887999999999998L92.27839429528808,27.184002L98.18239429528809,27.184002L98.18239429528809,28.228001L92.92638929528809,28.228001L92.92638929528809,29.470001L98.18239429528809,29.470001L98.18239429528809,30.586L91.14439229528809,30.586L91.14439229528809,31.882L107.05639329528809,31.882L107.05639329528809,30.586L99.91039129528808,30.586L99.91039129528808,29.470001L105.34639329528808,29.470001L105.34639329528808,28.228001L99.91039129528808,28.228001L99.91039129528808,27.184002L106.12039329528808,27.184002L106.12039329528808,25.887999999999998L99.91039129528808,25.887999999999998L99.91039129528808,24.808001L98.18239429528809,24.808001ZM108.89239329528809,35.841999L108.89239329528809,37.498001L117.17239329528809,37.498001L117.17239329528809,41.511999L118.91839329528808,41.511999L118.91839329528808,37.498001L125.32639329528809,37.498001L125.32639329528809,35.841999L118.91839329528808,35.841999L118.91839329528808,32.638000000000005L123.99439329528809,32.638000000000005L123.99439329528809,31.054001L118.91839329528808,31.054001L118.91839329528808,28.534L124.40839329528809,28.534L124.40839329528809,26.896L113.87839329528809,26.896C114.14839329528809,26.338001,114.38239329528808,25.762000999999998,114.59839329528809,25.186000999999997L112.87039329528808,24.736001C112.02439329528809,27.130001,110.58439329528808,29.452,108.91039329528809,30.91C109.32439329528809,31.144001,110.04439329528809,31.702,110.36839329528809,32.007999C111.30439329528808,31.09,112.20439329528809,29.884001,113.01439329528809,28.534L117.17239329528809,28.534L117.17239329528809,31.054001L111.82639329528809,31.054001L111.82639329528809,35.841999L108.89239329528809,35.841999ZM113.51839329528809,35.841999L113.51839329528809,32.638000000000005L117.17239329528809,32.638000000000005L117.17239329528809,35.841999L113.51839329528809,35.841999ZM134.20040329528808,35.302L134.20040329528808,36.634001L130.9063932952881,36.634001C131.5003832952881,36.076,132.02239329528808,35.464000999999996,132.4723832952881,34.816L137.90839329528808,34.816C139.0064032952881,36.4,140.73439329528807,37.84,142.48039329528808,38.614000000000004C142.7323932952881,38.200001,143.23639329528808,37.606001,143.5963932952881,37.299999C142.1923932952881,36.796,140.77039329528807,35.878,139.7443932952881,34.816L143.3803932952881,34.816L143.3803932952881,33.394001L139.9423932952881,33.394001L139.9423932952881,27.778L142.57039329528808,27.778L142.57039329528808,26.374001L139.9423932952881,26.374001L139.9423932952881,24.826L138.2143932952881,24.826L138.2143932952881,26.374001L132.04039329528808,26.374001L132.04039329528808,24.808001L130.34839329528808,24.808001L130.34839329528808,26.374001L127.70239329528809,26.374001L127.70239329528809,27.778L130.34839329528808,27.778L130.34839329528808,33.394001L126.82039329528808,33.394001L126.82039329528808,34.816L130.56439329528808,34.816C129.52039329528807,35.950001,128.0803932952881,36.958,126.64039329528809,37.498001C127.00039329528809,37.822001,127.50439329528808,38.416,127.73839329528809,38.794001C128.78240329528808,38.326,129.80838329528808,37.624001,130.7264032952881,36.796L130.7264032952881,38.019999999999996L134.20040329528808,38.019999999999996L134.20040329528808,39.604L128.31439329528808,39.604L128.31439329528808,41.025999L142.0123932952881,41.025999L142.0123932952881,39.604L135.9283932952881,39.604L135.9283932952881,38.019999999999996L139.49239329528808,38.019999999999996L139.49239329528808,36.634001L135.9283932952881,36.634001L135.9283932952881,35.302L134.20040329528808,35.302ZM132.04039329528808,27.778L138.2143932952881,27.778L138.2143932952881,28.804001L132.04039329528808,28.804001L132.04039329528808,27.778ZM132.04039329528808,30.028L138.2143932952881,30.028L138.2143932952881,31.09L132.04039329528808,31.09L132.04039329528808,30.028ZM132.04039329528808,32.313998999999995L138.2143932952881,32.313998999999995L138.2143932952881,33.394001L132.04039329528808,33.394001L132.04039329528808,32.313998999999995ZM147.52039329528807,36.184C148.1863932952881,37.174,148.8883832952881,38.559999000000005,149.14038329528807,39.406L150.61640329528808,38.757999C150.3463932952881,37.894001,149.5904032952881,36.58,148.9063932952881,35.625999L147.52039329528807,36.184ZM157.1143832952881,35.625999C156.70040329528808,36.616001,155.94438329528808,38.002001,155.3503932952881,38.865999L156.64640329528808,39.424C157.2763832952881,38.614000000000004,158.06839329528808,37.354,158.73439329528807,36.238001L157.1143832952881,35.625999ZM152.99239329528808,24.628C151.26439329528807,27.310001,147.9703932952881,29.290001,144.56839329528808,30.334C145.0003832952881,30.766001,145.46839329528808,31.414001,145.7203932952881,31.900002C146.6203932952881,31.576,147.5023832952881,31.198,148.34839329528808,30.766001L148.34839329528808,31.702L152.14640329528808,31.702L152.14640329528808,33.898001L146.15239329528808,33.898001L146.15239329528808,35.445999L152.14640329528808,35.445999L152.14640329528808,39.478001L145.3063832952881,39.478001L145.3063832952881,41.044001L160.9303932952881,41.044001L160.9303932952881,39.478001L153.9643932952881,39.478001L153.9643932952881,35.445999L160.0483932952881,35.445999L160.0483932952881,33.898001L153.9643932952881,33.898001L153.9643932952881,31.702L157.7983932952881,31.702L157.7983932952881,30.604C158.6983832952881,31.09,159.61640329528808,31.504002,160.49838329528808,31.827999C160.7683932952881,31.378,161.29039329528808,30.712002,161.6863932952881,30.334C158.96839329528808,29.524,155.87239329528808,27.813999,154.1083932952881,26.032001L154.57639329528809,25.348001L152.99239329528808,24.628ZM156.9524032952881,30.118L149.4823932952881,30.118C150.8503932952881,29.290001,152.07439329528808,28.318001,153.1363932952881,27.202C154.2163932952881,28.264,155.5483932952881,29.271999,156.9524032952881,30.118Z" fill="#ED5300" fill-opacity="1"/></g><g><g><path d="M298.03838727324217,33.844001C297.9843873732422,36.742001,298.1823873732422,45.238001,290.7483875732422,49.09C291.3063875732422,49.468,291.8643874732422,50.007999,292.15238737324216,50.458C296.2563872732422,48.172001,298.1823873732422,44.5,299.1003875732422,41.08C300.0543870732422,44.356001,302.0523875732422,48.351999,306.3183865732422,50.367999999999995C306.5703865732422,49.9,307.0743865732422,49.306,307.5783865732422,48.91C301.2243875732422,46.084,300.10838657324217,38.830002,299.8563871732422,36.562C299.9463872732422,35.482,299.9643869732422,34.546,299.9823875732422,33.844001L298.03838727324217,33.844001Z" fill="#ED5300" fill-opacity="1"/></g><g><path d="M262.9903875732422,46L268.2153875732422,46C268.87538757324216,30.215,270.5803875732422,20.809999,280.0403885732422,8.7099991L280.0403885732422,5.6850014L254.7953874732422,5.6850014L254.7953874732422,9.9749985L274.37538757324216,9.9749985C266.4553875732422,20.975,263.7053875732422,30.709999,262.9903875732422,46Z" fill="#ED5300" fill-opacity="1"/></g></g><g><g><g transform="matrix(-0.7071067690849304,0.7071067690849304,0.7071067690849304,0.7071067690849304,18.37218866568469,-7.610008456524838)"><rect x="35.70077896118164" y="59.5" width="13" height="13" rx="1.5" fill-opacity="0" stroke-opacity="1" stroke="#ED5300" fill="none" stroke-width="1"/></g><g transform="matrix(-0.7071067690849304,0.7071067690849304,0.7071067690849304,0.7071067690849304,-14.820000342596757,6.138646177519547)"><rect x="14.600390434265137" y="55.5" width="18.940963745117188" height="18.941198348999023" rx="1.5" fill-opacity="0" stroke-opacity="1" stroke="#ED5300" fill="none" stroke-width="1"/></g><g transform="matrix(-0.7071067690849304,0.7071067690849304,0.7071067690849304,0.7071067690849304,-19.597099049654787,8.117385371294802)"><rect x="14.701525688171387" y="62.5" width="9.042503356933594" height="8.758014678955078" rx="1.5" fill-opacity="0" stroke-opacity="1" stroke="#ED5300" fill="none" stroke-width="1"/></g></g><g><line x1="43.10039138793945" y1="69.5" x2="315.10039138793945" y2="69.5" fill-opacity="0" stroke-opacity="1" stroke="#ED5300" fill="none" stroke-width="1"/></g></g></g></g></g></svg>