<svg xmlns="http://www.w3.org/2000/svg" xmlns:xlink="http://www.w3.org/1999/xlink" fill="none" version="1.1" width="647" height="100" viewBox="0 0 647 100"><g><g><g><g><rect x="27" y="14" width="124" height="58" rx="10" fill="#0056AD" fill-opacity="1"/></g><g><path d="M43.204,56L57.092,56L57.092,52.528L52.612,52.528C51.632,52.528,50.2600002,52.639999,49.1960001,52.779999C52.976001,49.056,56.112,45.023998,56.112,41.271999C56.112,37.407997,53.507999999999996,34.888,49.5880003,34.888C46.7600002,34.888,44.9120002,35.98,42.98000002,38.052002L45.275999999999996,40.264C46.3120003,39.115997,47.5440001,38.136002,49.0560002,38.136002C51.044000600000004,38.136002,52.164001,39.424,52.164001,41.467999C52.164001,44.688,48.8600001,48.580002,43.204,53.619999L43.204,56ZM66.780001,56.391998C71.007999,56.391998,73.808001,52.695999,73.808001,45.528C73.808001,38.416,71.007999,34.888,66.780001,34.888C62.552,34.888,59.752001,38.388,59.752001,45.528C59.752001,52.695999,62.552,56.391998,66.780001,56.391998ZM66.780001,53.172001C64.988001,53.172001,63.644001,51.380001,63.644001,45.528C63.644001,39.760002,64.988001,38.052002,66.780001,38.052002C68.572001,38.052002,69.888,39.760002,69.888,45.528C69.888,51.380001,68.572001,53.172001,66.780001,53.172001ZM77.33600200000001,56L89.79600099999999,56L89.79600099999999,52.639999L85.903999,52.639999L85.903999,35.251999L82.852001,35.251999C81.536003,36.091999,80.13600199999999,36.624001,78.035999,36.987999L78.035999,39.563999L81.816002,39.563999L81.816002,52.639999L77.33600200000001,52.639999L77.33600200000001,56ZM96.768002,56L100.912003,56C101.27600100000001,47.908001,101.920002,43.652,106.736,37.771999L106.736,35.251999L92.960003,35.251999L92.960003,38.723999L102.28399999999999,38.723999C98.33600200000001,44.211998,97.132,48.804001,96.768002,56ZM109.200005,49.279999L109.200005,52.5L121.884003,52.5L121.884003,58.52L125.356003,58.52L125.356003,52.5L134.96000700000002,52.5L134.96000700000002,49.279999L125.356003,49.279999L125.356003,45.052002L132.776001,45.052002L132.776001,41.916L125.356003,41.916L125.356003,38.528L133.44799799999998,38.528L133.44799799999998,35.279999L117.544006,35.279999C117.880005,34.524002,118.188004,33.767998,118.468002,32.984001L115.024002,32.087997C113.82,35.755997,111.636002,39.34,109.116005,41.495998C109.956001,42,111.384003,43.091999,112.028,43.68C113.372002,42.335999,114.688004,40.543999,115.863998,38.528L121.884003,38.528L121.884003,41.916L113.652,41.916L113.652,49.279999L109.200005,49.279999ZM117.012001,49.279999L117.012001,45.052002L121.884003,45.052002L121.884003,49.279999L117.012001,49.279999Z" fill="#FFFFFF" fill-opacity="1"/></g></g><g><g><rect x="169" y="14" width="478" height="86" rx="10" fill="#CB8F00" fill-opacity="1"/></g><g><path d="M204.688,52.284L204.688,56.596001L204.688,56.736L198.92,56.736L198.92,59.844002L204.436001,59.844002C203.904,62.98,202.336,66.507999,197.9400005,69.391998C198.752001,69.952,199.844001,70.87599900000001,200.404,71.576C203.764001,69.391998,205.612001,66.70399900000001,206.648001,64.015999C207.992001,67.292,209.952002,69.868,212.864,71.408001C213.312,70.54000099999999,214.264,69.279999,214.992001,68.664001C211.436001,67.12400099999999,209.280001,63.875999,208.10399999999998,59.844002L214.404001,59.844002L214.404001,56.736L211.60399999999998,56.736L213.620001,55.307999C213.004002,54.271999,211.60399999999998,52.928001,210.372,52.003998L208.10399999999998,53.571999C209.168001,54.495998,210.400002,55.756001,211.044001,56.736L207.824001,56.736L207.824001,56.624001L207.824001,52.284L204.688,52.284ZM205.192001,45.199997L205.192001,47.16L198.92,47.16L198.92,45.199997L195.5880003,45.199997L195.5880003,47.16L189.5680001,47.16L189.5680001,50.155998L195.5880003,50.155998L195.5880003,52.031998L198.92,52.031998L198.92,50.155998L205.192001,50.155998L205.192001,51.751999L208.552,51.751999L208.552,50.155998L214.488001,50.155998L214.488001,47.16L208.552,47.16L208.552,45.199997L205.192001,45.199997ZM196.4560003,52.115997C196.0360003,52.591999,195.5040002,53.096001,194.9440002,53.599998C194.244,52.956001,193.4040003,52.312,192.3959999,51.723999L190.2120001,53.459999C191.1920002,54.048,191.9760001,54.664001,192.6480002,55.335999C191.444,56.147999,190.128,56.848,188.81200004,57.380001C189.4560001,57.939999,190.352,58.947998,190.8000002,59.619999C191.9760001,59.087997,193.1800003,58.416,194.3560004,57.66C194.6080003,58.164001,194.8040004,58.667999,194.9720001,59.200001C193.6560001,61.048,191.0240002,63.035999,188.81200004,63.959999C189.4840001,64.548,190.296,65.639999,190.7440002,66.396C192.2839999,65.5,194.02,64.12799799999999,195.4480004,62.700001L195.4480004,62.924C195.4480004,65.52799999999999,195.2240005,67.26400000000001,194.664,67.992001C194.4400001,68.271999,194.2160001,68.41199900000001,193.796,68.439999C193.2080002,68.523998,192.1719999,68.523998,190.8000002,68.439999C191.3600001,69.251999,191.6960001,70.37200200000001,191.7240002,71.32400100000001C193.0680003,71.380001,194.1600003,71.352001,195.2240005,71.12799799999999C195.8960004,70.987999,196.4840002,70.68,196.8760004,70.20399900000001C198.164001,68.83200099999999,198.556001,66.228001,198.556001,63.147999C198.556001,60.599998,198.276,58.136002,196.8480005,55.84C197.6880007,55.139999,198.5,54.383999,199.172,53.599998L196.4560003,52.115997ZM234.452,45.424L234.452,50.323997L225.632,50.323997L225.632,45.424L222.02,45.424L222.02,50.323997L217.035999,50.323997L217.035999,53.683998L222.02,53.683998L222.02,71.52000000000001L225.632,71.52000000000001L225.632,69.812L234.452,69.812L234.452,71.29600099999999L238.14800300000002,71.29600099999999L238.14800300000002,53.683998L242.936001,53.683998L242.936001,50.323997L238.14800300000002,50.323997L238.14800300000002,45.424L234.452,45.424ZM225.632,53.683998L234.452,53.683998L234.452,58.444L225.632,58.444L225.632,53.683998ZM225.632,66.47999999999999L225.632,61.720001L234.452,61.720001L234.452,66.47999999999999L225.632,66.47999999999999ZM265.755997,58.947998L265.755997,71.240002L268.919998,71.240002L268.919998,58.947998L265.755997,58.947998ZM248.004002,58.947998L248.004002,61.383999C248.004002,63.903999,247.667999,67.04000099999999,244.84,69.504002C245.652,69.952,246.855999,70.903999,247.416,71.52000000000001C250.636002,68.608002,251,64.66,251,61.495998L251,58.947998L248.004002,58.947998ZM252.82,60.012001C252.56800099999998,62.391998,252.14800300000002,64.96799899999999,251.419998,66.647999C252.120003,66.956001,253.35199699999998,67.543999,253.940002,67.936001C254.723999,66.08800099999999,255.311996,63.203999,255.620003,60.487999L252.82,60.012001ZM260.436005,60.403999C261.080002,62.672001,261.69599900000003,65.66799900000001,261.891998,67.43199899999999L264.80400099999997,66.844002C264.580002,65.08000200000001,263.880005,62.167999,263.18,59.928001L260.436005,60.403999ZM264.776001,53.823997L264.776001,55.195999L259.764,55.195999L259.764,53.823997L264.776001,53.823997ZM256.375999,45.199997L256.375999,47.299999L248.200001,47.299999L248.200001,50.043999L256.375999,50.043999L256.375999,51.360001L245.512001,51.360001L245.512001,53.823997L256.375999,53.823997L256.375999,55.195999L248.200001,55.195999L248.200001,57.939999L256.375999,57.939999L256.375999,71.32400100000001L259.764,71.32400100000001L259.764,57.939999L268.444,57.939999L268.444,53.823997L270.768005,53.823997L270.768005,51.360001L268.444,51.360001L268.444,47.299999L259.764,47.299999L259.764,45.199997L256.375999,45.199997ZM264.776001,51.360001L259.764,51.360001L259.764,50.043999L264.776001,50.043999L264.776001,51.360001ZM278.720001,46.655998C277.711998,49.063999,275.919998,51.472,273.987999,52.956001C274.800003,53.403999,276.199997,54.327999,276.872002,54.916C278.748001,53.152,280.79200000000003,50.351997,282.024002,47.552002L278.720001,46.655998ZM284.18,45.227997L284.18,54.467999C280.79200000000003,55.784,276.73200199999997,56.624001,272.559998,57.127998C273.204002,57.827999,274.211998,59.284,274.632004,60.040001C275.69599900000003,59.872002,276.73200199999997,59.675999,277.795998,59.452L277.795998,71.52000000000001L281.043999,71.52000000000001L281.043999,70.456001L292.15999999999997,70.456001L292.15999999999997,71.380001L295.548,71.380001L295.548,56.931999L286.11199999999997,56.931999C289.192,55.644001,291.908,53.964001,293.896,51.779999C294.764,52.760002,295.52,53.739998,295.968,54.551998L298.88,52.703999C297.648,50.799999,295.016,48.195999,292.832,46.403999L290.144,48.028C291.32,49.063999,292.58,50.295998,293.672,51.528L290.788,50.239998C289.92,51.248001,288.8,52.115997,287.48400100000003,52.900002L287.48400100000003,45.227997L284.18,45.227997ZM281.043999,62.98L292.15999999999997,62.98L292.15999999999997,64.352001L281.043999,64.352001L281.043999,62.98ZM281.043999,60.711998L281.043999,59.452L292.15999999999997,59.452L292.15999999999997,60.711998L281.043999,60.711998ZM281.043999,66.619999L292.15999999999997,66.619999L292.15999999999997,67.964001L281.043999,67.964001L281.043999,66.619999ZM317.248,45.199997C316.744,48.643997,315.848,52.003998,314.532,54.664001L314.532,52.48L312.964,52.48C314.056,50.716,315.036,48.812,315.848,46.767998L312.74,45.900002C312.236,47.243999,311.648,48.503998,310.976,49.708L310.976,47.748001L308.23199999999997,47.748001L308.23199999999997,45.199997L305.124,45.199997L305.124,47.748001L301.932,47.748001L301.932,50.576L305.124,50.576L305.124,52.48L300.84000000000003,52.48L300.84000000000003,55.363998L306.692,55.363998C306.188,55.84,305.68399999999997,56.316002,305.152,56.764L303.304,56.764L303.304,58.164001C302.408,58.779999,301.456,59.34,300.476,59.816002C301.148,60.431999,302.296,61.720001,302.744,62.391998C304.256,61.523998,305.68399999999997,60.515999,307.028,59.368L308.79200000000003,59.368C308.06399999999996,60.096001,307.224,60.795998,306.468,61.327999L306.468,62.952L300.756,63.372002L301.12,66.34L306.468,65.891998L306.468,68.243999C306.468,68.523998,306.356,68.608002,305.992,68.63600199999999C305.628,68.63600199999999,304.424,68.63600199999999,303.332,68.608002C303.724,69.41999799999999,304.144,70.596001,304.284,71.436001C306.048,71.436001,307.36400000000003,71.436001,308.372,70.95999900000001C309.352,70.54000099999999,309.604,69.756001,309.604,68.299999L309.604,65.612L314.644,65.164001L314.644,62.279999L309.604,62.700001L309.604,61.916C311.004,60.823997,312.376,59.507999,313.496,58.276001C314.196,58.863998,314.98,59.591999,315.344,60.012001C315.79200000000003,59.424,316.24001,58.751999,316.632,58.023998C317.164,60.124001,317.78,62.028,318.56399999999996,63.764C317.108,65.835999,315.148,67.43199899999999,312.488,68.58000200000001C313.132,69.279999,314.11199999999997,70.848,314.448,71.632C316.884,70.400002,318.84398999999996,68.888,320.384,67.04000099999999C321.644,68.860001,323.18401,70.37200200000001,325.116,71.52000000000001C325.62,70.62400099999999,326.68401,69.279999,327.44,68.608002C325.368,67.543999,323.744,65.91999799999999,322.45599000000004,63.931999C323.96799999999996,61.048,324.91999999999996,57.604,325.50800000000004,53.431999L327.15999999999997,53.431999L327.15999999999997,50.323997L319.65601000000004,50.323997C320.048,48.84,320.384,47.299999,320.664,45.731998L317.248,45.199997ZM309.716,56.764L310.892,55.363998L314.168,55.363998C313.776,56.091999,313.328,56.792,312.852,57.380001L311.872,56.596001L311.256,56.764L309.716,56.764ZM308.23199999999997,50.576L310.472,50.576C310.08,51.220001,309.632,51.863998,309.18399999999997,52.48L308.23199999999997,52.48L308.23199999999997,50.576ZM322.036,53.431999C321.7,55.896,321.224,58.080002,320.524,59.984001C319.76801,57.967999,319.23599,55.756001,318.81599,53.431999L322.036,53.431999ZM347.68401,59.703999L347.68401,61.048L336.39999,61.048L336.39999,59.703999L347.68401,59.703999ZM333.03999,56.987999L333.03999,71.52000000000001L336.39999,71.52000000000001L336.39999,67.012001L347.68401,67.012001L347.68401,68.243999C347.68401,68.720001,347.48801000000003,68.888,346.89999,68.888C346.368,68.916,344.01601,68.916,342.28,68.804001C342.728,69.560001,343.20399,70.708,343.37199,71.52000000000001C346.08799999999997,71.52000000000001,348.02,71.52000000000001,349.308,71.12799799999999C350.59601,70.708,351.10001,69.952,351.10001,68.271999L351.10001,56.987999L333.03999,56.987999ZM336.39999,63.344002L347.68401,63.344002L347.68401,64.688L336.39999,64.688L336.39999,63.344002ZM339.64799,45.760002L340.57201,47.608002L329.56799,47.608002L329.56799,50.548L335.448,50.548C334.496,51.304001,333.65601000000004,51.891998,333.23599,52.143997C332.50800000000004,52.619999,331.91999999999996,52.956001,331.304,53.068001C331.668,53.992001,332.228,55.672001,332.39599999999996,56.400002C333.65601000000004,55.952,335.36400000000003,55.896,348.916,55.112C349.58799999999997,55.728001,350.14799,56.287998,350.56799,56.764L353.424,54.860001C352.22,53.711998,350.14799,52.003998,348.384,50.548L354.48801000000003,50.548L354.48801000000003,47.608002L344.548,47.608002C344.10001,46.711998,343.51198999999997,45.647999,343.036,44.835999L339.64799,45.760002ZM344.548,51.220001L346.06,52.535999L337.43600000000004,52.928001C338.472,52.199997,339.536,51.388,340.51601,50.548L345.64,50.548L344.548,51.220001ZM362.776,62.952C361.46001,64.71600000000001,359.192,66.647999,357.06399999999996,67.79600099999999C357.90400999999997,68.299999,359.332,69.391998,360.004,70.035999C362.048,68.63600199999999,364.53999,66.312,366.192,64.155998L362.776,62.952ZM373.332,64.576C375.51601,66.200001,378.25999,68.523998,379.49199999999996,70.035999L382.48801000000003,68.048C381.06,66.47999999999999,378.23199,64.267998,376.076,62.812L373.332,64.576ZM373.976,56.652C374.48,57.155998,375.04001,57.743999,375.57201,58.332001L367.144,58.891998C370.756,57.043999,374.368,54.832001,377.7,52.227997L375.26401,50.043999C374.03200000000004,51.108002,372.65999999999997,52.143997,371.28799000000004,53.096001L365.716,53.375999C367.368,52.199997,368.99199999999996,50.855999,370.41999999999996,49.456001C374.06,49.091999,377.504,48.587997,380.416,47.888L378.00800000000004,45.115997C373.276,46.264,365.464,46.963997,358.576,47.216C358.91200000000003,47.972,359.304,49.316002,359.38800000000003,50.155998C361.43201,50.099998,363.58799999999997,49.987999,365.744,49.848C364.28799000000004,51.192001,362.832,52.255997,362.244,52.619999C361.40400999999997,53.208,360.75999,53.599998,360.116,53.683998C360.452,54.523998,360.89999,55.952,361.03999,56.568001C361.68401,56.316002,362.608,56.175999,367.004,55.868C365.18401,56.959999,363.644,57.771999,362.804,58.136002C361.03999,59.031998,359.948,59.507999,358.856,59.675999C359.192,60.515999,359.668,62.056,359.808,62.644001C360.73199,62.279999,361.99199999999996,62.084,368.43201,61.551998L368.43201,67.768002C368.43201,68.076,368.29201,68.16,367.81599,68.188C367.34000000000003,68.188,365.632,68.188,364.17599,68.132C364.67999,69,365.24001,70.428001,365.408,71.408001C367.48,71.408001,369.048,71.380001,370.28,70.87599900000001C371.51198999999997,70.344002,371.84801,69.476002,371.84801,67.852001L371.84801,61.299999L377.644,60.823997C378.34398999999996,61.748001,378.96001,62.616001,379.38,63.344002L382.01198999999997,61.720001C380.892,59.928001,378.59601,57.295998,376.496,55.335999L373.976,56.652ZM403.06799,59.34L403.06799,67.26400000000001C403.06799,70.091999,403.65601000000004,71.043999,406.17599,71.043999C406.62399,71.043999,407.632,71.043999,408.108,71.043999C410.26401,71.043999,410.99199999999996,69.78399999999999,411.244,65.360001C410.40400999999997,65.13600199999999,409.06,64.604,408.416,64.015999C408.332,67.599998,408.22,68.21600000000001,407.772,68.21600000000001C407.576,68.21600000000001,406.98801000000003,68.21600000000001,406.82001,68.21600000000001C406.42801,68.21600000000001,406.37199,68.132,406.37199,67.23599999999999L406.37199,59.34L403.06799,59.34ZM397.776,59.368C397.608,64.12799799999999,397.244,67.096001,392.96001,68.888C393.688,69.504002,394.61199999999997,70.82,395.004,71.66C400.12801,69.307999,400.856,65.27600100000001,401.08000000000004,59.368L397.776,59.368ZM384.952,67.096001L385.73599,70.400002C388.452,69.36399800000001,391.89599999999996,68.02000000000001,395.06,66.70399900000001L394.44399999999996,63.848C390.94399999999996,65.108002,387.332,66.396,384.952,67.096001ZM400.24001,45.872002C400.632,46.795998,401.08000000000004,47.972,401.36,48.868L395.116,48.868L395.116,51.863998L399.51198999999997,51.863998C398.36400000000003,53.403999,396.99199999999996,55.139999,396.48801000000003,55.644001C395.84398999999996,56.203999,395.03200000000004,56.456001,394.416,56.596001C394.724,57.295998,395.284,59.003998,395.424,59.816002C396.34801,59.396,397.748,59.200001,407.29601,58.192001C407.688,58.947998,408.024,59.619999,408.248,60.208L411.076,58.723999C410.32001,56.959999,408.528,54.327999,407.04400999999996,52.368L404.46799999999996,53.655998C404.916,54.243999,405.36400000000003,54.916,405.784,55.615997L400.26801,56.091999C401.276,54.804001,402.452,53.264,403.46001,51.863998L410.76801,51.863998L410.76801,48.868L403.04001,48.868L404.832,48.363998C404.552,47.524002,403.93600000000004,46.124001,403.43201,45.087997L400.24001,45.872002ZM385.70799,57.436001C386.12801,57.211998,386.772,57.043999,388.98399,56.764C388.144,57.995998,387.416,58.919998,387.024,59.34C386.12801,60.375999,385.53999,60.992001,384.784,61.16C385.17599,62,385.70799,63.596001,385.87601,64.267998C386.60400000000004,63.792,387.78,63.400002,394.5,61.888C394.38800000000003,61.16,394.38800000000003,59.844002,394.472,58.919998L390.58000000000004,59.703999C392.34398999999996,57.548,394.052,55.056,395.39599999999996,52.619999L392.45599000000004,50.799999C391.98,51.779999,391.448,52.788002,390.916,53.711998L388.87199,53.879997C390.44,51.695999,391.924,49.007999,392.96001,46.515999L389.54400999999996,44.948C388.592,48.139999,386.8,51.556,386.21200999999996,52.424C385.59599000000003,53.32,385.12,53.908001,384.504,54.076C384.924,55.028,385.51198999999997,56.736,385.70799,57.436001ZM433.58799999999997,46.403999L432.804,44.92C430.75999,45.872002,428.94,47.832001,428.94,50.604C428.94,52.284,430.004,53.599998,431.40400999999997,53.599998C432.776,53.599998,433.58799999999997,52.647999,433.58799999999997,51.528C433.58799999999997,50.379997,432.804,49.484001,431.62801,49.484001C431.37601,49.484001,431.15201,49.568001,431.04001,49.624001C431.04001,48.755997,431.908,47.188,433.58799999999997,46.403999ZM439.3,46.403999L438.48801000000003,44.92C436.44399999999996,45.872002,434.62399,47.832001,434.62399,50.604C434.62399,52.284,435.688,53.599998,437.08799999999997,53.599998C438.48801000000003,53.599998,439.272,52.647999,439.272,51.528C439.272,50.379997,438.48801000000003,49.484001,437.34000000000003,49.484001C437.06,49.484001,436.836,49.568001,436.724,49.624001C436.724,48.755997,437.592,47.188,439.3,46.403999ZM452.32001,45.199997L452.32001,49.007999L448.70801,49.007999C449.01599,48.084,449.29599,47.16,449.51999,46.292L446.104,45.619999C445.51599,48.475998,444.172,52.284,442.35201,54.580002C443.164,54.888,444.53601,55.559998,445.32001,56.091999C446.13199,55.028,446.85999,53.683998,447.504,52.227997L452.32001,52.227997L452.32001,56.792L441.53999,56.792L441.53999,60.040001L448.17599,60.040001C447.728,63.736,446.69199,66.900002,441.092,68.692001C441.84801,69.391998,442.8,70.76400000000001,443.192,71.66C449.66,69.195999,451.116,65.023998,451.70401,60.040001L455.79199,60.040001L455.79199,66.87200200000001C455.79199,70.035999,456.548,71.071999,459.71201,71.071999C460.328,71.071999,462.31601,71.071999,462.95999,71.071999C465.564,71.071999,466.45999,69.868,466.79599,65.416C465.89999,65.164001,464.41602,64.632,463.74399,64.071999C463.63199,67.403999,463.492,67.908001,462.65201,67.908001C462.14801,67.908001,460.57999,67.908001,460.18799,67.908001C459.32001,67.908001,459.17999,67.768002,459.17999,66.844002L459.17999,60.040001L466.54401,60.040001L466.54401,56.792L455.73599,56.792L455.73599,52.227997L464.332,52.227997L464.332,49.007999L455.73599,49.007999L455.73599,45.199997L452.32001,45.199997ZM469.67999,47.608002C471.19199,49.035999,473.12399,51.080002,473.96399,52.368L476.54001,50.239998C475.616,48.98,473.60001,47.047997,472.08801,45.731998L469.67999,47.608002ZM487.54401,45.984001L487.54401,50.015999L484.35199,50.015999L484.35199,45.956001L481.048,45.956001L481.048,50.015999L477.51999,50.015999L477.51999,53.264L481.048,53.264L481.048,55.056C481.048,55.728001,481.048,56.428001,480.992,57.155998L477.29599,57.155998L477.29599,60.375999L480.45999,60.375999C479.98401,61.972,479.14401,63.512001,477.66,64.743999C478.35999,65.192001,479.70401,66.452,480.17999,67.096001C482.25201,65.360001,483.34399,62.896,483.87601,60.375999L487.54401,60.375999L487.54401,66.67599899999999L490.87601,66.67599899999999L490.87601,60.375999L494.65601,60.375999L494.65601,57.155998L490.87601,57.155998L490.87601,53.264L494.09601,53.264L494.09601,50.015999L490.87601,50.015999L490.87601,45.984001L487.54401,45.984001ZM484.35199,53.264L487.54401,53.264L487.54401,57.155998L484.29599,57.155998C484.32401,56.428001,484.35199,55.756001,484.35199,55.084L484.35199,53.264ZM475.75601,55.391998L469.20401,55.391998L469.20401,58.5L472.452,58.5L472.452,65.360001C471.276,65.891998,469.93201,66.928001,468.64401,68.271999L470.884,71.464001C471.892,69.812,473.12399,67.964001,473.96399,67.964001C474.608,67.964001,475.56,68.83200099999999,476.84799,69.53200100000001C478.892,70.652,481.29999,70.95999900000001,484.828,70.95999900000001C487.71201,70.95999900000001,492.35999,70.792,494.34799,70.68C494.37601,69.728001,494.936,68.076,495.29999,67.18C492.5,67.599998,487.936,67.82400100000001,484.96799,67.82400100000001C481.832,67.82400100000001,479.25601,67.683998,477.35199,66.591999C476.70801,66.256001,476.17599,65.91999799999999,475.75601,65.639999L475.75601,55.391998ZM508.26401,61.188L508.26401,62.644001L497.34399,62.644001L497.34399,65.304001L505.38,65.304001C502.80399,66.731998,499.47198,67.908001,496.42001,68.551998C497.12,69.251999,498.07199,70.512001,498.57599,71.32400100000001C501.85199,70.400002,505.46399,68.692001,508.26401,66.67599899999999L508.26401,71.464001L511.59601,71.464001L511.59601,66.563999C514.36801,68.58000200000001,517.952,70.259998,521.2280000000001,71.183998C521.67599,70.400002,522.62799,69.139999,523.328,68.495998C520.3879999999999,67.852001,517.168,66.67599899999999,514.67599,65.304001L522.6560099999999,65.304001L522.6560099999999,62.644001L511.59601,62.644001L511.59601,61.188L508.26401,61.188ZM509.46799,53.851997L509.46799,54.972L503.784,54.972L503.784,53.851997L509.46799,53.851997ZM509.01999,45.900002C509.29999,46.515999,509.608,47.243999,509.85999,47.916L505.35199,47.916C505.828,47.216,506.24799,46.515999,506.668,45.816002L503.25201,45.143997C501.96399,47.580002,499.69601,50.491997,496.58801,52.703999C497.34399,53.152,498.40799,54.216,498.94,54.916C499.47198,54.495998,499.97601,54.076,500.452,53.627998L500.452,61.664001L503.784,61.664001L503.784,60.936001L521.92801,60.936001L521.92801,58.360001L512.68799,58.360001L512.68799,57.183998L520.02399,57.183998L520.02399,54.972L512.68799,54.972L512.68799,53.851997L519.996,53.851997L519.996,51.667999L512.68799,51.667999L512.68799,50.491997L521.2560100000001,50.491997L521.2560100000001,47.916L513.332,47.916C513.02399,47.019997,512.51999,45.928001,512.01599,45.059998L509.01999,45.900002ZM509.46799,51.667999L503.784,51.667999L503.784,50.491997L509.46799,50.491997L509.46799,51.667999ZM509.46799,57.183998L509.46799,58.360001L503.784,58.360001L503.784,57.183998L509.46799,57.183998ZM530.216,45.311996C528.92801,49.288002,526.716,53.292,524.36401,55.84C524.98001,56.68,525.90399,58.528,526.21201,59.34C526.79999,58.695999,527.3599899999999,57.967999,527.92001,57.155998L527.92001,71.464001L531.1120000000001,71.464001L531.1120000000001,51.695999C531.98001,49.931999,532.76401,48.084,533.38,46.292L530.216,45.311996ZM532.73599,50.211998L532.73599,53.403999L538.28,53.403999C536.71201,57.855999,534.108,62.279999,531.2520099999999,64.827999C532.008,65.416,533.10001,66.591999,533.6600000000001,67.37599900000001C534.52802,66.47999999999999,535.36801,65.416,536.15201,64.211998L536.15201,66.787998L539.84799,66.787998L539.84799,71.29600099999999L543.12399,71.29600099999999L543.12399,66.787998L546.90399,66.787998L546.90399,64.32400100000001C547.604,65.444,548.3599899999999,66.452,549.14401,67.292C549.73199,66.424,550.88,65.248001,551.664,64.688C548.92001,62.112,546.3439900000001,57.743999,544.80402,53.403999L550.88,53.403999L550.88,50.211998L543.12399,50.211998L543.12399,45.34L539.84799,45.34L539.84799,50.211998L532.73599,50.211998ZM539.84799,63.792L536.43201,63.792C537.72,61.720001,538.896,59.284,539.84799,56.708L539.84799,63.792ZM543.12399,63.792L543.12399,56.428001C544.07599,59.087997,545.2520099999999,61.636002,546.56799,63.792L543.12399,63.792ZM558.4119900000001,52.34L559.19601,53.795998C561.23999,52.872002,563.06,50.911999,563.06,48.139999C563.06,46.431999,561.996,45.115997,560.59601,45.115997C559.2239999999999,45.115997,558.4119900000001,46.096001,558.4119900000001,47.188C558.4119900000001,48.335999,559.19601,49.231998,560.37201,49.231998C560.62399,49.231998,560.84799,49.175999,560.9599900000001,49.091999C560.9599900000001,49.987999,560.0920100000001,51.528,558.4119900000001,52.34ZM552.70001,52.34L553.51199,53.795998C555.556,52.872002,557.37601,50.911999,557.37601,48.139999C557.37601,46.431999,556.31201,45.115997,554.9119900000001,45.115997C553.51199,45.115997,552.7280000000001,46.096001,552.7280000000001,47.188C552.7280000000001,48.335999,553.51199,49.231998,554.6600000000001,49.231998C554.94,49.231998,555.164,49.175999,555.2760000000001,49.091999C555.2760000000001,49.987999,554.4079899999999,51.528,552.70001,52.34ZM593.46799,56.484001C592.96399,59.816002,591.9559899999999,63.231998,590.5,65.360001C591.2560100000001,65.72399899999999,592.60001,66.535999,593.18799,67.04000099999999C594.70001,64.632,595.90399,60.823997,596.57599,57.043999L593.46799,56.484001ZM601.672,57.043999C602.76401,60.124001,603.828,64.183998,604.13599,66.844002L607.216,65.86399800000001C606.82401,63.175999,605.76001,59.256001,604.556,56.147999L601.672,57.043999ZM594.53201,45.283997C593.8879999999999,48.475998,592.73999,51.695999,591.20001,53.908001L591.20001,53.124001L588.03601,53.124001L588.03601,49.175999C589.38,48.868,590.668,48.475998,591.81601,48.056L589.96799,45.368C587.7280000000001,46.32,584.284,47.16,581.2040099999999,47.664001C581.5400099999999,48.391998,581.9599900000001,49.512001,582.07199,50.211998C582.996,50.099998,584.004,49.959999,584.98401,49.792L584.98401,53.124001L581.2040099999999,53.124001L581.2040099999999,56.259998L584.5920100000001,56.259998C583.6120000000001,59.003998,582.07199,62,580.53201,63.82C581.03601,64.576,581.73599,65.891998,582.0440100000001,66.787998C583.07999,65.388,584.116,63.428001,584.98401,61.299999L584.98401,71.52000000000001L588.03601,71.52000000000001L588.03601,60.208C588.73599,61.299999,589.4359999999999,62.475998,589.79999,63.259998L591.62,60.571999C591.14401,59.928001,588.7919899999999,57.548,588.03601,56.875999L588.03601,56.259998L591.20001,56.259998L591.20001,54.888C591.98401,55.335999,592.96399,55.98,593.46799,56.372002C594.36401,55.139999,595.2040099999999,53.543999,595.93201,51.751999L597.6120000000001,51.751999L597.6120000000001,67.82400100000001C597.6120000000001,68.21600000000001,597.47198,68.327999,597.108,68.327999C596.716,68.327999,595.48401,68.327999,594.36401,68.271999C594.81201,69.112,595.3439900000001,70.512001,595.48401,71.408001C597.30402,71.408001,598.67599,71.29600099999999,599.62799,70.82C600.63599,70.287998,600.91602,69.448002,600.91602,67.852001L600.91602,51.751999L603.21201,51.751999C602.84799,52.647999,602.4559899999999,53.571999,602.0640000000001,54.383999L604.97601,55.112C605.73199,53.264,606.57199,51.080002,607.2439899999999,49.063999L605.14401,48.531998L604.668,48.643997L597.02399,48.643997C597.2760000000001,47.748001,597.52802,46.851997,597.7239999999999,45.928001L594.53201,45.283997ZM616.17599,49.119999L627.60001,49.119999L627.60001,51.723999L616.17599,51.723999L616.17599,49.119999ZM612.81601,46.18L612.81601,54.636002L631.18399,54.636002L631.18399,46.18L612.81601,46.18ZM609.48401,56.400002L609.48401,59.424L614.7479900000001,59.424C614.18799,61.271999,613.51599,63.203999,612.92801,64.576L627.2919899999999,64.576C626.92801,66.591999,626.508,67.712002,625.97601,68.104C625.6120000000001,68.327999,625.2479900000001,68.355999,624.63199,68.355999C623.76401,68.355999,621.69199,68.327999,619.81601,68.16C620.43201,69.056,620.9359999999999,70.400002,620.992,71.352001C622.92401,71.464001,624.7719999999999,71.436001,625.836,71.380001C627.15201,71.29600099999999,628.07599,71.099998,628.91602,70.316002C629.92401,69.36399800000001,630.59601,67.26400000000001,631.1560099999999,62.924C631.23999,62.475998,631.32401,61.523998,631.32401,61.523998L617.85599,61.523998L618.52802,59.424L634.40399,59.424L634.40399,56.400002L609.48401,56.400002Z" fill="#FFFFFF" fill-opacity="1"/></g></g></g><g><ellipse cx="9.5" cy="43.5" rx="9.5" ry="9.5" fill="#FFFFFF" fill-opacity="1"/></g></g></svg>