<svg xmlns="http://www.w3.org/2000/svg" xmlns:xlink="http://www.w3.org/1999/xlink" fill="none" version="1.1" width="647" height="128" viewBox="0 0 647 128"><g><g><g><g><rect x="27" y="0" width="124" height="128" rx="10" fill="#0056AD" fill-opacity="1"/></g><g><path d="M43.204,38L57.092,38L57.092,34.528L52.612,34.528C51.632,34.528,50.2600002,34.639999,49.1960001,34.780001C52.976001,31.056,56.112,27.023998,56.112,23.271999C56.112,19.407999,53.507999999999996,16.8879986,49.5880003,16.8879986C46.7600002,16.8879986,44.9120002,17.979999499999998,42.98000002,20.052L45.275999999999996,22.264C46.3120003,21.115999000000002,47.5440001,20.136,49.0560002,20.136C51.044000600000004,20.136,52.164001,21.424,52.164001,23.467999C52.164001,26.688,48.8600001,30.58,43.204,35.619999L43.204,38ZM66.780001,38.391999999999996C71.007999,38.391999999999996,73.808001,34.695999,73.808001,27.528C73.808001,20.416,71.007999,16.8879986,66.780001,16.8879986C62.552,16.8879986,59.752001,20.387999,59.752001,27.528C59.752001,34.695999,62.552,38.391999999999996,66.780001,38.391999999999996ZM66.780001,35.172001C64.988001,35.172001,63.644001,33.379999,63.644001,27.528C63.644001,21.759999999999998,64.988001,20.052,66.780001,20.052C68.572001,20.052,69.888,21.759999999999998,69.888,27.528C69.888,33.379999,68.572001,35.172001,66.780001,35.172001ZM76.243999,38L90.132,38L90.132,34.528L85.652,34.528C84.672001,34.528,83.300003,34.639999,82.23599999999999,34.780001C86.016003,31.056,89.152,27.023998,89.152,23.271999C89.152,19.407999,86.548,16.8879986,82.62800200000001,16.8879986C79.800003,16.8879986,77.952,17.979999499999998,76.02000000000001,20.052L78.316002,22.264C79.352001,21.115999000000002,80.584,20.136,82.096001,20.136C84.084,20.136,85.204002,21.424,85.204002,23.467999C85.204002,26.688,81.900002,30.58,76.243999,35.619999L76.243999,38ZM99.82,38.391999999999996C104.048,38.391999999999996,106.848,34.695999,106.848,27.528C106.848,20.416,104.048,16.8879986,99.82,16.8879986C95.592003,16.8879986,92.792,20.387999,92.792,27.528C92.792,34.695999,95.592003,38.391999999999996,99.82,38.391999999999996ZM99.82,35.172001C98.02799999999999,35.172001,96.68400199999999,33.379999,96.68400199999999,27.528C96.68400199999999,21.759999999999998,98.02799999999999,20.052,99.82,20.052C101.612,20.052,102.928001,21.759999999999998,102.928001,27.528C102.928001,33.379999,101.612,35.172001,99.82,35.172001ZM115.220001,39.931999000000005L118.216003,37.356001C116.816002,35.619999,114.099998,32.848,112.112,31.223999L109.200005,33.743999C111.132004,35.424,113.512001,37.832001000000005,115.220001,39.931999000000005ZM43.204,73L57.092,73L57.092,69.52799999999999L52.612,69.52799999999999C51.632,69.52799999999999,50.2600002,69.639999,49.1960001,69.779999C52.976001,66.056,56.112,62.023998,56.112,58.271999C56.112,54.407997,53.507999999999996,51.888,49.5880003,51.888C46.7600002,51.888,44.9120002,52.98,42.98000002,55.052002L45.275999999999996,57.264C46.3120003,56.115997,47.5440001,55.136002,49.0560002,55.136002C51.044000600000004,55.136002,52.164001,56.424,52.164001,58.467999C52.164001,61.688,48.8600001,65.58000200000001,43.204,70.619999L43.204,73ZM66.780001,73.391998C71.007999,73.391998,73.808001,69.695999,73.808001,62.528C73.808001,55.416,71.007999,51.888,66.780001,51.888C62.552,51.888,59.752001,55.388,59.752001,62.528C59.752001,69.695999,62.552,73.391998,66.780001,73.391998ZM66.780001,70.172001C64.988001,70.172001,63.644001,68.380001,63.644001,62.528C63.644001,56.760002,64.988001,55.052002,66.780001,55.052002C68.572001,55.052002,69.888,56.760002,69.888,62.528C69.888,68.380001,68.572001,70.172001,66.780001,70.172001ZM76.243999,73L90.132,73L90.132,69.52799999999999L85.652,69.52799999999999C84.672001,69.52799999999999,83.300003,69.639999,82.23599999999999,69.779999C86.016003,66.056,89.152,62.023998,89.152,58.271999C89.152,54.407997,86.548,51.888,82.62800200000001,51.888C79.800003,51.888,77.952,52.98,76.02000000000001,55.052002L78.316002,57.264C79.352001,56.115997,80.584,55.136002,82.096001,55.136002C84.084,55.136002,85.204002,56.424,85.204002,58.467999C85.204002,61.688,81.900002,65.58000200000001,76.243999,70.619999L76.243999,73ZM92.76400000000001,73L106.652,73L106.652,69.52799999999999L102.172001,69.52799999999999C101.192001,69.52799999999999,99.82,69.639999,98.756001,69.779999C102.536003,66.056,105.672001,62.023998,105.672001,58.271999C105.672001,54.407997,103.06800100000001,51.888,99.148003,51.888C96.32,51.888,94.47200000000001,52.98,92.54000099999999,55.052002L94.83600200000001,57.264C95.87200200000001,56.115997,97.104,55.136002,98.616001,55.136002C100.604004,55.136002,101.72400300000001,56.424,101.72400300000001,58.467999C101.72400300000001,61.688,98.420002,65.58000200000001,92.76400000000001,70.619999L92.76400000000001,73ZM115.220001,74.931999L118.216003,72.356003C116.816002,70.619999,114.099998,67.848,112.112,66.22399899999999L109.200005,68.743999C111.132004,70.424,113.512001,72.832001,115.220001,74.931999ZM43.204,108L57.092,108L57.092,104.528L52.612,104.528C51.632,104.528,50.2600002,104.639999,49.1960001,104.779999C52.976001,101.056,56.112,97.024002,56.112,93.272003C56.112,89.407997,53.507999999999996,86.888,49.5880003,86.888C46.7600002,86.888,44.9120002,87.979996,42.98000002,90.052002L45.275999999999996,92.264C46.3120003,91.115997,47.5440001,90.136002,49.0560002,90.136002C51.044000600000004,90.136002,52.164001,91.423996,52.164001,93.468002C52.164001,96.688004,48.8600001,100.580002,43.204,105.620003L43.204,108ZM66.780001,108.392C71.007999,108.392,73.808001,104.695999,73.808001,97.528C73.808001,90.416,71.007999,86.888,66.780001,86.888C62.552,86.888,59.752001,90.388,59.752001,97.528C59.752001,104.695999,62.552,108.392,66.780001,108.392ZM66.780001,105.171997C64.988001,105.171997,63.644001,103.379997,63.644001,97.528C63.644001,91.760002,64.988001,90.052002,66.780001,90.052002C68.572001,90.052002,69.888,91.760002,69.888,97.528C69.888,103.379997,68.572001,105.171997,66.780001,105.171997ZM76.243999,108L90.132,108L90.132,104.528L85.652,104.528C84.672001,104.528,83.300003,104.639999,82.23599999999999,104.779999C86.016003,101.056,89.152,97.024002,89.152,93.272003C89.152,89.407997,86.548,86.888,82.62800200000001,86.888C79.800003,86.888,77.952,87.979996,76.02000000000001,90.052002L78.316002,92.264C79.352001,91.115997,80.584,90.136002,82.096001,90.136002C84.084,90.136002,85.204002,91.423996,85.204002,93.468002C85.204002,96.688004,81.900002,100.580002,76.243999,105.620003L76.243999,108ZM100.996002,108L104.83200099999999,108L104.83200099999999,102.624001L107.296005,102.624001L107.296005,99.487999L104.83200099999999,99.487999L104.83200099999999,87.251999L99.87599900000001,87.251999L92.148003,99.823997L92.148003,102.624001L100.996002,102.624001L100.996002,108ZM100.996002,99.487999L96.152,99.487999L99.37200200000001,94.335999C99.960003,93.216003,100.52000000000001,92.068001,101.024002,90.947998L101.164001,90.947998C101.08000200000001,92.18,100.996002,94.056,100.996002,95.260002L100.996002,99.487999ZM109.200005,101.279999L109.200005,104.5L121.884003,104.5L121.884003,110.52L125.356003,110.52L125.356003,104.5L134.96000700000002,104.5L134.96000700000002,101.279999L125.356003,101.279999L125.356003,97.052002L132.776001,97.052002L132.776001,93.916L125.356003,93.916L125.356003,90.528L133.44799799999998,90.528L133.44799799999998,87.279999L117.544006,87.279999C117.880005,86.524002,118.188004,85.767998,118.468002,84.984001L115.024002,84.087997C113.82,87.755997,111.636002,91.339996,109.116005,93.496002C109.956001,94,111.384003,95.092003,112.028,95.68C113.372002,94.335999,114.688004,92.543999,115.863998,90.528L121.884003,90.528L121.884003,93.916L113.652,93.916L113.652,101.279999L109.200005,101.279999ZM117.012001,101.279999L117.012001,97.052002L121.884003,97.052002L121.884003,101.279999L117.012001,101.279999Z" fill="#FFFFFF" fill-opacity="1"/></g></g><g><g><rect x="169" y="0" width="478" height="128" rx="10" fill="#CB8F00" fill-opacity="1"/></g><g><path d="M191.332,16.8879986L191.332,20.331999L212.696001,20.331999L212.696001,16.8879986L191.332,16.8879986ZM193.2639999,25.903999L193.2639999,29.32L210.45600100000001,29.32L210.45600100000001,25.903999L193.2639999,25.903999ZM189.7640001,35.396L189.7640001,38.812L214.18,38.812L214.18,35.396L189.7640001,35.396ZM228.208,23.271999L228.208,40.464001L231.708,40.464001L231.708,23.271999L228.208,23.271999ZM229.94400000000002,14.171999C227.088001,18.931998999999998,221.99200100000002,22.375999,216.643999,24.391998C217.596001,25.316,218.576,26.632,219.108,27.667999C223.167999,25.792,227.060001,23.075999,230.112,19.576C234.480003,24.112,237.980003,26.212,241.032001,27.695999C241.536003,26.576,242.599998,25.287998,243.524002,24.504C240.276001,23.243999000000002,236.440002,21.171999,232.127998,16.944000199999998L232.968002,15.5999985L229.94400000000002,14.171999ZM253.464005,26.743999L262.39599599999997,26.743999L262.39599599999997,29.543999L253.464005,29.543999L253.464005,26.743999ZM250.076,23.776L250.076,32.483999L253.04399899999999,32.483999C252.288002,34.891999999999996,250.496002,36.487999,244.952,37.412001000000004C245.652,38.139999,246.49200100000002,39.596001,246.799999,40.464001C253.66000400000001,38.980000000000004,255.844002,36.348,256.711998,32.483999L259.176003,32.483999L259.176003,36.208C259.176003,39.316,259.959999,40.296001,263.264,40.296001C263.936005,40.296001,266.316002,40.296001,267.01599899999997,40.296001C269.648003,40.296001,270.543999,39.260000000000005,270.936005,35.228001C270.012001,35.004000000000005,268.584,34.472,267.884003,33.940000999999995C267.772003,36.768,267.60400400000003,37.16,266.68,37.16C266.092003,37.16,264.188004,37.16,263.739998,37.16C262.704002,37.16,262.536003,37.048,262.536003,36.18L262.536003,32.483999L265.980003,32.483999L265.980003,23.776L250.076,23.776ZM264.664001,14.5359993C264.160004,15.963998799999999,263.152,17.8400002,262.311996,19.156L259.652,19.156L259.652,14.1999989L256.20799999999997,14.1999989L256.20799999999997,19.156L252.288002,19.156L253.884003,18.203999C253.379997,17.1119995,252.232002,15.5719986,251.167999,14.4239998L248.34,15.935998900000001C249.152,16.8879986,249.99200100000002,18.119999,250.524002,19.156L245.484001,19.156L245.484001,25.82L248.732002,25.82L248.732002,22.151999L267.268005,22.151999L267.268005,25.82L270.655998,25.82L270.655998,19.156L265.839996,19.156C266.596001,18.091999,267.436005,16.8039989,268.248001,15.5439987L264.664001,14.5359993ZM284.152,14.1999989L284.152,17.8959999L273.931999,17.8959999L273.931999,21.227999L284.152,21.227999L284.152,24.504L275.30400099999997,24.504L275.30400099999997,27.779999L279,27.779999L277.487999,28.312C278.88800000000003,30.888,280.624001,33.015999,282.751999,34.751999C279.811996,36.011999,276.367996,36.796,272.615997,37.271999C273.260002,38.028,274.127998,39.624001,274.435997,40.52C278.636002,39.82,282.584,38.700001,285.972,36.936001000000005C288.996,38.587998999999996,292.63599999999997,39.68,297.004,40.296001C297.452,39.344,298.404,37.804001,299.132,36.992001C295.43600000000004,36.6,292.188,35.844,289.472,34.723999C292.384,32.483999,294.68,29.543999,296.13599999999997,25.736L293.784,24.363998L293.168,24.504L287.652,24.504L287.652,21.227999L297.956,21.227999L297.956,17.8959999L287.652,17.8959999L287.652,14.1999989L284.152,14.1999989ZM281.01599899999997,27.779999L291.236,27.779999C290.004,29.936001,288.26800000000003,31.643999,286.139999,33.015999C283.956001,31.615999,282.248001,29.880001,281.01599899999997,27.779999ZM317.052,15.5439987L317.052,40.352001L320.02,40.352001L320.02,18.567999L323.12801,18.567999C322.51198999999997,20.723999,321.616,23.58,320.832,25.624001C322.96001,27.863998,323.548,29.880001,323.548,31.42C323.548,32.372,323.38,33.072001,322.90400999999997,33.351999C322.62399,33.519999999999996,322.25999,33.604,321.89599999999996,33.632000000000005C321.448,33.632000000000005,320.916,33.632000000000005,320.3,33.548C320.804,34.444,321.05600000000004,35.816,321.11199999999997,36.684C321.868,36.712,322.65201,36.684,323.26801,36.6C323.996,36.516001,324.64,36.32,325.144,35.927999C326.17999,35.200001,326.62801,33.827999,326.62801,31.812C326.62801,29.992001,326.20801,27.751999,323.94,25.231998C325.004,22.796,326.17999,19.576,327.132,16.8599987L324.78,15.403999299999999L324.304,15.5439987L317.052,15.5439987ZM306.3,20.303998999999997L311.116,20.303998999999997C310.752,21.703999,310.13599999999997,23.495998999999998,309.52,24.84L306.048,24.84L307.84000000000003,24.335999C307.58799999999997,23.216,307,21.591999,306.3,20.303998999999997ZM306.3,14.8439999C306.608,15.5719986,306.944,16.495998399999998,307.196,17.3079987L301.876,17.3079987L301.876,20.303998999999997L305.656,20.303998999999997L303.332,20.892C303.948,22.096,304.536,23.691999,304.788,24.84L301.176,24.84L301.176,27.863998L316.07201,27.863998L316.07201,24.84L312.712,24.84C313.272,23.636,313.86,22.179999000000002,314.448,20.807999000000002L312.18,20.303998999999997L315.428,20.303998999999997L315.428,17.3079987L310.696,17.3079987C310.38800000000003,16.3279991,309.856,15.0119991,309.352,13.9759998L306.3,14.8439999ZM302.464,29.880001L302.464,40.464001L305.6,40.464001L305.6,39.204L311.648,39.204L311.648,40.324001L314.98,40.324001L314.98,29.880001L302.464,29.880001ZM305.6,36.292L305.6,32.875999L311.648,32.875999L311.648,36.292L305.6,36.292ZM335.58799999999997,17.2799988C337.35201,18.455999,338.78,19.939999,339.98399,21.619999C338.332,29.040001,334.88800000000003,34.472,328.89599999999996,37.440000999999995C329.79201,38.084,331.36,39.483999,331.976,40.183998C337.04400999999996,37.188,340.51601,32.455999,342.728,26.043999C345.584,31.307999,347.99199999999996,37.048,353.75999,40.268002C353.95599000000004,39.232,354.85201,37.327999,355.384,36.403999C346.34000000000003,30.691999,346.64799,20.892,337.688,14.368L335.58799999999997,17.2799988ZM357.23199,16.8879986C358.772,18.259999999999998,360.64799,20.219999,361.43201,21.563999000000003L364.20399,19.463999C363.308,18.119999,361.37601,16.2719994,359.78,15.0119991L357.23199,16.8879986ZM367.81599,15.0679989C367.172,17.5039997,365.96799999999996,19.967999,364.45599000000004,21.507998999999998C365.21200999999996,21.9,366.584,22.768,367.2,23.299999C367.84398999999996,22.544,368.46001,21.591999,369.048,20.555999999999997L372.52,20.555999999999997L372.52,23.804000000000002L364.87601,23.804000000000002L364.87601,26.716L369.46799999999996,26.716C369.076,29.459999,368.06799,31.643999,364.28799000000004,33.015999C365.04400999999996,33.66,365.94,34.948,366.304,35.788C371.00800000000004,33.827999,372.32401,30.664,372.884,26.716L374.67599,26.716L374.67599,31.643999C374.67599,34.611999999999995,375.23599,35.591999,377.924,35.591999C378.42801,35.591999,379.52,35.591999,380.052,35.591999C382.09601,35.591999,382.93600000000004,34.639999,383.272,30.888C382.34801,30.664,380.948,30.132,380.332,29.599998C380.248,32.147999,380.13599999999997,32.511999,379.688,32.511999C379.464,32.511999,378.67999,32.511999,378.51198999999997,32.511999C378.036,32.511999,378.00800000000004,32.427999,378.00800000000004,31.615999L378.00800000000004,26.716L382.85201,26.716L382.85201,23.804000000000002L375.85201,23.804000000000002L375.85201,20.555999999999997L381.70399,20.555999999999997L381.70399,17.7279987L375.85201,17.7279987L375.85201,14.368L372.52,14.368L372.52,17.7279987L370.336,17.7279987C370.58799999999997,17.0839996,370.812,16.4399986,370.98,15.7679996L367.81599,15.0679989ZM363.616,25.007999L357.28799000000004,25.007999L357.28799000000004,28.115999L360.39599999999996,28.115999L360.39599999999996,35.312C359.248,35.927999,358.04400999999996,36.851999,356.89599999999996,37.860001L359.13599999999997,40.799999C360.62,39.035999000000004,362.188,37.412001000000004,363.224,37.412001000000004C363.84000000000003,37.412001000000004,364.70801,38.224001,365.856,38.924C367.73199,39.988001,369.972,40.324001,373.276,40.324001C376.02,40.324001,380.248,40.183998,382.32001,40.043999C382.34801,39.148001,382.88,37.468,383.216,36.572001C380.5,36.964000999999996,376.15999999999997,37.216,373.36,37.216C370.448,37.216,368.03999,37.048,366.276,35.983999C365.04400999999996,35.256001,364.37199,34.584,363.616,34.416L363.616,25.007999ZM402.452,14.4239998L402.452,19.323999L393.632,19.323999L393.632,14.4239998L390.02,14.4239998L390.02,19.323999L385.036,19.323999L385.036,22.683999L390.02,22.683999L390.02,40.52L393.632,40.52L393.632,38.812L402.452,38.812L402.452,40.296001L406.14799,40.296001L406.14799,22.683999L410.93600000000004,22.683999L410.93600000000004,19.323999L406.14799,19.323999L406.14799,14.4239998L402.452,14.4239998ZM393.632,22.683999L402.452,22.683999L402.452,27.444L393.632,27.444L393.632,22.683999ZM393.632,35.480000000000004L393.632,30.719999L402.452,30.719999L402.452,35.480000000000004L393.632,35.480000000000004ZM433.756,27.948L433.756,40.240002L436.91999999999996,40.240002L436.91999999999996,27.948L433.756,27.948ZM416.004,27.948L416.004,30.383999C416.004,32.903999,415.668,36.040001000000004,412.84000000000003,38.504000000000005C413.65199,38.952,414.856,39.903999,415.416,40.52C418.63599999999997,37.608000000000004,419,33.66,419,30.496L419,27.948L416.004,27.948ZM420.82001,29.012001C420.56799,31.392,420.14799,33.968,419.41999999999996,35.648001C420.12,35.955999,421.35201,36.544001,421.94,36.936001000000005C422.724,35.087998999999996,423.312,32.204,423.62,29.487999L420.82001,29.012001ZM428.43600000000004,29.403999C429.08000000000004,31.672001,429.696,34.667998999999995,429.892,36.431999000000005L432.804,35.844C432.58000000000004,34.08,431.88,31.167999,431.17999,28.927999L428.43600000000004,29.403999ZM432.776,22.823999L432.776,24.195999L427.76401,24.195999L427.76401,22.823999L432.776,22.823999ZM424.37601,14.1999989L424.37601,16.299999200000002L416.2,16.299999200000002L416.2,19.043999L424.37601,19.043999L424.37601,20.359999000000002L413.51198999999997,20.359999000000002L413.51198999999997,22.823999L424.37601,22.823999L424.37601,24.195999L416.2,24.195999L416.2,26.939999L424.37601,26.939999L424.37601,40.324001L427.76401,40.324001L427.76401,26.939999L436.44399999999996,26.939999L436.44399999999996,22.823999L438.76801,22.823999L438.76801,20.359999000000002L436.44399999999996,20.359999000000002L436.44399999999996,16.299999200000002L427.76401,16.299999200000002L427.76401,14.1999989L424.37601,14.1999989ZM432.776,20.359999000000002L427.76401,20.359999000000002L427.76401,19.043999L432.776,19.043999L432.776,20.359999000000002ZM446.72,15.6560001C445.71201,18.063999000000003,443.91999999999996,20.472,441.98801000000003,21.955999C442.8,22.403999,444.20001,23.327999,444.87201,23.915999C446.74799,22.151999,448.79199,19.351999,450.02399,16.552L446.72,15.6560001ZM452.17999,14.2279987L452.17999,23.467999C448.79199,24.784,444.73199,25.624001,440.56,26.127998C441.20399,26.827999,442.21200999999996,28.284,442.632,29.040001C443.696,28.872,444.73199,28.675999,445.79599,28.452L445.79599,40.52L449.04401,40.52L449.04401,39.455999L460.16,39.455999L460.16,40.380001L463.548,40.380001L463.548,25.931999L454.112,25.931999C457.19202,24.644001,459.90799,22.964,461.896,20.779999C462.76401,21.759999999999998,463.51999,22.740000000000002,463.96799,23.551999000000002L466.88,21.703999C465.64801,19.799999,463.01599,17.1959991,460.832,15.403999299999999L458.14401,17.027999899999998C459.32001,18.063999000000003,460.57999,19.296,461.672,20.528L458.78799,19.240000000000002C457.92001,20.247999,456.79999,21.115999000000002,455.48401,21.9L455.48401,14.2279987L452.17999,14.2279987ZM449.04401,31.98L460.16,31.98L460.16,33.351999L449.04401,33.351999L449.04401,31.98ZM449.04401,29.712L449.04401,28.452L460.16,28.452L460.16,29.712L449.04401,29.712ZM449.04401,35.619999L460.16,35.619999L460.16,36.964000999999996L449.04401,36.964000999999996L449.04401,35.619999ZM476.62399,22.964L487.51599,22.964L487.51599,24.504L476.62399,24.504L476.62399,22.964ZM473.26401,20.723999L473.26401,26.743999L491.04401,26.743999L491.04401,20.723999L473.26401,20.723999ZM479.67599,14.8439999L480.34799,16.8319988L469.54001,16.8319988L469.54001,19.66L494.37601,19.66L494.37601,16.8319988L484.26801,16.8319988L483.14801,14.0039997L479.67599,14.8439999ZM475.70001,31.643999L475.70001,39.063998999999995L478.80801,39.063998999999995L478.80801,37.916L486.84399,37.916C487.23599,38.587998999999996,487.65601,39.568000999999995,487.79599,40.296001C489.784,40.296001,491.26801,40.296001,492.30402,39.931999000000005C493.36801,39.512001,493.73199,38.896,493.73199,37.440000999999995L493.73199,27.863998L470.29599,27.863998L470.29599,40.492001L473.57199,40.492001L473.57199,30.608L490.34399,30.608L490.34399,37.412001000000004C490.34399,37.775999,490.17599,37.888000000000005,489.784,37.888000000000005L487.936,37.888000000000005L487.936,31.643999L475.70001,31.643999ZM478.80801,33.968L484.996,33.968L484.996,35.591999L478.80801,35.591999L478.80801,33.968ZM501.992,35.115999C503.58801,36.32,505.40799,38.084,506.22,39.344L508.79599,37.243999C508.09601,36.236000000000004,506.75201,34.976,505.40799,33.968L513.7520099999999,33.968L513.7520099999999,36.964000999999996C513.7520099999999,37.299999,513.6120000000001,37.412001000000004,513.164,37.412001000000004C512.68799,37.412001000000004,511.008,37.412001000000004,509.57999,37.356001C510.056,38.224001,510.616,39.540001000000004,510.81201,40.492001C512.9119900000001,40.492001,514.508,40.464001,515.68399,39.988001C516.8879999999999,39.483999,517.2239999999999,38.672001,517.2239999999999,37.048L517.2239999999999,33.968L521.98401,33.968L521.98401,31.139999L517.2239999999999,31.139999L517.2239999999999,29.459999L522.82401,29.459999L522.82401,26.632L511.70801,26.632L511.70801,25.007999L520.22,25.007999L520.22,22.264L511.70801,22.264L511.70801,21.143999C512.2959900000001,20.5,512.85599,19.771999,513.3599899999999,18.987999000000002L514.452,18.987999000000002C515.2080100000001,19.967999,515.9079899999999,21.171999,516.216,21.955999L519.10001,20.751998999999998C518.87601,20.247999,518.48401,19.604,518.03601,18.987999000000002L522.68399,18.987999000000002L522.68399,16.2159996L514.92801,16.2159996C515.12399,15.7399998,515.34799,15.2639999,515.51599,14.7880001L512.32401,13.9759998C511.73599,15.5999985,510.81201,17.223999,509.69199,18.511999L509.69199,16.2159996L503.56,16.2159996L504.20401,14.8439999L500.98401,13.9759998C500.03201,16.355999,498.32401,18.792,496.504,20.303998999999997C497.28799,20.723999,498.66,21.647999,499.30399,22.179999000000002C500.172,21.311999999999998,501.06799,20.219999,501.90799,18.987999000000002L502.18799,18.987999000000002C502.74799,19.996000000000002,503.30801,21.143999,503.504,21.927999L506.35999,20.751998999999998C506.19199,20.247999,505.91199,19.631999999999998,505.57599,18.987999000000002L509.272,18.987999000000002C508.96399,19.323999,508.62799,19.631999999999998,508.29199,19.911999C508.71201,20.136,509.29999,20.528,509.888,20.92L508.20801,20.92L508.20801,22.264L500.03201,22.264L500.03201,25.007999L508.20801,25.007999L508.20801,26.632L497.20401,26.632L497.20401,29.459999L513.7520099999999,29.459999L513.7520099999999,31.139999L498.26801,31.139999L498.26801,33.968L503.47601,33.968L501.992,35.115999ZM540.21201,14.815999999999999C540.63199,15.5999985,541.052,16.6079998,541.3599899999999,17.4759998L534.836,17.4759998L534.836,23.047999L537.048,23.047999L537.048,25.540001L548.6120000000001,25.540001L548.6120000000001,23.047999L550.82401,23.047999L550.82401,17.4759998L545,17.4759998C544.63599,16.4399986,544.01999,15.0119991,543.37601,13.9200001L540.21201,14.815999999999999ZM537.91602,22.655999L537.91602,20.387999L547.604,20.387999L547.604,22.655999L537.91602,22.655999ZM534.892,27.639999L534.892,30.636L538.28,30.636C537.91602,34.164,536.9359999999999,36.431999000000005,532.4559899999999,37.804001C533.12799,38.448,534.02399,39.68,534.332,40.52C539.76401,38.615999,541.07999,35.367999999999995,541.5,30.636L543.34799,30.636L543.34799,36.403999C543.34799,39.176001,543.9079899999999,40.127998,546.39999,40.127998C546.84799,40.127998,547.85599,40.127998,548.332,40.127998C550.32001,40.127998,551.104,39.063998999999995,551.35599,35.172001C550.5440100000001,34.976,549.2280000000001,34.472,548.6120000000001,33.968C548.556,36.851999,548.41602,37.299999,547.996,37.299999C547.79999,37.299999,547.12799,37.299999,546.98801,37.299999C546.56799,37.299999,546.5400099999999,37.188,546.5400099999999,36.375999L546.5400099999999,30.636L550.96399,30.636L550.96399,27.639999L534.892,27.639999ZM525.90399,15.3199997L525.90399,40.408001L528.8439900000001,40.408001L528.8439900000001,18.316000000000003L531.08401,18.316000000000003C530.63599,20.136,530.048,22.403999,529.51599,24.139999C531.1120000000001,26.099998,531.448,27.92,531.448,29.264C531.448,30.076,531.30801,30.691999,530.97198,30.944C530.7760000000001,31.112,530.496,31.167999,530.216,31.167999C529.88,31.195999,529.48801,31.167999,528.98401,31.139999C529.4599900000001,31.952,529.71201,33.212,529.71201,34.024C530.384,34.052,531.02802,34.052,531.56,33.968C532.17599,33.855999,532.7080100000001,33.688,533.1560099999999,33.351999C534.052,32.68,534.41602,31.448,534.41602,29.627998C534.41602,27.976,534.052,26.015999,532.3439900000001,23.776C533.1560099999999,21.619999,534.07999,18.792,534.78,16.4399986L532.59601,15.179998399999999L532.12,15.3199997L525.90399,15.3199997ZM572.7760000000001,26.323999C572.2439899999999,28.115999,571.51599,29.712,570.53601,31.167999C569.47198,29.74,568.63199,28.115999,568.01599,26.351999L566.392,26.771999C567.5400099999999,25.483999,568.68799,24.028,569.58398,22.599999L566.616,21.227999C565.52399,23.075999,563.67599,25.344,561.94,26.716C562.6400100000001,27.219999,563.7040099999999,28.172001,564.26401,28.816L565.35599,27.807999C566.19601,30.02,567.2040099999999,32.007999,568.4359999999999,33.716C566.64401,35.507999,564.40399,36.908001,561.7439899999999,37.916C562.3879999999999,38.476,563.396,39.792,563.8439900000001,40.52C566.504,39.455999,568.7439899999999,38.028,570.5920100000001,36.263999999999996C572.4119900000001,38.028,574.62399,39.427999,577.284,40.352001C577.76001,39.4,578.76801,38,579.52399,37.299999C576.892,36.544001,574.65201,35.312,572.832,33.688C574.12,31.896,575.1560099999999,29.823999,575.884,27.472C576.164,27.891998,576.41602,28.284,576.58401,28.619999L579.048,26.464001C578.15201,24.924,576.19202,22.796,574.42801,21.199999L578.85199,21.199999L578.85199,18.119999L571.17999,18.119999L572.97198,17.3639984C572.57999,16.3839989,571.71201,14.9559994,570.8439900000001,13.8920002L567.84799,15.0119991C568.51999,15.907999,569.2479900000001,17.167999299999998,569.6400100000001,18.119999L563.31201,18.119999L563.31201,21.199999L573.784,21.199999L571.85199,22.823999C573.1400100000001,24.056,574.56799,25.652,575.604,27.052L572.7760000000001,26.323999ZM556.73199,14.1999989L556.73199,19.743999000000002L553.39999,19.743999000000002L553.39999,22.851999L556.172,22.851999C555.47198,26.268,554.10001,30.243999,552.504,32.455999C553.03601,33.323999,553.76401,34.864000000000004,554.07199,35.788C555.07999,34.164,556.004,31.756001,556.73199,29.152L556.73199,40.492001L559.81201,40.492001L559.81201,28.087999C560.42801,29.431999,561.0440100000001,30.832001,561.38,31.784L563.284,29.292C562.78,28.452,560.51199,24.728001,559.81201,23.747999L559.81201,22.851999L562.6120000000001,22.851999L562.6120000000001,19.743999000000002L559.81201,19.743999000000002L559.81201,14.1999989L556.73199,14.1999989ZM601.5880099999999,15.403999299999999L600.80402,13.9200001C598.76001,14.8719997,596.94,16.8319988,596.94,19.604C596.94,21.284,598.004,22.599999,599.40399,22.599999C600.7760000000001,22.599999,601.5880099999999,21.647999,601.5880099999999,20.528C601.5880099999999,19.379998999999998,600.80402,18.483999,599.62799,18.483999C599.37601,18.483999,599.15201,18.567999,599.0400099999999,18.623998999999998C599.0400099999999,17.755998599999998,599.9079899999999,16.1879997,601.5880099999999,15.403999299999999ZM607.29999,15.403999299999999L606.48801,13.9200001C604.444,14.8719997,602.62399,16.8319988,602.62399,19.604C602.62399,21.284,603.68799,22.599999,605.0880099999999,22.599999C606.48801,22.599999,607.2719999999999,21.647999,607.2719999999999,20.528C607.2719999999999,19.379998999999998,606.48801,18.483999,605.3399999999999,18.483999C605.06,18.483999,604.836,18.567999,604.7239999999999,18.623998999999998C604.7239999999999,17.755998599999998,605.5920100000001,16.1879997,607.29999,15.403999299999999ZM630.23199,14.0879993C629.81201,15.7399998,628.97198,17.8400002,628.1600000000001,19.435999000000002L623.28799,19.435999000000002L625.3599899999999,18.651999C624.996,17.4200001,623.98801,15.6280003,623.12,14.2839985L620.12399,15.3199997C620.88,16.5799999,621.664,18.231998,622.056,19.435999000000002L619.20001,19.435999000000002L619.20001,22.488L625.13599,22.488L625.13599,25.203999L620.06799,25.203999L620.06799,28.256001L625.13599,28.256001L625.13599,31.028L618.444,31.028L618.444,34.135999999999996L625.13599,34.135999999999996L625.13599,40.492001L628.552,40.492001L628.552,34.135999999999996L634.9079899999999,34.135999999999996L634.9079899999999,31.028L628.552,31.028L628.552,28.256001L633.64801,28.256001L633.64801,25.203999L628.552,25.203999L628.552,22.488L634.4599900000001,22.488L634.4599900000001,19.435999000000002L631.6600000000001,19.435999000000002C632.332,18.119999,633.03201,16.6079998,633.67599,15.1239986L630.23199,14.0879993ZM612.396,14.1999989L612.396,19.435999000000002L609.23199,19.435999000000002L609.23199,22.544L612.396,22.544L612.396,23.216C611.58401,26.436001,610.18399,30.02,608.616,32.063998999999995C609.17599,32.959998999999996,609.90399,34.5,610.21201,35.452C610.996,34.247999,611.7520099999999,32.624001,612.396,30.832001L612.396,40.492001L615.616,40.492001L615.616,27.723999C616.2040099999999,28.927999,616.7919899999999,30.132,617.10001,30.972L619.116,28.591999C618.6120000000001,27.779999,616.4559899999999,24.644001,615.616,23.551999000000002L615.616,22.544L618.2760000000001,22.544L618.2760000000001,19.435999000000002L615.616,19.435999000000002L615.616,14.1999989L612.396,14.1999989ZM192.704,49.199997L192.704,54.435997L189.288,54.435997L189.288,57.543999L192.5640001,57.543999C191.7520001,60.987999,190.2680001,65.02000000000001,188.588,67.063999C189.092,67.93199899999999,189.7920001,69.5,190.072,70.424C191.0240002,68.91199900000001,191.9480002,66.644001,192.704,64.152L192.704,75.491997L195.8400002,75.491997L195.8400002,62.164001C196.4000006,63.424,196.9320002,64.711998,197.2119999,65.608002L199.172,63.115997C198.696,62.276001,196.54,58.972,195.8400002,58.076L195.8400002,57.543999L198.836,57.543999L198.836,54.435997L195.8400002,54.435997L195.8400002,49.199997L192.704,49.199997ZM203.036,59.952C203.764001,63.312,204.744001,66.279999,206.144001,68.771999C204.632,70.535999,202.812,71.852001,200.712001,72.720001C202.392,68.71600000000001,202.924001,63.844002,203.036,59.952ZM212.388,49.396C209.392,50.571999,204.324001,51.188,199.788,51.383999L199.788,58.048C199.788,62.584,199.536,69.220001,196.3439999,73.755997C197.1280003,74.064003,198.528,75.071999,199.11599999999999,75.660004C199.732,74.792,200.236,73.811996,200.684,72.776001C201.356,73.447998,202.224,74.708,202.672001,75.519997C204.716,74.512001,206.536001,73.223999,208.048,71.599998C209.448,73.279999,211.128,74.624001,213.200001,75.604004C213.67600099999999,74.708,214.684,73.391998,215.440001,72.720001C213.312,71.880001,211.576,70.563999,210.17600099999999,68.91199900000001C212.07999999999998,65.944,213.39600000000002,62.192001,214.040001,57.459999L211.940001,56.872002L211.352001,56.956001L203.064,56.956001L203.064,54.127998C207.152,53.875999,211.52,53.288002,214.684,52.084L212.388,49.396ZM210.344,59.952C209.84,62.164001,209.112001,64.12400099999999,208.16,65.860001C207.236,64.06800100000001,206.536001,62.080002,206.032001,59.952L210.344,59.952ZM225.464001,61.743999L234.39600000000002,61.743999L234.39600000000002,64.543999L225.464001,64.543999L225.464001,61.743999ZM222.076,58.776001L222.076,67.484001L225.04399899999999,67.484001C224.288002,69.891998,222.496002,71.487999,216.952,72.412003C217.652,73.139999,218.492001,74.596001,218.799999,75.463997C225.66,73.980003,227.844002,71.348,228.71200199999998,67.484001L231.176003,67.484001L231.176003,71.208C231.176003,74.316002,231.959999,75.295998,235.264,75.295998C235.936001,75.295998,238.316002,75.295998,239.015999,75.295998C241.64800300000002,75.295998,242.54399899999999,74.260002,242.936001,70.228001C242.012001,70.004002,240.584,69.47200000000001,239.884003,68.939999C239.77200299999998,71.768002,239.60399999999998,72.160004,238.68,72.160004C238.092003,72.160004,236.188,72.160004,235.739998,72.160004C234.704002,72.160004,234.536003,72.047997,234.536003,71.18L234.536003,67.484001L237.980003,67.484001L237.980003,58.776001L222.076,58.776001ZM236.66400099999998,49.535999C236.16,50.963997,235.152,52.84,234.312,54.155998L231.652,54.155998L231.652,49.199997L228.208,49.199997L228.208,54.155998L224.288002,54.155998L225.884003,53.203999C225.380001,52.112,224.232002,50.571999,223.167999,49.424L220.34,50.935997C221.152,51.888,221.99200100000002,53.119999,222.524002,54.155998L217.483999,54.155998L217.483999,60.82L220.732002,60.82L220.732002,57.152L239.268002,57.152L239.268002,60.82L242.655998,60.82L242.655998,54.155998L237.84,54.155998C238.596001,53.091999,239.436001,51.804001,240.248001,50.543999L236.66400099999998,49.535999ZM256.152,49.199997L256.152,52.896L245.931999,52.896L245.931999,56.227997L256.152,56.227997L256.152,59.503998L247.304001,59.503998L247.304001,62.779999L251,62.779999L249.487999,63.312C250.888,65.888,252.62400100000002,68.015999,254.751999,69.751999C251.812,71.012001,248.368,71.79600099999999,244.61600099999998,72.272003C245.259998,73.028,246.127998,74.624001,246.436001,75.519997C250.636002,74.82,254.584,73.699997,257.972,71.936001C260.996002,73.587997,264.636002,74.68,269.003998,75.295998C269.452003,74.344002,270.403999,72.804001,271.132004,71.992001C267.436005,71.599998,264.188004,70.844002,261.472,69.72399899999999C264.384003,67.484001,266.68,64.543999,268.136002,60.736L265.783997,59.363998L265.167999,59.503998L259.652,59.503998L259.652,56.227997L269.956001,56.227997L269.956001,52.896L259.652,52.896L259.652,49.199997L256.152,49.199997ZM253.015999,62.779999L263.236,62.779999C262.003998,64.936001,260.26799800000003,66.644001,258.139999,68.015999C255.95600100000001,66.616001,254.248001,64.880001,253.015999,62.779999ZM289.052,50.543999L289.052,75.351997L292.02,75.351997L292.02,53.568001L295.128,53.568001C294.512,55.723999,293.616,58.580002,292.832,60.624001C294.96,62.863998,295.548,64.880001,295.548,66.41999799999999C295.548,67.37200200000001,295.38,68.071999,294.904,68.352001C294.624,68.52000000000001,294.26,68.604,293.896,68.632C293.448,68.632,292.916,68.632,292.3,68.548C292.804,69.444,293.056,70.816002,293.11199999999997,71.683998C293.868,71.712002,294.652,71.683998,295.26801,71.599998C295.996,71.515999,296.64,71.32,297.144,70.928001C298.18,70.200001,298.628,68.827999,298.628,66.812C298.628,64.992001,298.20799999999997,62.751999,295.94,60.231998C297.004,57.795998,298.18,54.576,299.132,51.860001L296.78,50.403999L296.304,50.543999L289.052,50.543999ZM278.300003,55.304001L283.115997,55.304001C282.751999,56.703999,282.136002,58.495998,281.520004,59.84L278.048004,59.84L279.839996,59.335999C279.587997,58.216,279,56.591999,278.300003,55.304001ZM278.300003,49.844002C278.608002,50.571999,278.944,51.495998,279.19599900000003,52.307999L273.875999,52.307999L273.875999,55.304001L277.655998,55.304001L275.332001,55.891998C275.947998,57.096001,276.536003,58.692001,276.788002,59.84L273.176003,59.84L273.176003,62.863998L288.072,62.863998L288.072,59.84L284.711998,59.84C285.272003,58.636002,285.860001,57.18,286.447998,55.807999L284.18,55.304001L287.428001,55.304001L287.428001,52.307999L282.69599900000003,52.307999C282.38800000000003,51.327999,281.856003,50.012001,281.351997,48.975998L278.300003,49.844002ZM274.463997,64.880001L274.463997,75.463997L277.599998,75.463997L277.599998,74.204002L283.648003,74.204002L283.648003,75.323997L286.980003,75.323997L286.980003,64.880001L274.463997,64.880001ZM277.599998,71.292L277.599998,67.87599900000001L283.648003,67.87599900000001L283.648003,71.292L277.599998,71.292ZM306.41200000000003,56.34L307.196,57.795998C309.24,56.872002,311.06,54.911999,311.06,52.139999C311.06,50.431999,309.996,49.115997,308.596,49.115997C307.224,49.115997,306.41200000000003,50.096001,306.41200000000003,51.188C306.41200000000003,52.335999,307.196,53.231998,308.372,53.231998C308.624,53.231998,308.848,53.175999,308.96,53.091999C308.96,53.987999,308.092,55.528,306.41200000000003,56.34ZM300.7,56.34L301.512,57.795998C303.556,56.872002,305.376,54.911999,305.376,52.139999C305.376,50.431999,304.312,49.115997,302.91200000000003,49.115997C301.512,49.115997,300.728,50.096001,300.728,51.188C300.728,52.335999,301.512,53.231998,302.65999999999997,53.231998C302.94,53.231998,303.164,53.175999,303.276,53.091999C303.276,53.987999,302.408,55.528,300.7,56.34ZM347.48801000000003,63.312L347.48801000000003,65.076L336.79199,65.076L336.79199,68.155998L347.48801000000003,68.155998L347.48801000000003,71.683998C347.48801000000003,72.047997,347.34799,72.188004,346.78799000000004,72.188004C346.2,72.216003,344.12801,72.216003,342.336,72.132004C342.84000000000003,73.028,343.48399,74.428001,343.70799,75.379997C346.08799999999997,75.379997,347.85201,75.323997,349.168,74.848C350.51198999999997,74.372002,350.93201,73.503998,350.93201,71.768002L350.93201,68.155998L361.85201,68.155998L361.85201,65.076L350.93201,65.076L350.93201,64.543999C353.34000000000003,63.396,355.608,61.855999,357.31599,60.287998L355.188,58.608002L354.48801000000003,58.776001L341.804,58.776001L341.804,61.688L350.67999,61.688C349.672,62.304001,348.552,62.891998,347.48801000000003,63.312ZM346.73199,50.068001C347.43201,51.16,348.15999999999997,52.559998,348.552,53.652L343.81998999999996,53.652L344.884,53.147999C344.43600000000004,52.084,343.31599,50.571999,342.336,49.48L339.48,50.739998C340.17999,51.608002,340.93600000000004,52.699997,341.44,53.652L337.15601000000004,53.652L337.15601000000004,59.84L340.29199,59.84L340.29199,56.619999L358.24001,56.619999L358.24001,59.84L361.54400999999996,59.84L361.54400999999996,53.652L357.45599000000004,53.652C358.24001,52.671997,359.052,51.552002,359.808,50.459999L356.336,49.396C355.776,50.683998,354.82401,52.335999,353.92799,53.652L350.25999,53.652L351.91200000000003,53.007999C351.548,51.860001,350.62399,50.18,349.7,48.947998L346.73199,50.068001ZM379.49199999999996,49.816002C379.91200000000003,50.599998,380.332,51.608002,380.64,52.475998L374.116,52.475998L374.116,58.048L376.328,58.048L376.328,60.540001L387.892,60.540001L387.892,58.048L390.10400000000004,58.048L390.10400000000004,52.475998L384.28,52.475998C383.916,51.439999,383.3,50.012001,382.65601000000004,48.919998L379.49199999999996,49.816002ZM377.196,57.655998L377.196,55.388L386.884,55.388L386.884,57.655998L377.196,57.655998ZM374.172,62.639999L374.172,65.63600199999999L377.56,65.63600199999999C377.196,69.164001,376.216,71.43199899999999,371.73599,72.804001C372.408,73.447998,373.304,74.68,373.61199999999997,75.519997C379.04400999999996,73.615997,380.36,70.368,380.78,65.63600199999999L382.62801,65.63600199999999L382.62801,71.403999C382.62801,74.176003,383.188,75.127998,385.67999,75.127998C386.12801,75.127998,387.13599999999997,75.127998,387.61199999999997,75.127998C389.60001,75.127998,390.384,74.064003,390.63599999999997,70.172001C389.82401,69.975998,388.50800000000004,69.47200000000001,387.892,68.96799899999999C387.836,71.852001,387.696,72.300003,387.276,72.300003C387.08000000000004,72.300003,386.408,72.300003,386.26801,72.300003C385.84799,72.300003,385.82001,72.188004,385.82001,71.37599900000001L385.82001,65.63600199999999L390.244,65.63600199999999L390.244,62.639999L374.172,62.639999ZM365.18401,50.32L365.18401,75.407997L368.12399,75.407997L368.12399,53.316002L370.36400000000003,53.316002C369.916,55.136002,369.328,57.403999,368.79601,59.139999C370.392,61.099998,370.728,62.919998,370.728,64.26400000000001C370.728,65.076,370.58799999999997,65.692001,370.252,65.944C370.05600000000004,66.112,369.776,66.16799900000001,369.496,66.16799900000001C369.15999999999997,66.195999,368.76801,66.16799900000001,368.26399000000004,66.139999C368.74001,66.952,368.99199999999996,68.211998,368.99199999999996,69.023998C369.664,69.051998,370.308,69.051998,370.84000000000003,68.96799899999999C371.45599000000004,68.855999,371.98801000000003,68.688,372.43600000000004,68.352001C373.332,67.68,373.696,66.447998,373.696,64.62799799999999C373.696,62.975998,373.332,61.015999,371.62399,58.776001C372.43600000000004,56.619999,373.36,53.792,374.06,51.439999L371.87601,50.18L371.39999,50.32L365.18401,50.32ZM393.26801,51.104C394.61199999999997,52.699997,396.26399000000004,54.911999,396.964,56.312L399.73599,54.407997C398.952,53.007999,397.188,50.935997,395.84398999999996,49.424L393.26801,51.104ZM398.784,58.495998L392.37199,58.495998L392.37199,61.604L395.56399999999996,61.604L395.56399999999996,69.248001C394.332,69.807999,392.93199000000004,70.900002,391.616,72.384003L394.052,75.772003C395.03200000000004,74.064003,396.20799,72.103996,397.02,72.103996C397.63599999999997,72.103996,398.644,73.028,399.90399,73.755997C402.03200000000004,74.931999,404.41200000000003,75.267998,408.108,75.267998C411.10400000000004,75.267998,415.78,75.071999,417.82401,74.959999C417.85201,73.952003,418.44,72.188004,418.832,71.208C415.948,71.655998,411.272,71.936001,408.248,71.936001C405,71.936001,402.368,71.768002,400.464,70.591999C399.76399000000004,70.228001,399.23199,69.86399800000001,398.784,69.556L398.784,58.495998ZM401.78,62.136002C402.03200000000004,61.827999,403.26399000000004,61.688,404.496,61.688L408.36,61.688L408.36,64.18L400.12801,64.18L400.12801,67.344002L408.36,67.344002L408.36,71.292L411.832,71.292L411.832,67.344002L417.79601,67.344002L417.79601,64.18L411.832,64.18L411.832,61.688L416.62,61.688L416.62,58.580002L411.832,58.580002L411.832,55.807999L408.36,55.807999L408.36,58.580002L405.084,58.580002C405.728,57.431999,406.37199,56.171997,406.98801000000003,54.855999L417.48801000000003,54.855999L417.48801000000003,51.972L408.164,51.972L408.836,50.096001L405.336,49.171997C405.11199999999997,50.124001,404.804,51.076,404.496,51.972L400.408,51.972L400.408,54.855999L403.37601,54.855999C402.92799,55.975998,402.50800000000004,56.816002,402.256,57.208C401.696,58.216,401.248,58.804001,400.65999999999997,58.972C401.052,59.868,401.61199999999997,61.436001,401.78,62.136002ZM438.48801000000003,70.47999999999999C440.56,71.936001,443.052,74.092003,444.228,75.519997L446.384,73.503998C445.15201,72.047997,442.52,70.03200100000001,440.476,68.688L438.48801000000003,70.47999999999999ZM420.20399,70.816002L420.93199000000004,73.924004C423.48,72.916,426.672,71.655998,429.64,70.396L429.08000000000004,67.708C425.804,68.91199900000001,422.416,70.144001,420.20399,70.816002ZM430.48,55.919998L430.48,58.748001L442.408,58.748001C442.12801,59.84,441.82001,60.903999,441.56799,61.688L444.172,62.276001C444.78799,60.764,445.45999,58.383999,445.992,56.255997L443.86400000000003,55.835999L443.36,55.919998L439.496,55.919998L439.496,54.183998L444.36801,54.183998L444.36801,51.411999L439.496,51.411999L439.496,49.199997L436.22,49.199997L436.22,51.411999L431.45999,51.411999L431.45999,54.183998L436.22,54.183998L436.22,55.919998L430.48,55.919998ZM436.86400000000003,59.475998L436.86400000000003,61.155998C436.108,60.484001,434.67999,59.644001,433.56,59.139999L432.216,60.708C433.41999999999996,61.351997,434.84799,62.304001,435.576,63.003998L436.86400000000003,61.408001L436.86400000000003,62.444C436.86400000000003,63.34,436.808,64.348,436.55600000000004,65.41199900000001L433.924,65.41199900000001L435.21200999999996,63.928001C434.42799,63.172001,432.86,62.164001,431.60001,61.52L430.144,63.115997C431.23599,63.759998,432.552,64.683998,433.36400000000003,65.41199900000001L429.892,65.41199900000001L429.892,68.29600099999999L435.408,68.29600099999999C434.31599,70.060001,432.44,71.768002,429.22,73.112C429.86400000000003,73.699997,430.78799000000004,74.848,431.20799,75.575996C435.632,73.615997,437.87199,70.984001,438.964,68.29600099999999L445.60001,68.29600099999999L445.60001,65.41199900000001L439.748,65.41199900000001C439.916,64.403999,439.972,63.424,439.972,62.528L439.972,59.475998L436.86400000000003,59.475998ZM420.93199000000004,61.436001C421.35201,61.211998,422.024,61.043999,424.45999,60.764C423.536,62.164001,422.752,63.256001,422.332,63.731998C421.464,64.767998,420.87599,65.41199900000001,420.20399,65.58000200000001C420.53999,66.335999,421.01599,67.68,421.15601000000004,68.267998C421.8,67.792,422.91999999999996,67.37200200000001,429.276,65.608002C429.164,64.936001,429.108,63.675999,429.13599999999997,62.835999L425.58000000000004,63.703999C427.23199,61.492001,428.828,59,430.116,56.535999L427.62399,54.996002C427.17599,56.003998,426.644,57.012001,426.11199999999997,57.992001L423.84398999999996,58.16C425.41200000000003,55.891998,426.89599999999996,53.147999,427.93201,50.543999L425.076,49.199997C424.09599000000003,52.475998,422.192,56.031998,421.576,56.928001C420.98798999999997,57.823997,420.51198999999997,58.439999,419.952,58.580002C420.28799000000004,59.391998,420.79199,60.82,420.93199000000004,61.436001ZM459.51599,49.115997C457.612,51.327999,454.28,53.708,449.74399,55.388C450.47198,55.891998,451.53601,57.012001,452.01199,57.795998C454.28,56.788002,456.23999,55.667999,457.97601,54.435997L465.004,54.435997C463.772,55.695999,462.17599,56.788002,460.384,57.739998C459.51599,56.984001,458.48001,56.199997,457.58398,55.612L455.064,57.208C455.79199,57.739998,456.63199,58.411999,457.35999,59.084C454.75601,60.063999,451.89999,60.792,449.04401,61.211998C449.604,61.939999,450.30399,63.312,450.612,64.18C458.70401,62.639999,466.68399,59.139999,470.35199,52.643997L468.14001,51.355999L467.552,51.495998L461.616,51.495998C462.12,50.991997,462.65201,50.487999,463.12799,49.956001L459.51599,49.115997ZM464.13599,59.167999C462.008,61.883999,458.116,64.62799799999999,452.34799,66.447998C453.048,67.035999,454,68.267998,454.392,69.051998C457.58398,67.87599900000001,460.272,66.447998,462.54001,64.851997L468.896,64.851997C467.69199,66.391998,466.12399,67.652,464.24799,68.66C463.35199,67.903999,462.31601,67.119999,461.448,66.503998L458.67599,68.099998C459.43201,68.66,460.29999,69.388,461.056,70.08800099999999C457.5,71.348,453.272,72.019997,448.76401,72.328003C449.29599,73.167999,449.85599,74.652,450.07999,75.575996C460.85999,74.540001,470.07199,71.571999,474.048,63.031998L471.724,61.716L471.108,61.883999L466.06799,61.883999C466.68399,61.267998,467.272,60.624001,467.80399,59.98L464.13599,59.167999ZM476.39999,66.279999L476.39999,69.5L489.08398,69.5L489.08398,75.519997L492.556,75.519997L492.556,69.5L502.16,69.5L502.16,66.279999L492.556,66.279999L492.556,62.052002L499.97601,62.052002L499.97601,58.916L492.556,58.916L492.556,55.528L500.64801,55.528L500.64801,52.279999L484.74399,52.279999C485.07999,51.524002,485.388,50.767998,485.668,49.984001L482.224,49.087997C481.01999,52.755997,478.836,56.34,476.31601,58.495998C477.15601,59,478.58398,60.091999,479.228,60.68C480.57199,59.335999,481.888,57.543999,483.064,55.528L489.08398,55.528L489.08398,58.916L480.85199,58.916L480.85199,66.279999L476.39999,66.279999ZM484.21201,66.279999L484.21201,62.052002L489.08398,62.052002L489.08398,66.279999L484.21201,66.279999ZM505.40799,56.255997L505.40799,61.743999L508.57199,61.743999L508.57199,59.139999L525.84799,59.139999L525.84799,61.743999L529.2080100000001,61.743999L529.2080100000001,56.255997L505.40799,56.255997ZM520.19199,49.199997L520.19199,50.879997L514.31201,50.879997L514.31201,49.199997L510.98001,49.199997L510.98001,50.879997L504.87601,50.879997L504.87601,53.82L510.98001,53.82L510.98001,55.639999L514.31201,55.639999L514.31201,53.82L520.19199,53.82L520.19199,55.639999L523.52399,55.639999L523.52399,53.82L529.73999,53.82L529.73999,50.879997L523.52399,50.879997L523.52399,49.199997L520.19199,49.199997ZM515.57199,59.728001L515.57199,62.639999L505.04401,62.639999L505.04401,65.63600199999999L513.7520099999999,65.63600199999999C511.39999,68.267998,507.73199,70.563999,504.008,71.768002C504.73599,72.412003,505.74399,73.699997,506.24799,74.540001C509.72,73.167999,513.07999,70.759998,515.57199,67.848L515.57199,75.463997L518.87601,75.463997L518.87601,67.68C521.36801,70.647999,524.7280000000001,73.167999,528.2280000000001,74.568001C528.73199,73.671997,529.76801,72.356003,530.552,71.655998C526.85599,70.47999999999999,523.18799,68.211998,520.86401,65.63600199999999L529.5440100000001,65.63600199999999L529.5440100000001,62.639999L518.87601,62.639999L518.87601,59.728001L515.57199,59.728001ZM547.96799,56.284L547.96799,60.596001L547.96799,60.736L542.20001,60.736L542.20001,63.844002L547.716,63.844002C547.18399,66.97999999999999,545.616,70.507999,541.22,73.391998C542.03201,73.952003,543.12399,74.875999,543.68399,75.575996C547.0440100000001,73.391998,548.892,70.70399900000001,549.92801,68.015999C551.2719999999999,71.292,553.23199,73.867996,556.14401,75.407997C556.5920100000001,74.540001,557.5440100000001,73.279999,558.2719999999999,72.664001C554.716,71.12400099999999,552.56,67.87599900000001,551.384,63.844002L557.68399,63.844002L557.68399,60.736L554.884,60.736L556.89999,59.307999C556.284,58.271999,554.884,56.928001,553.65201,56.003998L551.384,57.571999C552.448,58.495998,553.67999,59.756001,554.32401,60.736L551.104,60.736L551.104,60.624001L551.104,56.284L547.96799,56.284ZM548.47198,49.199997L548.47198,51.16L542.20001,51.16L542.20001,49.199997L538.86801,49.199997L538.86801,51.16L532.84799,51.16L532.84799,54.155998L538.86801,54.155998L538.86801,56.031998L542.20001,56.031998L542.20001,54.155998L548.47198,54.155998L548.47198,55.751999L551.832,55.751999L551.832,54.155998L557.76801,54.155998L557.76801,51.16L551.832,51.16L551.832,49.199997L548.47198,49.199997ZM539.73599,56.115997C539.31601,56.591999,538.784,57.096001,538.2239999999999,57.599998C537.52399,56.956001,536.68399,56.312,535.67599,55.723999L533.492,57.459999C534.47198,58.048,535.2560100000001,58.664001,535.92801,59.335999C534.7239999999999,60.147999,533.4079899999999,60.848,532.0920100000001,61.380001C532.73599,61.939999,533.63199,62.947998,534.07999,63.619999C535.2560100000001,63.087997,536.4599900000001,62.416,537.63599,61.66C537.8879999999999,62.164001,538.08398,62.667999,538.2520099999999,63.200001C536.9359999999999,65.048,534.30399,67.035999,532.0920100000001,67.95999900000001C532.76401,68.548,533.57599,69.639999,534.02399,70.396C535.5640000000001,69.5,537.29999,68.12799799999999,538.7280000000001,66.700001L538.7280000000001,66.924C538.7280000000001,69.52799999999999,538.504,71.26400000000001,537.944,71.992001C537.72,72.272003,537.496,72.412003,537.07599,72.440002C536.48801,72.524002,535.452,72.524002,534.07999,72.440002C534.6399799999999,73.251999,534.97601,74.372002,535.004,75.323997C536.34799,75.379997,537.44,75.351997,538.504,75.127998C539.17599,74.987999,539.76401,74.68,540.1560099999999,74.204002C541.444,72.832001,541.836,70.228001,541.836,67.147999C541.836,64.599998,541.556,62.136002,540.12799,59.84C540.96799,59.139999,541.78,58.383999,542.452,57.599998L539.73599,56.115997ZM571.48801,63.312L571.48801,65.076L560.7919899999999,65.076L560.7919899999999,68.155998L571.48801,68.155998L571.48801,71.683998C571.48801,72.047997,571.34799,72.188004,570.78799,72.188004C570.20001,72.216003,568.12799,72.216003,566.336,72.132004C566.8399999999999,73.028,567.48401,74.428001,567.7080100000001,75.379997C570.0880099999999,75.379997,571.85199,75.323997,573.168,74.848C574.51199,74.372002,574.93201,73.503998,574.93201,71.768002L574.93201,68.155998L585.85199,68.155998L585.85199,65.076L574.93201,65.076L574.93201,64.543999C577.3399999999999,63.396,579.608,61.855999,581.31601,60.287998L579.18799,58.608002L578.48801,58.776001L565.80399,58.776001L565.80399,61.688L574.67999,61.688C573.672,62.304001,572.552,62.891998,571.48801,63.312ZM570.73199,50.068001C571.43201,51.16,572.1600000000001,52.559998,572.552,53.652L567.82001,53.652L568.884,53.147999C568.4359999999999,52.084,567.31601,50.571999,566.336,49.48L563.48001,50.739998C564.17999,51.608002,564.9359999999999,52.699997,565.44,53.652L561.1560099999999,53.652L561.1560099999999,59.84L564.2919899999999,59.84L564.2919899999999,56.619999L582.23999,56.619999L582.23999,59.84L585.5440100000001,59.84L585.5440100000001,53.652L581.4559899999999,53.652C582.23999,52.671997,583.052,51.552002,583.80798,50.459999L580.336,49.396C579.7760000000001,50.683998,578.82401,52.335999,577.92801,53.652L574.26001,53.652L575.9119900000001,53.007999C575.548,51.860001,574.62399,50.18,573.70001,48.947998L570.73199,50.068001ZM608.056,61.323997C607.52399,63.115997,606.7959900000001,64.711998,605.81601,66.16799900000001C604.7520099999999,64.739998,603.9119900000001,63.115997,603.2959900000001,61.351997L601.672,61.771999C602.82001,60.484001,603.96799,59.028,604.86401,57.599998L601.896,56.227997C600.80399,58.076,598.9559899999999,60.344002,597.22,61.716C597.92001,62.220001,598.98401,63.172001,599.5440100000001,63.816002L600.63599,62.807999C601.47601,65.02000000000001,602.48401,67.007999,603.716,68.71600000000001C601.92401,70.507999,599.68399,71.908001,597.02399,72.916C597.668,73.475998,598.67599,74.792,599.12399,75.519997C601.784,74.456001,604.02399,73.028,605.87201,71.26400000000001C607.69199,73.028,609.90399,74.428001,612.5640000000001,75.351997C613.0400099999999,74.400002,614.048,73,614.80399,72.300003C612.172,71.543999,609.93201,70.312,608.1120000000001,68.688C609.39999,66.896,610.4359999999999,64.82399699999999,611.164,62.472C611.444,62.891998,611.69598,63.284,611.86401,63.619999L614.328,61.464001C613.43201,59.924,611.47198,57.795998,609.7080100000001,56.199997L614.13199,56.199997L614.13199,53.119999L606.4599900000001,53.119999L608.2520099999999,52.363998C607.8599899999999,51.383999,606.992,49.956001,606.12399,48.891998L603.12799,50.012001C603.79999,50.907997,604.52802,52.167999,604.92001,53.119999L598.5920100000001,53.119999L598.5920100000001,56.199997L609.0640000000001,56.199997L607.13199,57.823997C608.42001,59.056,609.84799,60.652,610.884,62.052002L608.056,61.323997ZM592.01199,49.199997L592.01199,54.743999L588.67999,54.743999L588.67999,57.851997L591.452,57.851997C590.7520099999999,61.267998,589.38,65.243999,587.784,67.456001C588.31601,68.32400100000001,589.0440100000001,69.86399800000001,589.35199,70.787998C590.3599899999999,69.164001,591.284,66.756001,592.01199,64.152L592.01199,75.491997L595.0920100000001,75.491997L595.0920100000001,63.087997C595.7080100000001,64.43199899999999,596.32401,65.83200099999999,596.6600000000001,66.78399999999999L598.5640000000001,64.292C598.06,63.452,595.7919899999999,59.728001,595.0920100000001,58.748001L595.0920100000001,57.851997L597.892,57.851997L597.892,54.743999L595.0920100000001,54.743999L595.0920100000001,49.199997L592.01199,49.199997ZM209.588001,85.403999L208.804001,83.919998C206.76,84.872002,204.940001,86.832001,204.940001,89.604004C204.940001,91.283997,206.004,92.599998,207.404001,92.599998C208.776001,92.599998,209.588001,91.647995,209.588001,90.528C209.588001,89.379997,208.804001,88.484001,207.628,88.484001C207.376001,88.484001,207.152,88.568001,207.040001,88.624001C207.040001,87.755997,207.908001,86.188004,209.588001,85.403999ZM215.300001,85.403999L214.488001,83.919998C212.444,84.872002,210.624001,86.832001,210.624001,89.604004C210.624001,91.283997,211.688002,92.599998,213.088001,92.599998C214.488001,92.599998,215.272001,91.647995,215.272001,90.528C215.272001,89.379997,214.488001,88.484001,213.34,88.484001C213.060001,88.484001,212.836,88.568001,212.724001,88.624001C212.724001,87.755997,213.592001,86.188004,215.300001,85.403999ZM228.32,84.199997L228.32,88.007996L224.708,88.007996C225.015999,87.084,225.296001,86.160004,225.52,85.292L222.10399999999998,84.619995C221.515999,87.475998,220.172001,91.283997,218.351999,93.580002C219.164,93.888,220.535999,94.559998,221.32,95.092003C222.132,94.028,222.860001,92.683998,223.504002,91.227997L228.32,91.227997L228.32,95.792L217.540001,95.792L217.540001,99.040001L224.176003,99.040001C223.728001,102.736,222.692001,105.900002,217.091999,107.692001C217.848,108.392,218.799999,109.764,219.191999,110.66C225.66,108.196,227.11600099999998,104.024002,227.704002,99.040001L231.792,99.040001L231.792,105.872002C231.792,109.036,232.548,110.072,235.711998,110.072C236.328003,110.072,238.316002,110.072,238.959999,110.072C241.564003,110.072,242.459999,108.868,242.796001,104.416C241.900002,104.164001,240.416,103.632004,239.744003,103.071999C239.632,106.403999,239.49200100000002,106.907997,238.652,106.907997C238.14800300000002,106.907997,236.580002,106.907997,236.188,106.907997C235.32,106.907997,235.18,106.767998,235.18,105.844002L235.18,99.040001L242.54399899999999,99.040001L242.54399899999999,95.792L231.736,95.792L231.736,91.227997L240.332001,91.227997L240.332001,88.007996L231.736,88.007996L231.736,84.199997L228.32,84.199997ZM245.68,86.608002C247.192001,88.035995,249.124001,90.080002,249.964001,91.367996L252.54000100000002,89.239998C251.61600099999998,87.979996,249.599998,86.047997,248.088001,84.731995L245.68,86.608002ZM263.543999,84.984001L263.543999,89.015999L260.352005,89.015999L260.352005,84.956001L257.048004,84.956001L257.048004,89.015999L253.520004,89.015999L253.520004,92.264L257.048004,92.264L257.048004,94.056C257.048004,94.727997,257.048004,95.428001,256.992004,96.155998L253.295998,96.155998L253.295998,99.375999L256.459999,99.375999C255.984001,100.972,255.143997,102.512001,253.66000400000001,103.744003C254.360001,104.192001,255.704002,105.452003,256.18,106.096001C258.251999,104.360001,259.344002,101.895996,259.875999,99.375999L263.543999,99.375999L263.543999,105.676003L266.875999,105.676003L266.875999,99.375999L270.655998,99.375999L270.655998,96.155998L266.875999,96.155998L266.875999,92.264L270.096001,92.264L270.096001,89.015999L266.875999,89.015999L266.875999,84.984001L263.543999,84.984001ZM260.352005,92.264L263.543999,92.264L263.543999,96.155998L260.296005,96.155998C260.324005,95.428001,260.352005,94.755997,260.352005,94.084L260.352005,92.264ZM251.756001,94.391998L245.203999,94.391998L245.203999,97.5L248.452,97.5L248.452,104.360001C247.276001,104.891998,245.931999,105.928001,244.644001,107.272003L246.88399900000002,110.464C247.891998,108.812,249.124001,106.963997,249.964001,106.963997C250.608002,106.963997,251.560001,107.832001,252.848,108.532C254.891998,109.652,257.300003,109.96,260.82800299999997,109.96C263.711998,109.96,268.360001,109.792,270.348,109.68C270.375999,108.728,270.936005,107.075996,271.300003,106.18C268.5,106.599998,263.936005,106.823997,260.968002,106.823997C257.832001,106.823997,255.25599699999998,106.683998,253.35199699999998,105.592003C252.708,105.255997,252.17600299999998,104.919998,251.756001,104.639999L251.756001,94.391998ZM290.452,84.227997L290.452,86.328003L281.632004,86.328003L281.632004,84.199997L278.272003,84.199997L278.272003,86.328003L274.407997,86.328003L274.407997,89.043999L278.272003,89.043999L278.272003,97.444L272.896004,97.444L272.896004,100.188004L278.300003,100.188004C276.760002,101.671997,274.716003,102.959999,272.643997,103.716003C273.344002,104.332001,274.323997,105.508003,274.800003,106.264C276.367996,105.564003,277.907997,104.584,279.279999,103.379997L279.279999,105.171997L284.236,105.171997L284.236,106.991997L275.416,106.991997L275.416,109.736L296.86400000000003,109.736L296.86400000000003,106.991997L287.652,106.991997L287.652,105.171997L292.776,105.171997L292.776,103.099998C294.12,104.304001,295.65999999999997,105.311996,297.2,106.012001C297.676,105.227997,298.68399999999997,104.024002,299.41200000000003,103.435997C297.424,102.736,295.464,101.531998,293.924,100.188004L299.104,100.188004L299.104,97.444L293.896,97.444L293.896,89.043999L297.73199999999997,89.043999L297.73199999999997,86.328003L293.896,86.328003L293.896,84.227997L290.452,84.227997ZM281.632004,89.043999L290.452,89.043999L290.452,90.248001L281.632004,90.248001L281.632004,89.043999ZM281.632004,92.599998L290.452,92.599998L290.452,93.832001L281.632004,93.832001L281.632004,92.599998ZM281.632004,96.183998L290.452,96.183998L290.452,97.444L281.632004,97.444L281.632004,96.183998ZM284.236,100.748001L284.236,102.512001L280.204002,102.512001C280.959999,101.783997,281.632004,101,282.192001,100.188004L290.144,100.188004C290.73199999999997,101,291.404,101.783997,292.15999999999997,102.512001L287.652,102.512001L287.652,100.748001L284.236,100.748001ZM308.652,95.176003L308.652,98.059998L324.584,98.059998L324.584,95.176003L308.652,95.176003ZM306.58,88.231995L321.868,88.231995L321.868,90.584L306.58,90.584L306.58,88.231995ZM303.192,85.403999L303.192,93.692001C303.192,98.087997,302.996,104.444,300.58799999999997,108.756C301.428,109.064,302.94,109.876,303.61199999999997,110.436C306.188,105.788002,306.58,98.507996,306.58,93.664001L306.58,93.440002L325.256,93.440002L325.256,85.403999L303.192,85.403999ZM319.06799,104.192001L320.41200000000003,106.431999L312.432,106.935997C313.44,105.732002,314.42,104.360001,315.26,102.987999L322.036,102.987999L319.06799,104.192001ZM308.70799999999997,110.408C309.8,110.016,311.34000000000003,109.876,321.868,109.036C322.20399,109.708,322.51198999999997,110.324,322.73599,110.828L325.92801,109.372C325.08799999999997,107.720001,323.35201,104.975998,322.036,102.987999L326.48801000000003,102.987999L326.48801000000003,100.075996L307.11199999999997,100.075996L307.11199999999997,102.987999L311.144,102.987999C310.332,104.528,309.408,105.844002,309.044,106.264C308.512,106.907997,308.008,107.356003,307.504,107.468002C307.896,108.308,308.512,109.792,308.70799999999997,110.408ZM337.464,96.744003L346.39599999999996,96.744003L346.39599999999996,99.543999L337.464,99.543999L337.464,96.744003ZM334.076,93.776001L334.076,102.484001L337.04400999999996,102.484001C336.28799000000004,104.891998,334.496,106.487999,328.952,107.412003C329.65199,108.14,330.49199999999996,109.596,330.8,110.464C337.65999999999997,108.98,339.84398999999996,106.348,340.71200999999996,102.484001L343.17599,102.484001L343.17599,106.208C343.17599,109.316,343.96001,110.296,347.26401,110.296C347.93600000000004,110.296,350.31599,110.296,351.01601,110.296C353.64799,110.296,354.54400999999996,109.26,354.93600000000004,105.227997C354.01198999999997,105.003998,352.584,104.472,351.884,103.940002C351.772,106.767998,351.60400000000004,107.160004,350.67999,107.160004C350.092,107.160004,348.188,107.160004,347.74001,107.160004C346.70399,107.160004,346.536,107.047997,346.536,106.18L346.536,102.484001L349.98,102.484001L349.98,93.776001L334.076,93.776001ZM348.664,84.535995C348.15999999999997,85.963997,347.15201,87.839996,346.312,89.155998L343.65201,89.155998L343.65201,84.199997L340.20801,84.199997L340.20801,89.155998L336.28799000000004,89.155998L337.884,88.203995C337.38,87.112,336.23199,85.571999,335.168,84.423996L332.34000000000003,85.935997C333.15199,86.888,333.99199999999996,88.119995,334.524,89.155998L329.48399,89.155998L329.48399,95.82L332.73199,95.82L332.73199,92.152L351.26801,92.152L351.26801,95.82L354.65601000000004,95.82L354.65601000000004,89.155998L349.84000000000003,89.155998C350.59601,88.091995,351.43600000000004,86.804001,352.248,85.543999L348.664,84.535995ZM357.25999,105.816002L357.84801,109.008C360.56399999999996,108.28,364.00800000000004,107.384003,367.312,106.459999L366.948,103.688004C363.392,104.5,359.696,105.367996,357.25999,105.816002ZM369.3,85.599998L369.3,106.963997L366.836,106.963997L366.836,109.988L383.076,109.988L383.076,106.963997L380.836,106.963997L380.836,85.599998L369.3,85.599998ZM372.49199999999996,106.963997L372.49199999999996,102.736L377.504,102.736L377.504,106.963997L372.49199999999996,106.963997ZM372.49199999999996,95.652L377.504,95.652L377.504,99.795998L372.49199999999996,99.795998L372.49199999999996,95.652ZM372.49199999999996,92.655998L372.49199999999996,88.624001L377.504,88.624001L377.504,92.655998L372.49199999999996,92.655998ZM357.96001,96.435997C358.408,96.211998,359.108,96.015999,361.82401,95.708C360.81599,97.136002,359.91999999999996,98.199997,359.472,98.676003C358.548,99.683998,357.90400999999997,100.300003,357.20399,100.468002C357.53999,101.251999,358.01601,102.652,358.15601000000004,103.267998C358.91200000000003,102.848,360.08799999999997,102.512001,367.39599999999996,101.112C367.34000000000003,100.468002,367.368,99.236,367.48,98.395996L362.496,99.236C364.45599000000004,96.968002,366.38800000000003,94.307999,367.95599000000004,91.675995L365.38,90.024002C364.87601,91.003998,364.31599,91.984001,363.728,92.907997L360.95599000000004,93.132004C362.58000000000004,90.863998,364.14799,88.119995,365.26801,85.515999L362.272,84.087997C361.20801,87.391998,359.248,90.919998,358.632,91.788002C357.98801000000003,92.711998,357.51198999999997,93.300003,356.924,93.440002C357.28799000000004,94.279999,357.79201,95.82,357.96001,96.435997ZM384.89599999999996,106.096001L385.51198999999997,109.4C388.256,108.7,391.784,107.804001,395.144,106.935997L394.808,104.024002C391.168,104.835999,387.38800000000003,105.620003,384.89599999999996,106.096001ZM399.37199,89.183998L405.924,89.183998L405.924,96.155998L399.37199,96.155998L399.37199,89.183998ZM396.03999,85.991997L396.03999,99.348L409.424,99.348L409.424,85.991997L396.03999,85.991997ZM404.10400000000004,102.568001C405.58799999999997,105.059998,407.10001,108.308,407.632,110.352L411.02,109.064C410.43201,106.991997,408.752,103.856003,407.24001,101.475998L404.10400000000004,102.568001ZM397.776,101.615997C397.02,104.248001,395.62,106.907997,393.828,108.532C394.668,108.98,396.17999,109.932,396.82401,110.492C398.644,108.56,400.35201,105.480003,401.304,102.372002L397.776,101.615997ZM385.73599,96.772003C386.18401,96.575996,386.856,96.407997,389.46001,96.099998C388.48,97.416,387.668,98.451996,387.22,98.900002C386.29601,99.935997,385.67999,100.524002,384.952,100.692001C385.28799000000004,101.531998,385.79201,102.987999,385.96001,103.604004C386.716,103.183998,387.892,102.848,395.06,101.475998C395.004,100.776001,395.06,99.459999,395.144,98.564003L390.46799999999996,99.348C392.39999,97.108002,394.22,94.531998,395.73199,91.956001L393.04400999999996,90.248001C392.53999,91.283997,391.952,92.292,391.336,93.272003L388.78799000000004,93.468002C390.44,91.199997,392.06399999999996,88.400002,393.18401,85.739998L389.964,84.255997C388.95599000000004,87.531998,386.996,91.059998,386.35201,91.956001C385.73599,92.879997,385.23199,93.468002,384.644,93.636002C385.036,94.503998,385.56799,96.127998,385.73599,96.772003ZM418.41200000000003,91.339996L419.196,92.795998C421.24001,91.872002,423.06,89.912003,423.06,87.139999C423.06,85.431999,421.996,84.115997,420.59601,84.115997C419.224,84.115997,418.41200000000003,85.096001,418.41200000000003,86.188004C418.41200000000003,87.335999,419.196,88.231995,420.37199,88.231995C420.62399,88.231995,420.84801,88.175995,420.96001,88.091995C420.96001,88.987999,420.092,90.528,418.41200000000003,91.339996ZM412.7,91.339996L413.51198999999997,92.795998C415.55600000000004,91.872002,417.37601,89.912003,417.37601,87.139999C417.37601,85.431999,416.312,84.115997,414.91200000000003,84.115997C413.51198999999997,84.115997,412.728,85.096001,412.728,86.188004C412.728,87.335999,413.51198999999997,88.231995,414.65999999999997,88.231995C414.94,88.231995,415.164,88.175995,415.276,88.091995C415.276,88.987999,414.408,90.528,412.7,91.339996ZM442.12801,91.255997L442.12801,96.744003L445.29199,96.744003L445.29199,94.139999L462.56799,94.139999L462.56799,96.744003L465.92801,96.744003L465.92801,91.255997L442.12801,91.255997ZM456.91199,84.199997L456.91199,85.879997L451.03201,85.879997L451.03201,84.199997L447.70001,84.199997L447.70001,85.879997L441.59599000000003,85.879997L441.59599000000003,88.82L447.70001,88.82L447.70001,90.639999L451.03201,90.639999L451.03201,88.82L456.91199,88.82L456.91199,90.639999L460.24399,90.639999L460.24399,88.82L466.45999,88.82L466.45999,85.879997L460.24399,85.879997L460.24399,84.199997L456.91199,84.199997ZM452.29199,94.727997L452.29199,97.639999L441.76401,97.639999L441.76401,100.636002L450.47198,100.636002C448.12,103.267998,444.452,105.564003,440.728,106.767998C441.45599000000004,107.412003,442.464,108.7,442.96799999999996,109.54C446.44,108.168,449.79999,105.760002,452.29199,102.848L452.29199,110.464L455.59601,110.464L455.59601,102.68C458.08801,105.648003,461.448,108.168,464.948,109.568C465.452,108.672,466.48801,107.356003,467.272,106.655998C463.57599,105.480003,459.90799,103.211998,457.58398,100.636002L466.26401,100.636002L466.26401,97.639999L455.59601,97.639999L455.59601,94.727997L452.29199,94.727997ZM473.54401,101.167999L473.54401,103.071999L490.67999,103.071999L490.67999,101.167999L473.54401,101.167999ZM473.54401,98.283997L473.54401,100.188004L490.67999,100.188004L490.67999,98.283997L473.54401,98.283997ZM472.84399,103.996002L472.84399,110.492L476.008,110.492L476.008,109.708L487.936,109.708L487.936,110.492L491.21201,110.492L491.21201,103.996002L472.84399,103.996002ZM476.008,107.524002L476.008,106.18L487.936,106.18L487.936,107.524002L476.008,107.524002ZM488.776,84.395996C488.16,85.599998,487.04001,87.223999,486.14401,88.288002L486.98401,88.652L482,88.652L483.87601,87.895996C483.51199,86.860001,482.616,85.375999,481.74799,84.311996L478.892,85.403999C479.59201,86.384003,480.29199,87.671997,480.65601,88.652L475.81201,88.652L477.15601,88.035995C476.70801,87.028,475.64401,85.599998,474.69199,84.619995L471.892,85.879997C472.62,86.692001,473.37601,87.755997,473.85199,88.652L469.34399,88.652L469.34399,91.423996L475.02802,91.423996C473.40399,93.244003,471.07999,94.839996,468.70001,95.736C469.39999,96.323997,470.35199,97.5,470.828,98.283997C471.47198,98.003998,472.08801,97.667999,472.70401,97.304001L491.436,97.304001L491.436,97.136002C492.02399,97.444,492.612,97.723999,493.228,97.947998C493.70401,97.136002,494.68399,95.931999,495.384,95.288002C492.892,94.503998,490.51199,93.103996,488.85999,91.423996L494.65601,91.423996L494.65601,88.652L489.58801,88.652C490.39999,87.783997,491.29599,86.720001,492.164,85.655998L488.776,84.395996ZM479.48001,93.019997C479.81601,93.636002,480.15201,94.419998,480.45999,95.148003L475.58801,95.148003C476.82001,94.028,477.91199,92.767998,478.75201,91.423996L485.164,91.423996C486.06,92.795998,487.20801,94.056,488.496,95.148003L483.87601,95.148003C483.54001,94.279999,482.952,93.132004,482.448,92.236L479.48001,93.019997ZM509.46799,95.484001C508.96399,98.816002,507.95599,102.232002,506.5,104.360001C507.25601,104.723999,508.60001,105.536003,509.18799,106.040001C510.70001,103.632004,511.90399,99.823997,512.57599,96.043999L509.46799,95.484001ZM517.672,96.043999C518.76401,99.124001,519.828,103.183998,520.13599,105.844002L523.216,104.863998C522.82401,102.176003,521.76001,98.255997,520.556,95.148003L517.672,96.043999ZM510.53201,84.283997C509.888,87.475998,508.73999,90.695999,507.20001,92.907997L507.20001,92.124001L504.03601,92.124001L504.03601,88.175995C505.38,87.867996,506.668,87.475998,507.81601,87.056L505.96799,84.367996C503.728,85.32,500.284,86.160004,497.20401,86.664001C497.54001,87.391998,497.95999,88.512001,498.07199,89.211998C498.996,89.099998,500.004,88.959999,500.98401,88.792L500.98401,92.124001L497.20401,92.124001L497.20401,95.260002L500.59201,95.260002C499.612,98.003998,498.07199,101,496.53201,102.82C497.03601,103.575996,497.73599,104.891998,498.04401,105.788002C499.07999,104.388,500.116,102.428001,500.98401,100.300003L500.98401,110.52L504.03601,110.52L504.03601,99.208C504.73599,100.300003,505.436,101.475998,505.79999,102.260002L507.62,99.571999C507.14401,98.928001,504.79199,96.547997,504.03601,95.875999L504.03601,95.260002L507.20001,95.260002L507.20001,93.888C507.98401,94.335999,508.96399,94.979996,509.46799,95.372002C510.36401,94.139999,511.20401,92.543999,511.93201,90.751999L513.6120000000001,90.751999L513.6120000000001,106.823997C513.6120000000001,107.216003,513.47198,107.328003,513.108,107.328003C512.716,107.328003,511.48401,107.328003,510.36401,107.272003C510.81201,108.112,511.34399,109.512,511.48401,110.408C513.30402,110.408,514.67599,110.296,515.62799,109.82C516.63599,109.288,516.91602,108.448,516.91602,106.851997L516.91602,90.751999L519.21201,90.751999C518.84799,91.647995,518.4559899999999,92.571999,518.0640000000001,93.384003L520.97601,94.112C521.73199,92.264,522.57199,90.080002,523.2439899999999,88.063995L521.14401,87.531998L520.668,87.643997L513.02399,87.643997C513.2760000000001,86.748001,513.52802,85.851997,513.7239999999999,84.928001L510.53201,84.283997ZM532.17599,88.119995L543.60001,88.119995L543.60001,90.723999L532.17599,90.723999L532.17599,88.119995ZM528.81601,85.18L528.81601,93.636002L547.18399,93.636002L547.18399,85.18L528.81601,85.18ZM525.48401,95.400002L525.48401,98.423996L530.7479900000001,98.423996C530.18799,100.272003,529.51599,102.204002,528.92801,103.575996L543.2919899999999,103.575996C542.92801,105.592003,542.508,106.711998,541.97601,107.103996C541.6120000000001,107.328003,541.2479900000001,107.356003,540.63199,107.356003C539.76401,107.356003,537.69199,107.328003,535.81601,107.160004C536.43201,108.056,536.9359999999999,109.4,536.992,110.352C538.92401,110.464,540.7719999999999,110.436,541.836,110.38C543.15201,110.296,544.07599,110.1,544.91602,109.316C545.92401,108.364,546.59601,106.264,547.1560099999999,101.923996C547.23999,101.475998,547.32401,100.524002,547.32401,100.524002L533.85599,100.524002L534.52802,98.423996L550.40399,98.423996L550.40399,95.400002L525.48401,95.400002ZM557.40399,101.056C554.94,101.056,552.896,103.099998,552.896,105.592003C552.896,108.084,554.94,110.128,557.40399,110.128C559.92401,110.128,561.94,108.084,561.94,105.592003C561.94,103.099998,559.92401,101.056,557.40399,101.056ZM557.40399,108.112C556.06,108.112,554.9119900000001,106.991997,554.9119900000001,105.592003C554.9119900000001,104.192001,556.06,103.071999,557.40399,103.071999C558.80399,103.071999,559.92401,104.192001,559.92401,105.592003C559.92401,106.991997,558.80399,108.112,557.40399,108.112Z" fill="#FFFFFF" fill-opacity="1"/></g></g></g><g><ellipse cx="9.5" cy="29.5" rx="9.5" ry="9.5" fill="#FFFFFF" fill-opacity="1"/></g></g></svg>