<svg xmlns="http://www.w3.org/2000/svg" xmlns:xlink="http://www.w3.org/1999/xlink" fill="none" version="1.1" width="647" height="100" viewBox="0 0 647 100"><g><g><g><g><rect x="27" y="14" width="124" height="58" rx="10" fill="#0056AD" fill-opacity="1"/></g><g><path d="M43.204,56L57.092,56L57.092,52.528L52.612,52.528C51.632,52.528,50.2600002,52.639999,49.1960001,52.779999C52.976001,49.056,56.112,45.023998,56.112,41.271999C56.112,37.407997,53.507999999999996,34.888,49.5880003,34.888C46.7600002,34.888,44.9120002,35.98,42.98000002,38.052002L45.275999999999996,40.264C46.3120003,39.115997,47.5440001,38.136002,49.0560002,38.136002C51.044000600000004,38.136002,52.164001,39.424,52.164001,41.467999C52.164001,44.688,48.8600001,48.580002,43.204,53.619999L43.204,56ZM66.780001,56.391998C71.007999,56.391998,73.808001,52.695999,73.808001,45.528C73.808001,38.416,71.007999,34.888,66.780001,34.888C62.552,34.888,59.752001,38.388,59.752001,45.528C59.752001,52.695999,62.552,56.391998,66.780001,56.391998ZM66.780001,53.172001C64.988001,53.172001,63.644001,51.380001,63.644001,45.528C63.644001,39.760002,64.988001,38.052002,66.780001,38.052002C68.572001,38.052002,69.888,39.760002,69.888,45.528C69.888,51.380001,68.572001,53.172001,66.780001,53.172001ZM76.243999,56L90.132,56L90.132,52.528L85.652,52.528C84.672001,52.528,83.300003,52.639999,82.23599999999999,52.779999C86.016003,49.056,89.152,45.023998,89.152,41.271999C89.152,37.407997,86.548,34.888,82.62800200000001,34.888C79.800003,34.888,77.952,35.98,76.02000000000001,38.052002L78.316002,40.264C79.352001,39.115997,80.584,38.136002,82.096001,38.136002C84.084,38.136002,85.204002,39.424,85.204002,41.467999C85.204002,44.688,81.900002,48.580002,76.243999,53.619999L76.243999,56ZM99.82,56.391998C104.048,56.391998,106.848,52.695999,106.848,45.528C106.848,38.416,104.048,34.888,99.82,34.888C95.592003,34.888,92.792,38.388,92.792,45.528C92.792,52.695999,95.592003,56.391998,99.82,56.391998ZM99.82,53.172001C98.02799999999999,53.172001,96.68400199999999,51.380001,96.68400199999999,45.528C96.68400199999999,39.760002,98.02799999999999,38.052002,99.82,38.052002C101.612,38.052002,102.928001,39.760002,102.928001,45.528C102.928001,51.380001,101.612,53.172001,99.82,53.172001ZM109.200005,49.279999L109.200005,52.5L121.884003,52.5L121.884003,58.52L125.356003,58.52L125.356003,52.5L134.96000700000002,52.5L134.96000700000002,49.279999L125.356003,49.279999L125.356003,45.052002L132.776001,45.052002L132.776001,41.916L125.356003,41.916L125.356003,38.528L133.44799799999998,38.528L133.44799799999998,35.279999L117.544006,35.279999C117.880005,34.524002,118.188004,33.767998,118.468002,32.984001L115.024002,32.087997C113.82,35.755997,111.636002,39.34,109.116005,41.495998C109.956001,42,111.384003,43.091999,112.028,43.68C113.372002,42.335999,114.688004,40.543999,115.863998,38.528L121.884003,38.528L121.884003,41.916L113.652,41.916L113.652,49.279999L109.200005,49.279999ZM117.012001,49.279999L117.012001,45.052002L121.884003,45.052002L121.884003,49.279999L117.012001,49.279999Z" fill="#FFFFFF" fill-opacity="1"/></g></g><g><g><rect x="169" y="14" width="478" height="86" rx="10" fill="#CB8F00" fill-opacity="1"/></g><g><path d="M195.5880003,35.2799988C197.3520002,36.455999,198.780001,37.939999,199.984,39.619999C198.332001,47.040001000000004,194.888,52.472,188.89600003,55.440000999999995C189.7920001,56.084,191.3600001,57.483999,191.9760001,58.183998C197.0440006,55.188,200.516001,50.455999,202.728001,44.043999C205.584,49.307998999999995,207.992001,55.048,213.76,58.268002C213.95600100000001,57.232,214.852001,55.327999,215.384001,54.403999C206.34,48.691998999999996,206.648001,38.891999999999996,197.6880007,32.368L195.5880003,35.2799988ZM217.232,34.8879986C218.771999,36.26,220.647999,38.219999,221.431999,39.563999L224.204002,37.463999C223.307999,36.119999,221.375999,34.2719994,219.780001,33.0119991L217.232,34.8879986ZM227.816002,33.0679989C227.172001,35.5039997,225.968002,37.967999,224.45600100000001,39.507999C225.211998,39.9,226.584,40.768,227.200001,41.299999C227.844002,40.544,228.459999,39.591999,229.048,38.556L232.52,38.556L232.52,41.804L224.875999,41.804L224.875999,44.716L229.468002,44.716C229.076,47.459998999999996,228.068001,49.643999,224.288002,51.015999C225.04399899999999,51.66,225.940002,52.948,226.304001,53.788C231.00799899999998,51.827999,232.324001,48.664,232.884003,44.716L234.676003,44.716L234.676003,49.643999C234.676003,52.611999999999995,235.236,53.591999,237.924,53.591999C238.428001,53.591999,239.52,53.591999,240.05200200000002,53.591999C242.096001,53.591999,242.936001,52.639999,243.27200299999998,48.888000000000005C242.348,48.664,240.94799799999998,48.132000000000005,240.332001,47.599998C240.248001,50.147999,240.136002,50.511999,239.688004,50.511999C239.464001,50.511999,238.68,50.511999,238.512001,50.511999C238.036003,50.511999,238.008003,50.427999,238.008003,49.615999L238.008003,44.716L242.852001,44.716L242.852001,41.804L235.852001,41.804L235.852001,38.556L241.704002,38.556L241.704002,35.7279987L235.852001,35.7279987L235.852001,32.368L232.52,32.368L232.52,35.7279987L230.33599900000002,35.7279987C230.588001,35.0839996,230.812,34.439998599999996,230.98,33.767999599999996L227.816002,33.0679989ZM223.61600099999998,43.007999L217.288,43.007999L217.288,46.115999L220.39600000000002,46.115999L220.39600000000002,53.312C219.248001,53.927999,218.044001,54.851999,216.89600000000002,55.860001L219.136,58.799999C220.619999,57.035999000000004,222.188,55.412001000000004,223.223999,55.412001000000004C223.84,55.412001000000004,224.708,56.224001,225.855999,56.924C227.732002,57.988001,229.972,58.324001,233.276001,58.324001C236.02,58.324001,240.248001,58.183998,242.32,58.043999C242.348,57.148001,242.880001,55.468,243.216003,54.572001C240.5,54.964000999999996,236.16,55.216,233.360001,55.216C230.448002,55.216,228.040001,55.048,226.276001,53.983999C225.04399899999999,53.256001,224.372002,52.584,223.61600099999998,52.416L223.61600099999998,43.007999ZM247.16400099999998,49.700001C246.632,51.212,245.764,52.808001000000004,244.728001,53.872C245.344002,54.263999999999996,246.408001,55.048,246.911999,55.468C248.004002,54.208,249.096001,52.219999,249.768002,50.372L247.16400099999998,49.700001ZM253.912003,50.652C254.695999,51.940000999999995,255.64800300000002,53.732,256.096001,54.851999L258.363998,53.480000000000004C258.056,54.431999000000005,257.636002,55.356001,257.10400400000003,56.167998999999995C257.80400099999997,56.532,259.148003,57.568000999999995,259.68,58.155998C262.115997,54.628,262.451996,48.888000000000005,262.451996,44.771999L262.451996,44.576L265.223999,44.576L265.223999,58.380001L268.472,58.380001L268.472,44.576L271.10400400000003,44.576L271.10400400000003,41.467999L262.451996,41.467999L262.451996,37.071999C265.223999,36.567999,268.136002,35.8400002,270.459999,34.9440002L267.856003,32.4519997C265.811996,33.4039993,262.423996,34.3279991,259.344002,34.8879986L259.344002,44.771999C259.344002,47.431999000000005,259.260002,50.652,258.363998,53.424C257.88800000000003,52.332001000000005,256.964005,50.68,256.096001,49.448L253.912003,50.652ZM249.655998,37.716L253.828003,37.716C253.548004,38.751999,253.04399899999999,40.207999,252.62400100000002,41.243999L249.32,41.243999L250.66400099999998,40.879999C250.524002,40.011999,250.16,38.695999,249.655998,37.716ZM249.459999,32.7600002C249.740002,33.4319992,250.048,34.2439995,250.299999,35L245.484001,35L245.484001,37.716L249.292,37.716L246.967999,38.275999C247.360001,39.171999,247.667999,40.348,247.807999,41.243999L245.063999,41.243999L245.063999,43.987999L250.411999,43.987999L250.411999,46.144001L245.231998,46.144001L245.231998,48.972L250.411999,48.972L250.411999,54.936001000000005C250.411999,55.216,250.327999,55.299999,250.02,55.299999C249.71200199999998,55.299999,248.816002,55.299999,247.976002,55.271999C248.368,56.056,248.760002,57.232,248.872002,58.015999C250.38399900000002,58.015999,251.504002,57.988001,252.344002,57.540001000000004C253.211998,57.063998999999995,253.435997,56.336,253.435997,54.992001L253.435997,48.972L258.084,48.972L258.084,46.144001L253.435997,46.144001L253.435997,43.987999L258.559998,43.987999L258.559998,41.243999L255.620003,41.243999C256.012001,40.348,256.459999,39.255999,256.879997,38.164L254.47199999999998,37.716L258.11199999999997,37.716L258.11199999999997,35L253.66000400000001,35C253.35199699999998,34.076000199999996,252.87599899999998,32.9279995,252.45600100000001,32.0599995L249.459999,32.7600002ZM284.851997,44.015999C286.19599900000003,46.059999000000005,288.016,48.832001000000005,288.828,50.455999L291.82401,48.719999C290.9,47.124001,288.996,44.492001,287.624001,42.559999000000005L284.851997,44.015999ZM280.372002,45.219999L280.372002,50.316L276.98400100000003,50.316L276.98400100000003,45.219999L280.372002,45.219999ZM280.372002,42.279999000000004L276.98400100000003,42.279999000000004L276.98400100000003,37.407999000000004L280.372002,37.407999000000004L280.372002,42.279999000000004ZM273.848,34.4119987L273.848,55.552L276.98400100000003,55.552L276.98400100000003,53.312L283.50800300000003,53.312L283.50800300000003,34.4119987L273.848,34.4119987ZM292.916,32.3959999L292.916,37.379999L284.543999,37.379999L284.543999,40.712L292.916,40.712L292.916,54.011999C292.916,54.572001,292.692,54.768,292.076,54.768C291.46,54.768,289.38800000000003,54.768,287.428001,54.684C287.931999,55.635999999999996,288.464,57.148001,288.604,58.071999C291.404,58.099998,293.392,58.015999,294.624,57.483999C295.884,56.952,296.332,56.056,296.332,54.040001000000004L296.332,40.712L299.188,40.712L299.188,37.379999L296.332,37.379999L296.332,32.3959999L292.916,32.3959999ZM320.048,33.991998699999996C321.504,35.3920002,323.18401,37.379999,323.884,38.667999L326.60001,36.959998999999996C325.78799000000004,35.6439991,324.024,33.7399998,322.56799,32.4239998L320.048,33.991998699999996ZM314.756,32.647998799999996C314.84000000000003,35.6159992,314.98,38.359999,315.204,40.908L309.52,41.664L309.996,44.883999L315.512,44.127998000000005C316.548,52.723999,318.73199,58.015999,323.52,58.436001C325.08799999999997,58.548,326.62801,57.260000000000005,327.328,51.827999C326.71200999999996,51.492001,325.228,50.624001,324.584,49.896C324.36,53.004000000000005,324.024,54.431999000000005,323.38,54.375999C321.11199999999997,54.068000999999995,319.65601000000004,49.924,318.87199,43.68L327.02,42.559999000000005L326.54400999999996,39.396L318.536,40.459998999999996C318.34000000000003,38.052,318.228,35.420000099999996,318.172,32.647998799999996L314.756,32.647998799999996ZM307.952,32.4519997C306.244,36.68,303.304,40.823999,300.252,43.427999C300.84000000000003,44.239999999999995,301.82,46.032,302.128,46.844C303.13599999999997,45.92,304.116,44.855999,305.068,43.68L305.068,58.464001L308.54,58.464001L308.54,38.639999C309.548,36.959998999999996,310.444,35.1959991,311.172,33.487999L307.952,32.4519997ZM346.452,32.4239998L346.452,37.323999L337.632,37.323999L337.632,32.4239998L334.02,32.4239998L334.02,37.323999L329.036,37.323999L329.036,40.683999L334.02,40.683999L334.02,58.52L337.632,58.52L337.632,56.812L346.452,56.812L346.452,58.296001L350.14799,58.296001L350.14799,40.683999L354.93600000000004,40.683999L354.93600000000004,37.323999L350.14799,37.323999L350.14799,32.4239998L346.452,32.4239998ZM337.632,40.683999L346.452,40.683999L346.452,45.444L337.632,45.444L337.632,40.683999ZM337.632,53.480000000000004L337.632,48.719999L346.452,48.719999L346.452,53.480000000000004L337.632,53.480000000000004ZM377.756,45.948L377.756,58.240002L380.91999999999996,58.240002L380.91999999999996,45.948L377.756,45.948ZM360.004,45.948L360.004,48.383999C360.004,50.903999,359.668,54.040001000000004,356.84000000000003,56.504000000000005C357.65199,56.952,358.856,57.903999,359.416,58.52C362.63599999999997,55.608000000000004,363,51.66,363,48.495999999999995L363,45.948L360.004,45.948ZM364.82001,47.012001C364.56799,49.391999999999996,364.14799,51.968,363.41999999999996,53.648001C364.12,53.955999,365.35201,54.544001,365.94,54.936001000000005C366.724,53.087998999999996,367.312,50.204,367.62,47.487999L364.82001,47.012001ZM372.43600000000004,47.403999C373.08000000000004,49.672001,373.696,52.667998999999995,373.892,54.431999000000005L376.804,53.844C376.58000000000004,52.08,375.88,49.167998999999995,375.17999,46.927999L372.43600000000004,47.403999ZM376.776,40.823999L376.776,42.195999L371.76401,42.195999L371.76401,40.823999L376.776,40.823999ZM368.37601,32.1999989L368.37601,34.2999992L360.2,34.2999992L360.2,37.043999L368.37601,37.043999L368.37601,38.359999L357.51198999999997,38.359999L357.51198999999997,40.823999L368.37601,40.823999L368.37601,42.195999L360.2,42.195999L360.2,44.939999L368.37601,44.939999L368.37601,58.324001L371.76401,58.324001L371.76401,44.939999L380.44399999999996,44.939999L380.44399999999996,40.823999L382.76801,40.823999L382.76801,38.359999L380.44399999999996,38.359999L380.44399999999996,34.2999992L371.76401,34.2999992L371.76401,32.1999989L368.37601,32.1999989ZM376.776,38.359999L371.76401,38.359999L371.76401,37.043999L376.776,37.043999L376.776,38.359999ZM390.72,33.6560001C389.71200999999996,36.063999,387.91999999999996,38.472,385.98801000000003,39.955999C386.8,40.403999,388.2,41.327999,388.87199,41.915999C390.748,40.151999,392.79199,37.351999,394.024,34.552L390.72,33.6560001ZM396.17999,32.2279987L396.17999,41.467999C392.79199,42.784,388.73199,43.624001,384.56,44.127998000000005C385.20399,44.827999,386.21200999999996,46.284,386.632,47.040001000000004C387.696,46.872,388.73199,46.675999000000004,389.79601,46.452L389.79601,58.52L393.04400999999996,58.52L393.04400999999996,57.455999L404.15999999999997,57.455999L404.15999999999997,58.380001L407.548,58.380001L407.548,43.931999000000005L398.11199999999997,43.931999000000005C401.192,42.644001,403.908,40.964,405.89599999999996,38.779999000000004C406.76401,39.76,407.52,40.74,407.96799999999996,41.551999L410.88,39.703998999999996C409.64799,37.799999,407.01601,35.1959991,404.832,33.4039993L402.144,35.0279999C403.32001,36.063999,404.58000000000004,37.296,405.672,38.528L402.78799000000004,37.24C401.91999999999996,38.247999,400.8,39.115999,399.48399,39.9L399.48399,32.2279987L396.17999,32.2279987ZM393.04400999999996,49.980000000000004L404.15999999999997,49.980000000000004L404.15999999999997,51.351999L393.04400999999996,51.351999L393.04400999999996,49.980000000000004ZM393.04400999999996,47.712L393.04400999999996,46.452L404.15999999999997,46.452L404.15999999999997,47.712L393.04400999999996,47.712ZM393.04400999999996,53.619999L404.15999999999997,53.619999L404.15999999999997,54.964000999999996L393.04400999999996,54.964000999999996L393.04400999999996,53.619999ZM420.62399,40.964L431.51601,40.964L431.51601,42.504000000000005L420.62399,42.504000000000005L420.62399,40.964ZM417.26401,38.723999L417.26401,44.743999L435.04400999999996,44.743999L435.04400999999996,38.723999L417.26401,38.723999ZM423.67599,32.8439999L424.34801,34.8319988L413.53999,34.8319988L413.53999,37.66L438.37601,37.66L438.37601,34.8319988L428.26801,34.8319988L427.14799,32.0039997L423.67599,32.8439999ZM419.7,49.643999L419.7,57.063998999999995L422.808,57.063998999999995L422.808,55.916L430.84398999999996,55.916C431.23599,56.587998999999996,431.65601000000004,57.568000999999995,431.79601,58.296001C433.784,58.296001,435.26801,58.296001,436.304,57.931999000000005C437.368,57.512001,437.73199,56.896,437.73199,55.440000999999995L437.73199,45.863997999999995L414.29601,45.863997999999995L414.29601,58.492001L417.57201,58.492001L417.57201,48.608000000000004L434.34398999999996,48.608000000000004L434.34398999999996,55.412001000000004C434.34398999999996,55.775999,434.17599,55.888000000000005,433.784,55.888000000000005L431.93600000000004,55.888000000000005L431.93600000000004,49.643999L419.7,49.643999ZM422.808,51.968L428.996,51.968L428.996,53.591999L422.808,53.591999L422.808,51.968ZM445.992,53.115999C447.58801,54.32,449.40799,56.084,450.22,57.344L452.79599,55.243999C452.09601,54.236000000000004,450.75201,52.976,449.40799,51.968L457.75201,51.968L457.75201,54.964000999999996C457.75201,55.299999,457.612,55.412001000000004,457.164,55.412001000000004C456.68799,55.412001000000004,455.008,55.412001000000004,453.57999,55.356001C454.056,56.224001,454.616,57.540001000000004,454.81201,58.492001C456.91199,58.492001,458.508,58.464001,459.68399,57.988001C460.888,57.483999,461.224,56.672001,461.224,55.048L461.224,51.968L465.98401,51.968L465.98401,49.139999L461.224,49.139999L461.224,47.459998999999996L466.82401,47.459998999999996L466.82401,44.632000000000005L455.70801,44.632000000000005L455.70801,43.007999L464.22,43.007999L464.22,40.263999999999996L455.70801,40.263999999999996L455.70801,39.143999C456.29599,38.5,456.85599,37.771999,457.35999,36.987999L458.452,36.987999C459.20801,37.967999,459.90799,39.171999,460.216,39.955999L463.10001,38.751999C462.87601,38.247999,462.48401,37.604,462.03601,36.987999L466.68399,36.987999L466.68399,34.2159996L458.92801,34.2159996C459.12399,33.7399998,459.34799,33.2639999,459.51599,32.7880001L456.32401,31.9759998C455.73599,33.5999985,454.81201,35.223999,453.69199,36.511999L453.69199,34.2159996L447.56,34.2159996L448.20401,32.8439999L444.98401,31.9759998C444.03201,34.355999,442.32401,36.792,440.504,38.303999C441.28799000000004,38.723999,442.65999999999997,39.647999,443.304,40.179999C444.172,39.312,445.06799,38.219999,445.90799,36.987999L446.18799,36.987999C446.74799,37.996,447.30801,39.143999,447.504,39.927999L450.35999,38.751999C450.19199,38.247999,449.91199,37.632,449.57599,36.987999L453.272,36.987999C452.96399,37.323999,452.62799,37.632,452.29199,37.911999C452.71201,38.135999999999996,453.29999,38.528,453.888,38.92L452.20801,38.92L452.20801,40.263999999999996L444.03201,40.263999999999996L444.03201,43.007999L452.20801,43.007999L452.20801,44.632000000000005L441.20399,44.632000000000005L441.20399,47.459998999999996L457.75201,47.459998999999996L457.75201,49.139999L442.26801,49.139999L442.26801,51.968L447.47601,51.968L445.992,53.115999ZM484.21201,32.816C484.63199,33.5999985,485.052,34.6079998,485.35999,35.4759998L478.836,35.4759998L478.836,41.047999000000004L481.048,41.047999000000004L481.048,43.540001000000004L492.612,43.540001000000004L492.612,41.047999000000004L494.82401,41.047999000000004L494.82401,35.4759998L489,35.4759998C488.63599,34.439998599999996,488.01999,33.0119991,487.37601,31.9200001L484.21201,32.816ZM481.91602,40.655999L481.91602,38.387999L491.604,38.387999L491.604,40.655999L481.91602,40.655999ZM478.892,45.639999L478.892,48.635999999999996L482.28,48.635999999999996C481.91602,52.164,480.936,54.431999000000005,476.45599,55.804001C477.12799,56.448,478.02399,57.68,478.332,58.52C483.76401,56.615999,485.07999,53.367999999999995,485.5,48.635999999999996L487.34799,48.635999999999996L487.34799,54.403999C487.34799,57.176001,487.90799,58.127998,490.39999,58.127998C490.84799,58.127998,491.85599,58.127998,492.332,58.127998C494.32001,58.127998,495.104,57.063998999999995,495.35599,53.172001C494.54401,52.976,493.228,52.472,492.612,51.968C492.556,54.851999,492.41602,55.299999,491.996,55.299999C491.79999,55.299999,491.12799,55.299999,490.98801,55.299999C490.56799,55.299999,490.54001,55.188,490.54001,54.375999L490.54001,48.635999999999996L494.96399,48.635999999999996L494.96399,45.639999L478.892,45.639999ZM469.90399,33.3199997L469.90399,58.408001L472.84399,58.408001L472.84399,36.316L475.08401,36.316C474.63599,38.135999999999996,474.048,40.403999,473.51599,42.139999C475.112,44.099998,475.448,45.92,475.448,47.263999999999996C475.448,48.076,475.30801,48.691998999999996,474.97198,48.944C474.776,49.111999999999995,474.496,49.167998999999995,474.216,49.167998999999995C473.88,49.195999,473.48801,49.167998999999995,472.98401,49.139999C473.45999,49.952,473.71201,51.212,473.71201,52.024C474.384,52.052,475.02802,52.052,475.56,51.968C476.17599,51.855999,476.70801,51.688,477.15601,51.351999C478.052,50.68,478.41602,49.448,478.41602,47.627998000000005C478.41602,45.976,478.052,44.015999,476.34399,41.775999999999996C477.15601,39.619999,478.07999,36.792,478.78,34.439998599999996L476.59601,33.1799984L476.12,33.3199997L469.90399,33.3199997ZM516.7760000000001,44.323999C516.2439899999999,46.115999,515.51599,47.712,514.53601,49.167998999999995C513.47198,47.739999999999995,512.63199,46.115999,512.01599,44.351999L510.392,44.771999C511.54001,43.483999,512.68799,42.028,513.58398,40.599999L510.616,39.227999C509.52399,41.075998999999996,507.67599,43.344,505.94,44.716C506.64001,45.219999,507.70401,46.172001,508.26401,46.816L509.35599,45.807998999999995C510.19601,48.019999999999996,511.20401,50.007999,512.4359999999999,51.716C510.64401,53.507999,508.40399,54.908001,505.74399,55.916C506.388,56.476,507.396,57.792,507.84399,58.52C510.504,57.455999,512.7439899999999,56.028,514.5920100000001,54.263999999999996C516.4119900000001,56.028,518.62399,57.427999,521.284,58.352001C521.76001,57.4,522.76801,56,523.52399,55.299999C520.892,54.544001,518.65201,53.312,516.832,51.688C518.12,49.896,519.1560099999999,47.823999,519.884,45.472C520.164,45.891998,520.41602,46.284,520.58401,46.619999L523.048,44.464000999999996C522.15201,42.924,520.19202,40.796,518.42801,39.199999L522.85199,39.199999L522.85199,36.119999L515.17999,36.119999L516.97198,35.3639984C516.57999,34.3839989,515.71201,32.955999399999996,514.8439900000001,31.8920002L511.84799,33.0119991C512.51999,33.907999000000004,513.2479900000001,35.1679993,513.6400100000001,36.119999L507.31201,36.119999L507.31201,39.199999L517.784,39.199999L515.85199,40.823999C517.1400100000001,42.056,518.56799,43.652,519.604,45.052L516.7760000000001,44.323999ZM500.73199,32.1999989L500.73199,37.743999L497.39999,37.743999L497.39999,40.851999L500.172,40.851999C499.47198,44.268,498.10001,48.243999,496.504,50.455999C497.03601,51.323999,497.76401,52.864000000000004,498.07199,53.788C499.07999,52.164,500.004,49.756001,500.73199,47.152L500.73199,58.492001L503.81201,58.492001L503.81201,46.087998999999996C504.42801,47.431999000000005,505.04401,48.832001000000005,505.38,49.784L507.284,47.292C506.78,46.452,504.51199,42.728001,503.81201,41.747999L503.81201,40.851999L506.612,40.851999L506.612,37.743999L503.81201,37.743999L503.81201,32.1999989L500.73199,32.1999989ZM533.46399,44.743999L542.396,44.743999L542.396,47.543999L533.46399,47.543999L533.46399,44.743999ZM530.07599,41.775999999999996L530.07599,50.483999L533.0440100000001,50.483999C532.28799,52.891999999999996,530.496,54.487999,524.952,55.412001000000004C525.65201,56.139999,526.492,57.596001,526.79999,58.464001C533.6600000000001,56.980000000000004,535.8439900000001,54.348,536.71201,50.483999L539.17599,50.483999L539.17599,54.208C539.17599,57.316,539.9599900000001,58.296001,543.26401,58.296001C543.9359999999999,58.296001,546.31601,58.296001,547.01599,58.296001C549.64801,58.296001,550.5440100000001,57.260000000000005,550.9359999999999,53.228001C550.01199,53.004000000000005,548.58401,52.472,547.884,51.940000999999995C547.7719999999999,54.768,547.604,55.16,546.67999,55.16C546.0920100000001,55.16,544.18799,55.16,543.73999,55.16C542.7040099999999,55.16,542.53601,55.048,542.53601,54.18L542.53601,50.483999L545.98001,50.483999L545.98001,41.775999999999996L530.07599,41.775999999999996ZM544.664,32.5359993C544.1600000000001,33.9639988,543.15201,35.8400002,542.31201,37.156L539.65201,37.156L539.65201,32.1999989L536.2080100000001,32.1999989L536.2080100000001,37.156L532.28799,37.156L533.884,36.203998999999996C533.38,35.111999499999996,532.23199,33.5719986,531.168,32.4239998L528.3399999999999,33.9359989C529.15201,34.8879986,529.992,36.119999,530.52399,37.156L525.48401,37.156L525.48401,43.82L528.73199,43.82L528.73199,40.151999L547.26801,40.151999L547.26801,43.82L550.6560099999999,43.82L550.6560099999999,37.156L545.8399999999999,37.156C546.59601,36.091999,547.4359999999999,34.803998899999996,548.2479900000001,33.5439987L544.664,32.5359993ZM562.86401,34.2999992L562.86401,36.82L567.59601,36.82L567.59601,38.164L561.35199,38.164L561.35199,40.655999L567.59601,40.655999L567.59601,42.056L562.7239999999999,42.056L562.7239999999999,44.604L567.59601,44.604L567.59601,45.948L562.556,45.948L562.556,48.299999L567.59601,48.299999L567.59601,49.700001L561.46399,49.700001L561.46399,52.247999L567.59601,52.247999L567.59601,54.152L570.78799,54.152L570.78799,52.247999L578.2080100000001,52.247999L578.2080100000001,49.700001L570.78799,49.700001L570.78799,48.299999L577.31201,48.299999L577.31201,45.948L570.78799,45.948L570.78799,44.604L577.004,44.604L577.004,40.655999L578.5440100000001,40.655999L578.5440100000001,38.164L577.004,38.164L577.004,34.2999992L570.78799,34.2999992L570.78799,32.2279987L567.59601,32.2279987L567.59601,34.2999992L562.86401,34.2999992ZM570.78799,40.655999L574.03601,40.655999L574.03601,42.056L570.78799,42.056L570.78799,40.655999ZM570.78799,38.164L570.78799,36.82L574.03601,36.82L574.03601,38.164L570.78799,38.164ZM554.548,45.92C554.548,45.556,555.444,44.995998,556.0880099999999,44.66L558.46799,44.66C558.216,46.480000000000004,557.85199,48.132000000000005,557.37601,49.559999000000005C556.87201,48.635999999999996,556.396,47.543999,556.03201,46.256001L553.56799,47.096001C554.23999,49.336,555.07999,51.156,556.06,52.584C555.164,54.152,554.0440100000001,55.384001,552.70001,56.308001000000004C553.39999,56.728001,554.63199,57.875999,555.108,58.52C556.31201,57.624001,557.34799,56.448,558.2439899999999,54.992001C561.1560099999999,57.372,564.96399,57.959998999999996,569.69601,57.959998999999996L577.9559899999999,57.959998999999996C578.15201,57.063998999999995,578.68399,55.58,579.1600000000001,54.908001C577.2280000000001,54.964000999999996,571.40399,54.964000999999996,569.80801,54.964000999999996C565.664,54.936001000000005,562.164,54.459998999999996,559.5880099999999,52.275999C560.67999,49.587998999999996,561.4079899999999,46.200001,561.7719999999999,42.111999999999995L559.896,41.664L559.30801,41.747999L558.35599,41.747999C559.5880099999999,39.647999,560.84799,37.184,561.9119900000001,34.6639996L559.896,33.3199997L558.8599899999999,33.7399998L553.56799,33.7399998L553.56799,36.68L557.6560099999999,36.68C556.7040099999999,38.92,555.6400100000001,40.823999,555.19199,41.467999C554.604,42.419998,553.82001,43.175999000000004,553.23199,43.344C553.65201,43.987999,554.32401,45.276001,554.548,45.92ZM581.26001,53.172001L581.26001,56.559999000000005L606.85199,56.559999000000005L606.85199,53.172001L595.82001,53.172001L595.82001,38.639999L605.284,38.639999L605.284,35.111999499999996L582.79999,35.111999499999996L582.79999,38.639999L591.98401,38.639999L591.98401,53.172001L581.26001,53.172001ZM622.448,32.4799995C621.1600000000001,36.511999,618.948,40.572,616.4559899999999,43.091999C617.18399,43.624001,618.5,44.827999,619.03201,45.444C620.32001,43.987999,621.57999,42.084,622.7280000000001,39.983999L623.76401,39.983999L623.76401,58.492001L627.23599,58.492001L627.23599,52.275999L634.88,52.275999L634.88,49.139999L627.23599,49.139999L627.23599,45.976L634.51599,45.976L634.51599,42.924L627.23599,42.924L627.23599,39.983999L635.216,39.983999L635.216,36.792L624.2959900000001,36.792C624.79999,35.6439991,625.2760000000001,34.4679985,625.668,33.3199997L622.448,32.4799995ZM615.02802,32.3119984C613.60001,36.316,611.164,40.32,608.616,42.84C609.2040099999999,43.68,610.1560099999999,45.611999999999995,610.46399,46.424C611.052,45.807998999999995,611.6400100000001,45.135999999999996,612.20001,44.408001L612.20001,58.464001L615.5880099999999,58.464001L615.5880099999999,39.199999C616.62399,37.296,617.548,35.3079987,618.2760000000001,33.3479996L615.02802,32.3119984ZM209.588001,68.403999L208.804001,66.91999799999999C206.76,67.87200200000001,204.940001,69.83200099999999,204.940001,72.604C204.940001,74.28399999999999,206.004,75.599998,207.404001,75.599998C208.776001,75.599998,209.588001,74.647999,209.588001,73.52799999999999C209.588001,72.379997,208.804001,71.484001,207.628,71.484001C207.376001,71.484001,207.152,71.56800100000001,207.040001,71.62400099999999C207.040001,70.75599700000001,207.908001,69.188,209.588001,68.403999ZM215.300001,68.403999L214.488001,66.91999799999999C212.444,67.87200200000001,210.624001,69.83200099999999,210.624001,72.604C210.624001,74.28399999999999,211.688002,75.599998,213.088001,75.599998C214.488001,75.599998,215.272001,74.647999,215.272001,73.52799999999999C215.272001,72.379997,214.488001,71.484001,213.34,71.484001C213.060001,71.484001,212.836,71.56800100000001,212.724001,71.62400099999999C212.724001,70.75599700000001,213.592001,69.188,215.300001,68.403999ZM229.076,68.935997L229.076,72.071999L241.424004,72.071999L241.424004,68.935997L229.076,68.935997ZM237.644001,82.18C238.848,85.063999,239.968002,88.816002,240.248001,91.112L243.27200299999998,90.019997C242.908001,87.66799900000001,241.676003,84.056,240.416,81.228001L237.644001,82.18ZM229.02,81.34C228.348,84.251999,227.172001,87.304001,225.743999,89.23599999999999C226.472,89.599998,227.788002,90.496002,228.375999,90.972C229.832001,88.787998,231.232002,85.316002,232.04399899999999,82.04000099999999L229.02,81.34ZM227.788002,75.62799799999999L227.788002,78.76400000000001L233.276001,78.76400000000001L233.276001,89.487999C233.276001,89.852001,233.16400099999998,89.936001,232.800003,89.936001C232.436001,89.936001,231.260002,89.964001,230.139999,89.908001C230.588001,90.888,231.00799899999998,92.372002,231.091999,93.351997C232.996002,93.351997,234.368,93.295998,235.403999,92.736C236.468002,92.176003,236.692001,91.223999,236.692001,89.571999L236.692001,78.76400000000001L242.99200100000002,78.76400000000001L242.99200100000002,75.62799799999999L227.788002,75.62799799999999ZM220.844002,67.199997L220.844002,72.743999L216.952,72.743999L216.952,75.851997L220.200001,75.851997C219.472,78.987999,218.072001,82.655998,216.448,84.672001C217.035999,85.54000099999999,217.848,87.023998,218.156,87.947998C219.164,86.492001,220.088001,84.335999,220.844002,82.012001L220.844002,93.491997L224.176003,93.491997L224.176003,80.220001C224.931999,81.424,225.688,82.711998,226.080002,83.551998L227.872002,80.891998C227.368,80.220001,224.987999,77.307999,224.176003,76.439999L224.176003,75.851997L227.452,75.851997L227.452,72.743999L224.176003,72.743999L224.176003,67.199997L220.844002,67.199997ZM249.292,67.199997L249.292,72.996002L245.259998,72.996002L245.259998,76.16L248.872002,76.16C248.004002,79.52000000000001,246.352001,83.299999,244.532001,85.54000099999999C245.063999,86.380001,245.82,87.751999,246.127998,88.67599899999999C247.332001,87.13600199999999,248.39600000000002,84.896,249.292,82.43199899999999L249.292,93.491997L252.512001,93.491997L252.512001,81.788002C253.295998,83.02000000000001,254.08000199999998,84.335999,254.52800000000002,85.231998L256.431999,82.543999L255.872002,81.844002L261.723999,81.844002L261.723999,93.491997L265.167999,93.491997L265.167999,81.844002L271.216003,81.844002L271.216003,78.596001L265.167999,78.596001L265.167999,72.239998L270.51599899999997,72.239998L270.51599899999997,69.076L256.711998,69.076L256.711998,72.239998L261.723999,72.239998L261.723999,78.596001L255.67600299999998,78.596001L255.67600299999998,81.591999C254.723999,80.416,253.211998,78.596001,252.512001,77.84L252.512001,76.16L255.984001,76.16L255.984001,72.996002L252.512001,72.996002L252.512001,67.199997L249.292,67.199997ZM288.212,67.816002C288.632,68.599998,289.052,69.608002,289.36,70.475998L282.835999,70.475998L282.835999,76.048L285.048004,76.048L285.048004,78.54000099999999L296.61199999999997,78.54000099999999L296.61199999999997,76.048L298.82401,76.048L298.82401,70.475998L293,70.475998C292.63599999999997,69.439999,292.02,68.012001,291.376,66.91999799999999L288.212,67.816002ZM285.916,75.655998L285.916,73.388L295.604,73.388L295.604,75.655998L285.916,75.655998ZM282.891998,80.639999L282.891998,83.63600199999999L286.279999,83.63600199999999C285.916,87.164001,284.936005,89.43199899999999,280.456001,90.804001C281.127998,91.447998,282.024002,92.68,282.332001,93.519997C287.764,91.615997,289.08,88.368,289.5,83.63600199999999L291.348,83.63600199999999L291.348,89.403999C291.348,92.176003,291.908,93.127998,294.4,93.127998C294.848,93.127998,295.856,93.127998,296.332,93.127998C298.32,93.127998,299.104,92.064003,299.356,88.172001C298.544,87.975998,297.228,87.47200000000001,296.61199999999997,86.96799899999999C296.556,89.852001,296.416,90.300003,295.996,90.300003C295.8,90.300003,295.128,90.300003,294.988,90.300003C294.568,90.300003,294.54,90.188004,294.54,89.37599900000001L294.54,83.63600199999999L298.964,83.63600199999999L298.964,80.639999L282.891998,80.639999ZM273.903999,68.32L273.903999,93.407997L276.844002,93.407997L276.844002,71.316002L279.084,71.316002C278.636002,73.13600199999999,278.048004,75.403999,277.51599899999997,77.139999C279.11199999999997,79.099998,279.447998,80.91999799999999,279.447998,82.26400000000001C279.447998,83.076,279.307999,83.692001,278.972,83.944C278.776001,84.112,278.496002,84.16799900000001,278.216003,84.16799900000001C277.879997,84.195999,277.487999,84.16799900000001,276.98400100000003,84.139999C277.459999,84.952,277.711998,86.211998,277.711998,87.023998C278.384003,87.051998,279.028,87.051998,279.559998,86.96799899999999C280.176003,86.855999,280.70799999999997,86.688,281.155998,86.352001C282.052002,85.68,282.416,84.447998,282.416,82.62799799999999C282.416,80.975998,282.052002,79.015999,280.344002,76.77600100000001C281.155998,74.619999,282.080002,71.792,282.779999,69.439999L280.596001,68.18L280.120003,68.32L273.903999,68.32ZM306.776,84.952C305.46,86.71600000000001,303.192,88.647999,301.06399999999996,89.79600099999999C301.904,90.300003,303.332,91.391998,304.004,92.036003C306.048,90.636002,308.54,88.312,310.192,86.155998L306.776,84.952ZM317.332,86.576C319.51601,88.200001,322.25999,90.524002,323.49199999999996,92.036003L326.48801000000003,90.047997C325.06,88.47999999999999,322.23199,86.267998,320.076,84.812L317.332,86.576ZM317.976,78.652C318.48,79.155998,319.04001,79.743999,319.57201,80.33200099999999L311.144,80.891998C314.756,79.043999,318.368,76.83200099999999,321.7,74.227997L319.26401,72.043999C318.03200000000004,73.108002,316.65999999999997,74.143997,315.288,75.096001L309.716,75.37599900000001C311.368,74.199997,312.992,72.855999,314.42,71.456001C318.06,71.091999,321.504,70.587997,324.416,69.888L322.00800000000004,67.115997C317.276,68.26400000000001,309.464,68.963997,302.576,69.21600000000001C302.91200000000003,69.97200000000001,303.304,71.316002,303.38800000000003,72.155998C305.432,72.099998,307.58799999999997,71.987999,309.744,71.848C308.288,73.192001,306.832,74.25599700000001,306.244,74.619999C305.404,75.208,304.76,75.599998,304.116,75.683998C304.452,76.523998,304.9,77.952,305.04,78.56800100000001C305.68399999999997,78.316002,306.608,78.17599899999999,311.004,77.868C309.18399999999997,78.95999900000001,307.644,79.771999,306.804,80.13600199999999C305.04,81.031998,303.948,81.507999,302.856,81.67599899999999C303.192,82.515999,303.668,84.056,303.808,84.644001C304.73199999999997,84.279999,305.992,84.084,312.432,83.551998L312.432,89.768002C312.432,90.075996,312.29200000000003,90.160004,311.81600000000003,90.188004C311.34000000000003,90.188004,309.632,90.188004,308.176,90.132004C308.68,91,309.24,92.428001,309.408,93.407997C311.48,93.407997,313.048,93.379997,314.28,92.875999C315.512,92.344002,315.848,91.475998,315.848,89.852001L315.848,83.299999L321.644,82.82399699999999C322.34398999999996,83.748001,322.96001,84.616001,323.38,85.344002L326.01198999999997,83.720001C324.892,81.928001,322.59601,79.295998,320.496,77.335999L317.976,78.652ZM334.41200000000003,74.34L335.196,75.795998C337.24001,74.87200200000001,339.06,72.91199900000001,339.06,70.139999C339.06,68.43199899999999,337.996,67.115997,336.59601,67.115997C335.224,67.115997,334.41200000000003,68.096001,334.41200000000003,69.188C334.41200000000003,70.335999,335.196,71.231998,336.37199,71.231998C336.62399,71.231998,336.84801,71.17599899999999,336.96001,71.091999C336.96001,71.987999,336.092,73.52799999999999,334.41200000000003,74.34ZM328.7,74.34L329.51198999999997,75.795998C331.55600000000004,74.87200200000001,333.37601,72.91199900000001,333.37601,70.139999C333.37601,68.43199899999999,332.312,67.115997,330.91200000000003,67.115997C329.51198999999997,67.115997,328.728,68.096001,328.728,69.188C328.728,70.335999,329.51198999999997,71.231998,330.65999999999997,71.231998C330.94,71.231998,331.164,71.17599899999999,331.276,71.091999C331.276,71.987999,330.408,73.52799999999999,328.7,74.34Z" fill="#FFFFFF" fill-opacity="1"/></g></g></g><g><ellipse cx="9.5" cy="43.5" rx="9.5" ry="9.5" fill="#FFFFFF" fill-opacity="1"/></g></g></svg>