<svg xmlns="http://www.w3.org/2000/svg" xmlns:xlink="http://www.w3.org/1999/xlink" fill="none" version="1.1" width="647" height="100" viewBox="0 0 647 100"><g><g><g><g><rect x="27" y="14" width="124" height="58" rx="10" fill="#0056AD" fill-opacity="1"/></g><g><path d="M43.204,56L57.092,56L57.092,52.528L52.612,52.528C51.632,52.528,50.2600002,52.639999,49.1960001,52.779999C52.976001,49.056,56.112,45.023998,56.112,41.271999C56.112,37.407997,53.507999999999996,34.888,49.5880003,34.888C46.7600002,34.888,44.9120002,35.98,42.98000002,38.052002L45.275999999999996,40.264C46.3120003,39.115997,47.5440001,38.136002,49.0560002,38.136002C51.044000600000004,38.136002,52.164001,39.424,52.164001,41.467999C52.164001,44.688,48.8600001,48.580002,43.204,53.619999L43.204,56ZM66.780001,56.391998C71.007999,56.391998,73.808001,52.695999,73.808001,45.528C73.808001,38.416,71.007999,34.888,66.780001,34.888C62.552,34.888,59.752001,38.388,59.752001,45.528C59.752001,52.695999,62.552,56.391998,66.780001,56.391998ZM66.780001,53.172001C64.988001,53.172001,63.644001,51.380001,63.644001,45.528C63.644001,39.760002,64.988001,38.052002,66.780001,38.052002C68.572001,38.052002,69.888,39.760002,69.888,45.528C69.888,51.380001,68.572001,53.172001,66.780001,53.172001ZM76.243999,56L90.132,56L90.132,52.528L85.652,52.528C84.672001,52.528,83.300003,52.639999,82.23599999999999,52.779999C86.016003,49.056,89.152,45.023998,89.152,41.271999C89.152,37.407997,86.548,34.888,82.62800200000001,34.888C79.800003,34.888,77.952,35.98,76.02000000000001,38.052002L78.316002,40.264C79.352001,39.115997,80.584,38.136002,82.096001,38.136002C84.084,38.136002,85.204002,39.424,85.204002,41.467999C85.204002,44.688,81.900002,48.580002,76.243999,53.619999L76.243999,56ZM100.996002,56L104.83200099999999,56L104.83200099999999,50.624001L107.296005,50.624001L107.296005,47.487999L104.83200099999999,47.487999L104.83200099999999,35.251999L99.87599900000001,35.251999L92.148003,47.823997L92.148003,50.624001L100.996002,50.624001L100.996002,56ZM100.996002,47.487999L96.152,47.487999L99.37200200000001,42.335999C99.960003,41.216,100.52000000000001,40.068001,101.024002,38.947998L101.164001,38.947998C101.08000200000001,40.18,100.996002,42.056,100.996002,43.259998L100.996002,47.487999ZM109.200005,49.279999L109.200005,52.5L121.884003,52.5L121.884003,58.52L125.356003,58.52L125.356003,52.5L134.96000700000002,52.5L134.96000700000002,49.279999L125.356003,49.279999L125.356003,45.052002L132.776001,45.052002L132.776001,41.916L125.356003,41.916L125.356003,38.528L133.44799799999998,38.528L133.44799799999998,35.279999L117.544006,35.279999C117.880005,34.524002,118.188004,33.767998,118.468002,32.984001L115.024002,32.087997C113.82,35.755997,111.636002,39.34,109.116005,41.495998C109.956001,42,111.384003,43.091999,112.028,43.68C113.372002,42.335999,114.688004,40.543999,115.863998,38.528L121.884003,38.528L121.884003,41.916L113.652,41.916L113.652,49.279999L109.200005,49.279999ZM117.012001,49.279999L117.012001,45.052002L121.884003,45.052002L121.884003,49.279999L117.012001,49.279999Z" fill="#FFFFFF" fill-opacity="1"/></g></g><g><g><rect x="169" y="14" width="478" height="86" rx="10" fill="#CB8F00" fill-opacity="1"/></g><g><path d="M214.688,52.284L214.688,56.596001L214.688,56.736L208.92,56.736L208.92,59.844002L214.436001,59.844002C213.904,62.98,212.336,66.507999,207.9400005,69.391998C208.752001,69.952,209.844001,70.87599900000001,210.404,71.576C213.764001,69.391998,215.612001,66.70399900000001,216.648001,64.015999C217.992001,67.292,219.952002,69.868,222.864,71.408001C223.312,70.54000099999999,224.264,69.279999,224.992001,68.664001C221.436001,67.12400099999999,219.280001,63.875999,218.10399999999998,59.844002L224.404001,59.844002L224.404001,56.736L221.60399999999998,56.736L223.620001,55.307999C223.004002,54.271999,221.60399999999998,52.928001,220.372,52.003998L218.10399999999998,53.571999C219.168001,54.495998,220.400002,55.756001,221.044001,56.736L217.824001,56.736L217.824001,56.624001L217.824001,52.284L214.688,52.284ZM215.192001,45.199997L215.192001,47.16L208.92,47.16L208.92,45.199997L205.5880003,45.199997L205.5880003,47.16L199.5680001,47.16L199.5680001,50.155998L205.5880003,50.155998L205.5880003,52.031998L208.92,52.031998L208.92,50.155998L215.192001,50.155998L215.192001,51.751999L218.552,51.751999L218.552,50.155998L224.488001,50.155998L224.488001,47.16L218.552,47.16L218.552,45.199997L215.192001,45.199997ZM206.4560003,52.115997C206.0360003,52.591999,205.5040002,53.096001,204.9440002,53.599998C204.244,52.956001,203.4040003,52.312,202.3959999,51.723999L200.2120001,53.459999C201.1920002,54.048,201.9760001,54.664001,202.6480002,55.335999C201.444,56.147999,200.128,56.848,198.81200004,57.380001C199.4560001,57.939999,200.352,58.947998,200.8000002,59.619999C201.9760001,59.087997,203.1800003,58.416,204.3560004,57.66C204.6080003,58.164001,204.8040004,58.667999,204.9720001,59.200001C203.6560001,61.048,201.0240002,63.035999,198.81200004,63.959999C199.4840001,64.548,200.296,65.639999,200.7440002,66.396C202.2839999,65.5,204.02,64.12799799999999,205.4480004,62.700001L205.4480004,62.924C205.4480004,65.52799999999999,205.2240005,67.26400000000001,204.664,67.992001C204.4400001,68.271999,204.2160001,68.41199900000001,203.796,68.439999C203.2080002,68.523998,202.1719999,68.523998,200.8000002,68.439999C201.3600001,69.251999,201.6960001,70.37200200000001,201.7240002,71.32400100000001C203.0680003,71.380001,204.1600003,71.352001,205.2240005,71.12799799999999C205.8960004,70.987999,206.4840002,70.68,206.8760004,70.20399900000001C208.164001,68.83200099999999,208.556001,66.228001,208.556001,63.147999C208.556001,60.599998,208.276,58.136002,206.8480005,55.84C207.6880007,55.139999,208.5,54.383999,209.172,53.599998L206.4560003,52.115997ZM239.412003,44.948C236.612,49.344002,231.487999,52.956001,226.448,55.056C227.288,55.84,228.268,56.987999,228.743999,57.855999C229.639999,57.408001,230.535999,56.931999,231.431999,56.400002L231.431999,58.304001L238.236,58.304001L238.236,61.551998L231.824001,61.551998L231.824001,64.464001L238.236,64.464001L238.236,67.852001L228.128,67.852001L228.128,70.848L252.068001,70.848L252.068001,67.852001L241.764,67.852001L241.764,64.464001L248.428001,64.464001L248.428001,61.551998L241.764,61.551998L241.764,58.304001L248.68,58.304001L248.68,56.512001C249.548,57.015999,250.44400000000002,57.52,251.368,57.995998C251.816002,57.015999,252.796001,55.868,253.608002,55.112C249.155998,53.152,245.236,50.66,241.903999,47.104L242.408001,46.348L239.412003,44.948ZM233.139999,55.335999C235.632,53.683998,237.984001,51.723999,239.972,49.512001C242.127998,51.835999,244.368,53.711998,246.832001,55.335999L233.139999,55.335999ZM260.664001,62.644001L260.664001,65.388L275.251999,65.388L275.251999,62.644001L273.264,62.644001L274.720001,61.832001C274.272003,61.132,273.375999,60.096001,272.620003,59.312L274.160004,59.312L274.160004,56.484001L269.400002,56.484001L269.400002,53.823997L274.776001,53.823997L274.776001,50.911999L260.944,50.911999L260.944,53.823997L266.29200000000003,53.823997L266.29200000000003,56.484001L261.700001,56.484001L261.700001,59.312L266.29200000000003,59.312L266.29200000000003,62.644001L260.664001,62.644001ZM270.296005,60.208C270.940002,60.936001,271.723999,61.888,272.199997,62.644001L269.400002,62.644001L269.400002,59.312L272.031998,59.312L270.296005,60.208ZM256.127998,46.32L256.127998,71.464001L259.543999,71.464001L259.543999,70.091999L276.204002,70.091999L276.204002,71.464001L279.788002,71.464001L279.788002,46.32L256.127998,46.32ZM259.543999,66.984001L259.543999,49.400002L276.204002,49.400002L276.204002,66.984001L259.543999,66.984001ZM299.248,45.199997C298.744,48.643997,297.848,52.003998,296.531998,54.664001L296.531998,52.48L294.964005,52.48C296.056,50.716,297.036003,48.812,297.848,46.767998L294.739998,45.900002C294.236,47.243999,293.648003,48.503998,292.975998,49.708L292.975998,47.748001L290.23200199999997,47.748001L290.23200199999997,45.199997L287.124001,45.199997L287.124001,47.748001L283.931999,47.748001L283.931999,50.576L287.124001,50.576L287.124001,52.48L282.839996,52.48L282.839996,55.363998L288.692001,55.363998C288.188004,55.84,287.683998,56.316002,287.152,56.764L285.30400099999997,56.764L285.30400099999997,58.164001C284.407997,58.779999,283.456001,59.34,282.475998,59.816002C283.148003,60.431999,284.295998,61.720001,284.744003,62.391998C286.255997,61.523998,287.683998,60.515999,289.028,59.368L290.79200000000003,59.368C290.064003,60.096001,289.223999,60.795998,288.468002,61.327999L288.468002,62.952L282.755997,63.372002L283.120003,66.34L288.468002,65.891998L288.468002,68.243999C288.468002,68.523998,288.356003,68.608002,287.99199699999997,68.63600199999999C287.627998,68.63600199999999,286.42400399999997,68.63600199999999,285.332001,68.608002C285.723999,69.41999799999999,286.143997,70.596001,286.283997,71.436001C288.048004,71.436001,289.363998,71.436001,290.372002,70.95999900000001C291.351997,70.54000099999999,291.60400400000003,69.756001,291.60400400000003,68.299999L291.60400400000003,65.612L296.643997,65.164001L296.643997,62.279999L291.60400400000003,62.700001L291.60400400000003,61.916C293.003998,60.823997,294.375999,59.507999,295.496002,58.276001C296.19599900000003,58.863998,296.980003,59.591999,297.344002,60.012001C297.79200000000003,59.424,298.24,58.751999,298.632,58.023998C299.164,60.124001,299.78,62.028,300.56399999999996,63.764C299.108,65.835999,297.148003,67.43199899999999,294.487999,68.58000200000001C295.132004,69.279999,296.11199999999997,70.848,296.447998,71.632C298.884,70.400002,300.844,68.888,302.384,67.04000099999999C303.644,68.860001,305.18399999999997,70.37200200000001,307.116,71.52000000000001C307.62,70.62400099999999,308.68399999999997,69.279999,309.44,68.608002C307.368,67.543999,305.744,65.91999799999999,304.456,63.931999C305.968,61.048,306.92,57.604,307.508,53.431999L309.15999999999997,53.431999L309.15999999999997,50.323997L301.656,50.323997C302.048,48.84,302.384,47.299999,302.664,45.731998L299.248,45.199997ZM291.716003,56.764L292.891998,55.363998L296.167999,55.363998C295.776001,56.091999,295.32800299999997,56.792,294.851997,57.380001L293.872002,56.596001L293.255997,56.764L291.716003,56.764ZM290.23200199999997,50.576L292.472,50.576C292.080002,51.220001,291.632004,51.863998,291.183998,52.48L290.23200199999997,52.48L290.23200199999997,50.576ZM304.036,53.431999C303.7,55.896,303.224,58.080002,302.524,59.984001C301.76801,57.967999,301.236,55.756001,300.81600000000003,53.431999L304.036,53.431999ZM329.68401,59.703999L329.68401,61.048L318.4,61.048L318.4,59.703999L329.68401,59.703999ZM315.04,56.987999L315.04,71.52000000000001L318.4,71.52000000000001L318.4,67.012001L329.68401,67.012001L329.68401,68.243999C329.68401,68.720001,329.48801000000003,68.888,328.89999,68.888C328.368,68.916,326.01601,68.916,324.28,68.804001C324.728,69.560001,325.204,70.708,325.372,71.52000000000001C328.08799999999997,71.52000000000001,330.02,71.52000000000001,331.308,71.12799799999999C332.59601,70.708,333.10001,69.952,333.10001,68.271999L333.10001,56.987999L315.04,56.987999ZM318.4,63.344002L329.68401,63.344002L329.68401,64.688L318.4,64.688L318.4,63.344002ZM321.648,45.760002L322.572,47.608002L311.568,47.608002L311.568,50.548L317.448,50.548C316.496,51.304001,315.656,51.891998,315.236,52.143997C314.508,52.619999,313.92,52.956001,313.304,53.068001C313.668,53.992001,314.228,55.672001,314.396,56.400002C315.656,55.952,317.36400000000003,55.896,330.916,55.112C331.58799999999997,55.728001,332.14799,56.287998,332.56799,56.764L335.424,54.860001C334.22,53.711998,332.14799,52.003998,330.384,50.548L336.48801000000003,50.548L336.48801000000003,47.608002L326.548,47.608002C326.10001,46.711998,325.512,45.647999,325.036,44.835999L321.648,45.760002ZM326.548,51.220001L328.06,52.535999L319.43600000000004,52.928001C320.472,52.199997,321.536,51.388,322.516,50.548L327.64,50.548L326.548,51.220001ZM344.776,62.952C343.46001,64.71600000000001,341.192,66.647999,339.06399999999996,67.79600099999999C339.90400999999997,68.299999,341.332,69.391998,342.004,70.035999C344.048,68.63600199999999,346.53999,66.312,348.192,64.155998L344.776,62.952ZM355.332,64.576C357.51601,66.200001,360.25999,68.523998,361.49199999999996,70.035999L364.48801000000003,68.048C363.06,66.47999999999999,360.23199,64.267998,358.076,62.812L355.332,64.576ZM355.976,56.652C356.48,57.155998,357.04001,57.743999,357.57201,58.332001L349.144,58.891998C352.756,57.043999,356.368,54.832001,359.7,52.227997L357.26401,50.043999C356.03200000000004,51.108002,354.65999999999997,52.143997,353.28799000000004,53.096001L347.716,53.375999C349.368,52.199997,350.99199999999996,50.855999,352.41999999999996,49.456001C356.06,49.091999,359.504,48.587997,362.416,47.888L360.00800000000004,45.115997C355.276,46.264,347.464,46.963997,340.576,47.216C340.91200000000003,47.972,341.304,49.316002,341.38800000000003,50.155998C343.43201,50.099998,345.58799999999997,49.987999,347.744,49.848C346.28799000000004,51.192001,344.832,52.255997,344.244,52.619999C343.40400999999997,53.208,342.75999,53.599998,342.116,53.683998C342.452,54.523998,342.89999,55.952,343.03999,56.568001C343.68401,56.316002,344.608,56.175999,349.004,55.868C347.18401,56.959999,345.644,57.771999,344.804,58.136002C343.03999,59.031998,341.948,59.507999,340.856,59.675999C341.192,60.515999,341.668,62.056,341.808,62.644001C342.73199,62.279999,343.99199999999996,62.084,350.43201,61.551998L350.43201,67.768002C350.43201,68.076,350.29201,68.16,349.81599,68.188C349.34000000000003,68.188,347.632,68.188,346.17599,68.132C346.67999,69,347.24001,70.428001,347.408,71.408001C349.48,71.408001,351.048,71.380001,352.28,70.87599900000001C353.51198999999997,70.344002,353.84801,69.476002,353.84801,67.852001L353.84801,61.299999L359.644,60.823997C360.34398999999996,61.748001,360.96001,62.616001,361.38,63.344002L364.01198999999997,61.720001C362.892,59.928001,360.59601,57.295998,358.496,55.335999L355.976,56.652ZM385.06799,59.34L385.06799,67.26400000000001C385.06799,70.091999,385.65601000000004,71.043999,388.17599,71.043999C388.62399,71.043999,389.632,71.043999,390.108,71.043999C392.26401,71.043999,392.99199999999996,69.78399999999999,393.244,65.360001C392.40400999999997,65.13600199999999,391.06,64.604,390.416,64.015999C390.332,67.599998,390.22,68.21600000000001,389.772,68.21600000000001C389.576,68.21600000000001,388.98801000000003,68.21600000000001,388.82001,68.21600000000001C388.42801,68.21600000000001,388.37199,68.132,388.37199,67.23599999999999L388.37199,59.34L385.06799,59.34ZM379.776,59.368C379.608,64.12799799999999,379.244,67.096001,374.96001,68.888C375.688,69.504002,376.61199999999997,70.82,377.004,71.66C382.12801,69.307999,382.856,65.27600100000001,383.08000000000004,59.368L379.776,59.368ZM366.952,67.096001L367.73599,70.400002C370.452,69.36399800000001,373.89599999999996,68.02000000000001,377.06,66.70399900000001L376.44399999999996,63.848C372.94399999999996,65.108002,369.332,66.396,366.952,67.096001ZM382.24001,45.872002C382.632,46.795998,383.08000000000004,47.972,383.36,48.868L377.116,48.868L377.116,51.863998L381.51198999999997,51.863998C380.36400000000003,53.403999,378.99199999999996,55.139999,378.48801000000003,55.644001C377.84398999999996,56.203999,377.03200000000004,56.456001,376.416,56.596001C376.724,57.295998,377.284,59.003998,377.424,59.816002C378.34801,59.396,379.748,59.200001,389.29601,58.192001C389.688,58.947998,390.024,59.619999,390.248,60.208L393.076,58.723999C392.32001,56.959999,390.528,54.327999,389.04400999999996,52.368L386.46799999999996,53.655998C386.916,54.243999,387.36400000000003,54.916,387.784,55.615997L382.26801,56.091999C383.276,54.804001,384.452,53.264,385.46001,51.863998L392.76801,51.863998L392.76801,48.868L385.04001,48.868L386.832,48.363998C386.552,47.524002,385.93600000000004,46.124001,385.43201,45.087997L382.24001,45.872002ZM367.70799,57.436001C368.12801,57.211998,368.772,57.043999,370.98399,56.764C370.144,57.995998,369.416,58.919998,369.024,59.34C368.12801,60.375999,367.53999,60.992001,366.784,61.16C367.17599,62,367.70799,63.596001,367.87601,64.267998C368.60400000000004,63.792,369.78,63.400002,376.5,61.888C376.38800000000003,61.16,376.38800000000003,59.844002,376.472,58.919998L372.58000000000004,59.703999C374.34398999999996,57.548,376.052,55.056,377.39599999999996,52.619999L374.45599000000004,50.799999C373.98,51.779999,373.448,52.788002,372.916,53.711998L370.87199,53.879997C372.44,51.695999,373.924,49.007999,374.96001,46.515999L371.54400999999996,44.948C370.592,48.139999,368.8,51.556,368.21200999999996,52.424C367.59599000000003,53.32,367.12,53.908001,366.504,54.076C366.924,55.028,367.51198999999997,56.736,367.70799,57.436001ZM415.58799999999997,46.403999L414.804,44.92C412.75999,45.872002,410.94,47.832001,410.94,50.604C410.94,52.284,412.004,53.599998,413.40400999999997,53.599998C414.776,53.599998,415.58799999999997,52.647999,415.58799999999997,51.528C415.58799999999997,50.379997,414.804,49.484001,413.62801,49.484001C413.37601,49.484001,413.15201,49.568001,413.04001,49.624001C413.04001,48.755997,413.908,47.188,415.58799999999997,46.403999ZM421.3,46.403999L420.48801000000003,44.92C418.44399999999996,45.872002,416.62399,47.832001,416.62399,50.604C416.62399,52.284,417.688,53.599998,419.08799999999997,53.599998C420.48801000000003,53.599998,421.272,52.647999,421.272,51.528C421.272,50.379997,420.48801000000003,49.484001,419.34000000000003,49.484001C419.06,49.484001,418.836,49.568001,418.724,49.624001C418.724,48.755997,419.592,47.188,421.3,46.403999ZM434.32001,45.199997L434.32001,49.007999L430.70801,49.007999C431.01601,48.084,431.29601,47.16,431.52,46.292L428.10400000000004,45.619999C427.51601,48.475998,426.172,52.284,424.35201,54.580002C425.164,54.888,426.536,55.559998,427.32001,56.091999C428.132,55.028,428.86,53.683998,429.504,52.227997L434.32001,52.227997L434.32001,56.792L423.53999,56.792L423.53999,60.040001L430.17599,60.040001C429.728,63.736,428.692,66.900002,423.092,68.692001C423.84801,69.391998,424.8,70.76400000000001,425.192,71.66C431.65999999999997,69.195999,433.116,65.023998,433.70399,60.040001L437.79201,60.040001L437.79201,66.87200200000001C437.79201,70.035999,438.548,71.071999,441.71200999999996,71.071999C442.328,71.071999,444.31599,71.071999,444.96001,71.071999C447.56399999999996,71.071999,448.46001,69.868,448.79601,65.416C447.89999,65.164001,446.416,64.632,445.744,64.071999C445.632,67.403999,445.49199999999996,67.908001,444.65201,67.908001C444.14799,67.908001,442.58000000000004,67.908001,442.188,67.908001C441.32001,67.908001,441.17999,67.768002,441.17999,66.844002L441.17999,60.040001L448.54400999999996,60.040001L448.54400999999996,56.792L437.73599,56.792L437.73599,52.227997L446.332,52.227997L446.332,49.007999L437.73599,49.007999L437.73599,45.199997L434.32001,45.199997ZM451.67999,47.608002C453.192,49.035999,455.12399,51.080002,455.96399,52.368L458.54001,50.239998C457.616,48.98,455.60001,47.047997,454.08801,45.731998L451.67999,47.608002ZM469.54401,45.984001L469.54401,50.015999L466.35199,50.015999L466.35199,45.956001L463.048,45.956001L463.048,50.015999L459.51999,50.015999L459.51999,53.264L463.048,53.264L463.048,55.056C463.048,55.728001,463.048,56.428001,462.992,57.155998L459.29599,57.155998L459.29599,60.375999L462.45999,60.375999C461.98401,61.972,461.14401,63.512001,459.66,64.743999C460.35999,65.192001,461.70401,66.452,462.17999,67.096001C464.25201,65.360001,465.34399,62.896,465.87601,60.375999L469.54401,60.375999L469.54401,66.67599899999999L472.87601,66.67599899999999L472.87601,60.375999L476.65601,60.375999L476.65601,57.155998L472.87601,57.155998L472.87601,53.264L476.09601,53.264L476.09601,50.015999L472.87601,50.015999L472.87601,45.984001L469.54401,45.984001ZM466.35199,53.264L469.54401,53.264L469.54401,57.155998L466.29599,57.155998C466.32401,56.428001,466.35199,55.756001,466.35199,55.084L466.35199,53.264ZM457.75601,55.391998L451.20399,55.391998L451.20399,58.5L454.452,58.5L454.452,65.360001C453.276,65.891998,451.93201,66.928001,450.644,68.271999L452.884,71.464001C453.892,69.812,455.12399,67.964001,455.96399,67.964001C456.608,67.964001,457.56,68.83200099999999,458.84799,69.53200100000001C460.892,70.652,463.29999,70.95999900000001,466.828,70.95999900000001C469.71201,70.95999900000001,474.35999,70.792,476.34799,70.68C476.37601,69.728001,476.936,68.076,477.29999,67.18C474.5,67.599998,469.936,67.82400100000001,466.96799,67.82400100000001C463.832,67.82400100000001,461.25601,67.683998,459.35199,66.591999C458.70801,66.256001,458.17599,65.91999799999999,457.75601,65.639999L457.75601,55.391998ZM490.26401,61.188L490.26401,62.644001L479.34399,62.644001L479.34399,65.304001L487.38,65.304001C484.80399,66.731998,481.47198,67.908001,478.42001,68.551998C479.12,69.251999,480.07199,70.512001,480.57599,71.32400100000001C483.85199,70.400002,487.46399,68.692001,490.26401,66.67599899999999L490.26401,71.464001L493.59601,71.464001L493.59601,66.563999C496.36801,68.58000200000001,499.952,70.259998,503.228,71.183998C503.67599,70.400002,504.62799,69.139999,505.328,68.495998C502.388,67.852001,499.168,66.67599899999999,496.67599,65.304001L504.65601,65.304001L504.65601,62.644001L493.59601,62.644001L493.59601,61.188L490.26401,61.188ZM491.46799,53.851997L491.46799,54.972L485.784,54.972L485.784,53.851997L491.46799,53.851997ZM491.01999,45.900002C491.29999,46.515999,491.608,47.243999,491.85999,47.916L487.35199,47.916C487.828,47.216,488.24799,46.515999,488.668,45.816002L485.25201,45.143997C483.96399,47.580002,481.69601,50.491997,478.58801,52.703999C479.34399,53.152,480.40799,54.216,480.94,54.916C481.47198,54.495998,481.97601,54.076,482.452,53.627998L482.452,61.664001L485.784,61.664001L485.784,60.936001L503.92801,60.936001L503.92801,58.360001L494.68799,58.360001L494.68799,57.183998L502.02399,57.183998L502.02399,54.972L494.68799,54.972L494.68799,53.851997L501.996,53.851997L501.996,51.667999L494.68799,51.667999L494.68799,50.491997L503.25601,50.491997L503.25601,47.916L495.332,47.916C495.02399,47.019997,494.51999,45.928001,494.01599,45.059998L491.01999,45.900002ZM491.46799,51.667999L485.784,51.667999L485.784,50.491997L491.46799,50.491997L491.46799,51.667999ZM491.46799,57.183998L491.46799,58.360001L485.784,58.360001L485.784,57.183998L491.46799,57.183998ZM512.216,45.311996C510.92801,49.288002,508.716,53.292,506.36401,55.84C506.98001,56.68,507.90399,58.528,508.21201,59.34C508.79999,58.695999,509.35999,57.967999,509.92001,57.155998L509.92001,71.464001L513.1120000000001,71.464001L513.1120000000001,51.695999C513.98001,49.931999,514.76401,48.084,515.38,46.292L512.216,45.311996ZM514.73599,50.211998L514.73599,53.403999L520.28,53.403999C518.71201,57.855999,516.108,62.279999,513.2520099999999,64.827999C514.008,65.416,515.10001,66.591999,515.6600000000001,67.37599900000001C516.52802,66.47999999999999,517.36801,65.416,518.15201,64.211998L518.15201,66.787998L521.84799,66.787998L521.84799,71.29600099999999L525.12399,71.29600099999999L525.12399,66.787998L528.90399,66.787998L528.90399,64.32400100000001C529.604,65.444,530.3599899999999,66.452,531.14401,67.292C531.73199,66.424,532.88,65.248001,533.664,64.688C530.92001,62.112,528.3439900000001,57.743999,526.80402,53.403999L532.88,53.403999L532.88,50.211998L525.12399,50.211998L525.12399,45.34L521.84799,45.34L521.84799,50.211998L514.73599,50.211998ZM521.84799,63.792L518.43201,63.792C519.72,61.720001,520.896,59.284,521.84799,56.708L521.84799,63.792ZM525.12399,63.792L525.12399,56.428001C526.07599,59.087997,527.2520099999999,61.636002,528.56799,63.792L525.12399,63.792ZM540.4119900000001,52.34L541.19601,53.795998C543.23999,52.872002,545.06,50.911999,545.06,48.139999C545.06,46.431999,543.996,45.115997,542.59601,45.115997C541.2239999999999,45.115997,540.4119900000001,46.096001,540.4119900000001,47.188C540.4119900000001,48.335999,541.19601,49.231998,542.37201,49.231998C542.62399,49.231998,542.84799,49.175999,542.9599900000001,49.091999C542.9599900000001,49.987999,542.0920100000001,51.528,540.4119900000001,52.34ZM534.70001,52.34L535.51199,53.795998C537.556,52.872002,539.37601,50.911999,539.37601,48.139999C539.37601,46.431999,538.31201,45.115997,536.9119900000001,45.115997C535.51199,45.115997,534.7280000000001,46.096001,534.7280000000001,47.188C534.7280000000001,48.335999,535.51199,49.231998,536.6600000000001,49.231998C536.94,49.231998,537.164,49.175999,537.2760000000001,49.091999C537.2760000000001,49.987999,536.4079899999999,51.528,534.70001,52.34ZM575.46799,56.484001C574.96399,59.816002,573.9559899999999,63.231998,572.5,65.360001C573.2560100000001,65.72399899999999,574.60001,66.535999,575.18799,67.04000099999999C576.70001,64.632,577.90399,60.823997,578.57599,57.043999L575.46799,56.484001ZM583.672,57.043999C584.76401,60.124001,585.828,64.183998,586.13599,66.844002L589.216,65.86399800000001C588.82401,63.175999,587.76001,59.256001,586.556,56.147999L583.672,57.043999ZM576.53201,45.283997C575.8879999999999,48.475998,574.73999,51.695999,573.20001,53.908001L573.20001,53.124001L570.03601,53.124001L570.03601,49.175999C571.38,48.868,572.668,48.475998,573.81601,48.056L571.96799,45.368C569.7280000000001,46.32,566.284,47.16,563.2040099999999,47.664001C563.5400099999999,48.391998,563.9599900000001,49.512001,564.07199,50.211998C564.996,50.099998,566.004,49.959999,566.98401,49.792L566.98401,53.124001L563.2040099999999,53.124001L563.2040099999999,56.259998L566.5920100000001,56.259998C565.6120000000001,59.003998,564.07199,62,562.53201,63.82C563.03601,64.576,563.73599,65.891998,564.0440100000001,66.787998C565.07999,65.388,566.116,63.428001,566.98401,61.299999L566.98401,71.52000000000001L570.03601,71.52000000000001L570.03601,60.208C570.73599,61.299999,571.4359999999999,62.475998,571.79999,63.259998L573.62,60.571999C573.14401,59.928001,570.7919899999999,57.548,570.03601,56.875999L570.03601,56.259998L573.20001,56.259998L573.20001,54.888C573.98401,55.335999,574.96399,55.98,575.46799,56.372002C576.36401,55.139999,577.2040099999999,53.543999,577.93201,51.751999L579.6120000000001,51.751999L579.6120000000001,67.82400100000001C579.6120000000001,68.21600000000001,579.47198,68.327999,579.108,68.327999C578.716,68.327999,577.48401,68.327999,576.36401,68.271999C576.81201,69.112,577.3439900000001,70.512001,577.48401,71.408001C579.30402,71.408001,580.67599,71.29600099999999,581.62799,70.82C582.63599,70.287998,582.91602,69.448002,582.91602,67.852001L582.91602,51.751999L585.21201,51.751999C584.84799,52.647999,584.4559899999999,53.571999,584.0640000000001,54.383999L586.97601,55.112C587.73199,53.264,588.57199,51.080002,589.2439899999999,49.063999L587.14401,48.531998L586.668,48.643997L579.02399,48.643997C579.2760000000001,47.748001,579.52802,46.851997,579.7239999999999,45.928001L576.53201,45.283997ZM598.17599,49.119999L609.60001,49.119999L609.60001,51.723999L598.17599,51.723999L598.17599,49.119999ZM594.81601,46.18L594.81601,54.636002L613.18399,54.636002L613.18399,46.18L594.81601,46.18ZM591.48401,56.400002L591.48401,59.424L596.7479900000001,59.424C596.18799,61.271999,595.51599,63.203999,594.92801,64.576L609.2919899999999,64.576C608.92801,66.591999,608.508,67.712002,607.97601,68.104C607.6120000000001,68.327999,607.2479900000001,68.355999,606.63199,68.355999C605.76401,68.355999,603.69199,68.327999,601.81601,68.16C602.43201,69.056,602.9359999999999,70.400002,602.992,71.352001C604.92401,71.464001,606.7719999999999,71.436001,607.836,71.380001C609.15201,71.29600099999999,610.07599,71.099998,610.91602,70.316002C611.92401,69.36399800000001,612.59601,67.26400000000001,613.1560099999999,62.924C613.23999,62.475998,613.32401,61.523998,613.32401,61.523998L599.85599,61.523998L600.52802,59.424L616.40399,59.424L616.40399,56.400002L591.48401,56.400002Z" fill="#FFFFFF" fill-opacity="1"/></g></g></g><g><ellipse cx="9.5" cy="43.5" rx="9.5" ry="9.5" fill="#FFFFFF" fill-opacity="1"/></g></g></svg>